solid outlet
   facet normal 0.000000e+000 -1.224647e-016 1.000000e+000
      outer loop
         vertex 7.692924e+000 -1.645006e+001 1.000000e+003
         vertex 8.018467e+000 -1.629386e+001 1.000000e+003
         vertex -1.268106e-013 1.816000e+001 1.000000e+003
      endloop
   endfacet
   facet normal 0.000000e+000 -1.224647e-016 1.000000e+000
      outer loop
         vertex 3.232442e+000 -1.787000e+001 1.000000e+003
         vertex 3.587098e+000 -1.780220e+001 1.000000e+003
         vertex -1.268106e-013 1.816000e+001 1.000000e+003
      endloop
   endfacet
   facet normal 0.000000e+000 -1.224647e-016 1.000000e+000
      outer loop
         vertex -1.268106e-013 1.816000e+001 1.000000e+003
         vertex 3.587098e+000 -1.780220e+001 1.000000e+003
         vertex 3.940335e+000 -1.772736e+001 1.000000e+003
      endloop
   endfacet
   facet normal 0.000000e+000 -1.224647e-016 1.000000e+000
      outer loop
         vertex 4.990146e+000 -1.746093e+001 1.000000e+003
         vertex 5.336321e+000 -1.735826e+001 1.000000e+003
         vertex -1.268106e-013 1.816000e+001 1.000000e+003
      endloop
   endfacet
   facet normal 0.000000e+000 -1.224647e-016 1.000000e+000
      outer loop
         vertex -1.268106e-013 1.816000e+001 1.000000e+003
         vertex 5.336321e+000 -1.735826e+001 1.000000e+003
         vertex 5.680387e+000 -1.724873e+001 1.000000e+003
      endloop
   endfacet
   facet normal 0.000000e+000 -1.224647e-016 1.000000e+000
      outer loop
         vertex 0.000000e+000 -1.816000e+001 1.000000e+003
         vertex 3.610605e-001 -1.815641e+001 1.000000e+003
         vertex -1.268106e-013 1.816000e+001 1.000000e+003
      endloop
   endfacet
   facet normal 0.000000e+000 -1.224647e-016 1.000000e+000
      outer loop
         vertex -1.268106e-013 1.816000e+001 1.000000e+003
         vertex 3.610605e-001 -1.815641e+001 1.000000e+003
         vertex 7.219783e-001 -1.814564e+001 1.000000e+003
      endloop
   endfacet
   facet normal 0.000000e+000 -1.224647e-016 1.000000e+000
      outer loop
         vertex 3.940335e+000 -1.772736e+001 1.000000e+003
         vertex 4.292015e+000 -1.764552e+001 1.000000e+003
         vertex -1.268106e-013 1.816000e+001 1.000000e+003
      endloop
   endfacet
   facet normal 0.000000e+000 -1.224647e-016 1.000000e+000
      outer loop
         vertex -1.268106e-013 1.816000e+001 1.000000e+003
         vertex 4.292015e+000 -1.764552e+001 1.000000e+003
         vertex 4.641998e+000 -1.755669e+001 1.000000e+003
      endloop
   endfacet
   facet normal 0.000000e+000 -1.224647e-016 1.000000e+000
      outer loop
         vertex -1.268106e-013 1.816000e+001 1.000000e+003
         vertex 4.641998e+000 -1.755669e+001 1.000000e+003
         vertex 4.990146e+000 -1.746093e+001 1.000000e+003
      endloop
   endfacet
   facet normal 0.000000e+000 -1.224647e-016 1.000000e+000
      outer loop
         vertex 5.680387e+000 -1.724873e+001 1.000000e+003
         vertex 6.022206e+000 -1.713239e+001 1.000000e+003
         vertex -1.268106e-013 1.816000e+001 1.000000e+003
      endloop
   endfacet
   facet normal 0.000000e+000 -1.224647e-016 1.000000e+000
      outer loop
         vertex -1.268106e-013 1.816000e+001 1.000000e+003
         vertex 6.022206e+000 -1.713239e+001 1.000000e+003
         vertex 6.361645e+000 -1.700926e+001 1.000000e+003
      endloop
   endfacet
   facet normal 0.000000e+000 -1.224647e-016 1.000000e+000
      outer loop
         vertex -1.268106e-013 1.816000e+001 1.000000e+003
         vertex 6.361645e+000 -1.700926e+001 1.000000e+003
         vertex 6.698569e+000 -1.687942e+001 1.000000e+003
      endloop
   endfacet
   facet normal 0.000000e+000 -1.224647e-016 1.000000e+000
      outer loop
         vertex 6.698569e+000 -1.687942e+001 1.000000e+003
         vertex 7.032845e+000 -1.674290e+001 1.000000e+003
         vertex -1.268106e-013 1.816000e+001 1.000000e+003
      endloop
   endfacet
   facet normal 0.000000e+000 -1.224647e-016 1.000000e+000
      outer loop
         vertex -1.268106e-013 1.816000e+001 1.000000e+003
         vertex 7.032845e+000 -1.674290e+001 1.000000e+003
         vertex 7.364340e+000 -1.659976e+001 1.000000e+003
      endloop
   endfacet
   facet normal 0.000000e+000 -1.224647e-016 1.000000e+000
      outer loop
         vertex -1.268106e-013 1.816000e+001 1.000000e+003
         vertex 7.364340e+000 -1.659976e+001 1.000000e+003
         vertex 7.692924e+000 -1.645006e+001 1.000000e+003
      endloop
   endfacet
   facet normal 0.000000e+000 -1.224647e-016 1.000000e+000
      outer loop
         vertex 8.018467e+000 -1.629386e+001 1.000000e+003
         vertex 8.340838e+000 -1.613121e+001 1.000000e+003
         vertex -1.268106e-013 1.816000e+001 1.000000e+003
      endloop
   endfacet
   facet normal 0.000000e+000 -1.224647e-016 1.000000e+000
      outer loop
         vertex -1.268106e-013 1.816000e+001 1.000000e+003
         vertex 8.340838e+000 -1.613121e+001 1.000000e+003
         vertex 8.659914e+000 -1.596219e+001 1.000000e+003
      endloop
   endfacet
   facet normal 0.000000e+000 -1.224647e-016 1.000000e+000
      outer loop
         vertex -1.268106e-013 1.816000e+001 1.000000e+003
         vertex 8.659914e+000 -1.596219e+001 1.000000e+003
         vertex 8.975565e+000 -1.578686e+001 1.000000e+003
      endloop
   endfacet
   facet normal 0.000000e+000 -1.224647e-016 1.000000e+000
      outer loop
         vertex 8.975565e+000 -1.578686e+001 1.000000e+003
         vertex 9.287668e+000 -1.560528e+001 1.000000e+003
         vertex -1.268106e-013 1.816000e+001 1.000000e+003
      endloop
   endfacet
   facet normal 0.000000e+000 -1.224647e-016 1.000000e+000
      outer loop
         vertex -1.268106e-013 1.816000e+001 1.000000e+003
         vertex 9.287668e+000 -1.560528e+001 1.000000e+003
         vertex 9.596099e+000 -1.541754e+001 1.000000e+003
      endloop
   endfacet
   facet normal 0.000000e+000 -1.224647e-016 1.000000e+000
      outer loop
         vertex -1.268106e-013 1.816000e+001 1.000000e+003
         vertex 9.596099e+000 -1.541754e+001 1.000000e+003
         vertex 9.900737e+000 -1.522370e+001 1.000000e+003
      endloop
   endfacet
   facet normal 0.000000e+000 -1.224647e-016 1.000000e+000
      outer loop
         vertex -1.268106e-013 1.816000e+001 1.000000e+003
         vertex 1.802449e+000 -1.807033e+001 1.000000e+003
         vertex 2.161370e+000 -1.803092e+001 1.000000e+003
      endloop
   endfacet
   facet normal 0.000000e+000 -1.224647e-016 1.000000e+000
      outer loop
         vertex 7.219783e-001 -1.814564e+001 1.000000e+003
         vertex 1.082611e+000 -1.812770e+001 1.000000e+003
         vertex -1.268106e-013 1.816000e+001 1.000000e+003
      endloop
   endfacet
   facet normal 0.000000e+000 -1.224647e-016 1.000000e+000
      outer loop
         vertex -1.268106e-013 1.816000e+001 1.000000e+003
         vertex 1.082611e+000 -1.812770e+001 1.000000e+003
         vertex 1.442815e+000 -1.810259e+001 1.000000e+003
      endloop
   endfacet
   facet normal 0.000000e+000 -1.224647e-016 1.000000e+000
      outer loop
         vertex -1.268106e-013 1.816000e+001 1.000000e+003
         vertex 1.442815e+000 -1.810259e+001 1.000000e+003
         vertex 1.802449e+000 -1.807033e+001 1.000000e+003
      endloop
   endfacet
   facet normal 0.000000e+000 -1.224647e-016 1.000000e+000
      outer loop
         vertex 2.161370e+000 -1.803092e+001 1.000000e+003
         vertex 2.519437e+000 -1.798438e+001 1.000000e+003
         vertex -1.268106e-013 1.816000e+001 1.000000e+003
      endloop
   endfacet
   facet normal 0.000000e+000 -1.224647e-016 1.000000e+000
      outer loop
         vertex -1.268106e-013 1.816000e+001 1.000000e+003
         vertex 2.519437e+000 -1.798438e+001 1.000000e+003
         vertex 2.876508e+000 -1.793074e+001 1.000000e+003
      endloop
   endfacet
   facet normal 0.000000e+000 -1.224647e-016 1.000000e+000
      outer loop
         vertex -1.268106e-013 1.816000e+001 1.000000e+003
         vertex 2.876508e+000 -1.793074e+001 1.000000e+003
         vertex 3.232442e+000 -1.787000e+001 1.000000e+003
      endloop
   endfacet
   facet normal 0.000000e+000 -1.224647e-016 1.000000e+000
      outer loop
         vertex 9.900737e+000 -1.522370e+001 1.000000e+003
         vertex 1.020146e+001 -1.502384e+001 1.000000e+003
         vertex -1.268106e-013 1.816000e+001 1.000000e+003
      endloop
   endfacet
   facet normal 0.000000e+000 -1.224647e-016 1.000000e+000
      outer loop
         vertex -1.268106e-013 1.816000e+001 1.000000e+003
         vertex 1.020146e+001 -1.502384e+001 1.000000e+003
         vertex 1.049815e+001 -1.481804e+001 1.000000e+003
      endloop
   endfacet
   facet normal 0.000000e+000 -1.224647e-016 1.000000e+000
      outer loop
         vertex -1.268106e-013 1.816000e+001 1.000000e+003
         vertex 1.049815e+001 -1.481804e+001 1.000000e+003
         vertex 1.079069e+001 -1.460639e+001 1.000000e+003
      endloop
   endfacet
   facet normal 0.000000e+000 -1.224647e-016 1.000000e+000
      outer loop
         vertex 1.645006e+001 -7.692924e+000 1.000000e+003
         vertex 1.659976e+001 -7.364340e+000 1.000000e+003
         vertex -1.268106e-013 1.816000e+001 1.000000e+003
      endloop
   endfacet
   facet normal 0.000000e+000 -1.224647e-016 1.000000e+000
      outer loop
         vertex 1.700926e+001 -6.361645e+000 1.000000e+003
         vertex 1.713239e+001 -6.022206e+000 1.000000e+003
         vertex 8.659914e+000 1.596219e+001 1.000000e+003
      endloop
   endfacet
   facet normal 0.000000e+000 -1.224647e-016 1.000000e+000
      outer loop
         vertex 9.596099e+000 1.541754e+001 1.000000e+003
         vertex 9.287668e+000 1.560528e+001 1.000000e+003
         vertex 1.735826e+001 5.336321e+000 1.000000e+003
      endloop
   endfacet
   facet normal 0.000000e+000 -1.224647e-016 1.000000e+000
      outer loop
         vertex 1.687942e+001 -6.698569e+000 1.000000e+003
         vertex 1.082611e+000 1.812770e+001 1.000000e+003
         vertex 7.219783e-001 1.814564e+001 1.000000e+003
      endloop
   endfacet
   facet normal 0.000000e+000 -1.224647e-016 1.000000e+000
      outer loop
         vertex 1.079069e+001 -1.460639e+001 1.000000e+003
         vertex 1.107897e+001 -1.438896e+001 1.000000e+003
         vertex -1.268106e-013 1.816000e+001 1.000000e+003
      endloop
   endfacet
   facet normal 0.000000e+000 -1.224647e-016 1.000000e+000
      outer loop
         vertex -1.268106e-013 1.816000e+001 1.000000e+003
         vertex 1.107897e+001 -1.438896e+001 1.000000e+003
         vertex 1.136286e+001 -1.416584e+001 1.000000e+003
      endloop
   endfacet
   facet normal 0.000000e+000 -1.224647e-016 1.000000e+000
      outer loop
         vertex -1.268106e-013 1.816000e+001 1.000000e+003
         vertex 1.136286e+001 -1.416584e+001 1.000000e+003
         vertex 1.164226e+001 -1.393712e+001 1.000000e+003
      endloop
   endfacet
   facet normal 0.000000e+000 -1.224647e-016 1.000000e+000
      outer loop
         vertex 1.164226e+001 -1.393712e+001 1.000000e+003
         vertex 1.191706e+001 -1.370289e+001 1.000000e+003
         vertex -1.268106e-013 1.816000e+001 1.000000e+003
      endloop
   endfacet
   facet normal 0.000000e+000 -1.224647e-016 1.000000e+000
      outer loop
         vertex -1.268106e-013 1.816000e+001 1.000000e+003
         vertex 1.191706e+001 -1.370289e+001 1.000000e+003
         vertex 1.218715e+001 -1.346325e+001 1.000000e+003
      endloop
   endfacet
   facet normal 0.000000e+000 -1.224647e-016 1.000000e+000
      outer loop
         vertex -1.268106e-013 1.816000e+001 1.000000e+003
         vertex 1.218715e+001 -1.346325e+001 1.000000e+003
         vertex 1.245242e+001 -1.321828e+001 1.000000e+003
      endloop
   endfacet
   facet normal 0.000000e+000 -1.224647e-016 1.000000e+000
      outer loop
         vertex 7.219783e-001 1.814564e+001 1.000000e+003
         vertex 3.610605e-001 1.815641e+001 1.000000e+003
         vertex 1.687942e+001 -6.698569e+000 1.000000e+003
      endloop
   endfacet
   facet normal 0.000000e+000 -1.224647e-016 1.000000e+000
      outer loop
         vertex 1.687942e+001 -6.698569e+000 1.000000e+003
         vertex 3.610605e-001 1.815641e+001 1.000000e+003
         vertex -1.268106e-013 1.816000e+001 1.000000e+003
      endloop
   endfacet
   facet normal 0.000000e+000 -1.224647e-016 1.000000e+000
      outer loop
         vertex 1.687942e+001 -6.698569e+000 1.000000e+003
         vertex -1.268106e-013 1.816000e+001 1.000000e+003
         vertex 1.674290e+001 -7.032845e+000 1.000000e+003
      endloop
   endfacet
   facet normal 0.000000e+000 -1.224647e-016 1.000000e+000
      outer loop
         vertex 1.674290e+001 -7.032845e+000 1.000000e+003
         vertex -1.268106e-013 1.816000e+001 1.000000e+003
         vertex 1.659976e+001 -7.364340e+000 1.000000e+003
      endloop
   endfacet
   facet normal 0.000000e+000 -1.224647e-016 1.000000e+000
      outer loop
         vertex 7.692924e+000 1.645006e+001 1.000000e+003
         vertex 7.364340e+000 1.659976e+001 1.000000e+003
         vertex 1.687942e+001 -6.698569e+000 1.000000e+003
      endloop
   endfacet
   facet normal 0.000000e+000 -1.224647e-016 1.000000e+000
      outer loop
         vertex 1.245242e+001 -1.321828e+001 1.000000e+003
         vertex 1.271276e+001 -1.296808e+001 1.000000e+003
         vertex -1.268106e-013 1.816000e+001 1.000000e+003
      endloop
   endfacet
   facet normal 0.000000e+000 -1.224647e-016 1.000000e+000
      outer loop
         vertex -1.268106e-013 1.816000e+001 1.000000e+003
         vertex 1.271276e+001 -1.296808e+001 1.000000e+003
         vertex 1.296808e+001 -1.271276e+001 1.000000e+003
      endloop
   endfacet
   facet normal 0.000000e+000 -1.224647e-016 1.000000e+000
      outer loop
         vertex -1.268106e-013 1.816000e+001 1.000000e+003
         vertex 1.296808e+001 -1.271276e+001 1.000000e+003
         vertex 1.321828e+001 -1.245242e+001 1.000000e+003
      endloop
   endfacet
   facet normal 0.000000e+000 -1.224647e-016 1.000000e+000
      outer loop
         vertex 1.321828e+001 -1.245242e+001 1.000000e+003
         vertex 1.346325e+001 -1.218715e+001 1.000000e+003
         vertex -1.268106e-013 1.816000e+001 1.000000e+003
      endloop
   endfacet
   facet normal 0.000000e+000 -1.224647e-016 1.000000e+000
      outer loop
         vertex -1.268106e-013 1.816000e+001 1.000000e+003
         vertex 1.346325e+001 -1.218715e+001 1.000000e+003
         vertex 1.370289e+001 -1.191706e+001 1.000000e+003
      endloop
   endfacet
   facet normal 0.000000e+000 -1.224647e-016 1.000000e+000
      outer loop
         vertex -1.268106e-013 1.816000e+001 1.000000e+003
         vertex 1.370289e+001 -1.191706e+001 1.000000e+003
         vertex 1.393712e+001 -1.164226e+001 1.000000e+003
      endloop
   endfacet
   facet normal 0.000000e+000 -1.224647e-016 1.000000e+000
      outer loop
         vertex 1.522370e+001 -9.900737e+000 1.000000e+003
         vertex 1.541754e+001 -9.596099e+000 1.000000e+003
         vertex -1.268106e-013 1.816000e+001 1.000000e+003
      endloop
   endfacet
   facet normal 0.000000e+000 -1.224647e-016 1.000000e+000
      outer loop
         vertex 1.713239e+001 -6.022206e+000 1.000000e+003
         vertex 1.724873e+001 -5.680387e+000 1.000000e+003
         vertex 8.659914e+000 1.596219e+001 1.000000e+003
      endloop
   endfacet
   facet normal 0.000000e+000 -1.224647e-016 1.000000e+000
      outer loop
         vertex 8.659914e+000 1.596219e+001 1.000000e+003
         vertex 1.724873e+001 -5.680387e+000 1.000000e+003
         vertex 1.735826e+001 -5.336321e+000 1.000000e+003
      endloop
   endfacet
   facet normal 0.000000e+000 -1.224647e-016 1.000000e+000
      outer loop
         vertex 8.659914e+000 1.596219e+001 1.000000e+003
         vertex 1.735826e+001 -5.336321e+000 1.000000e+003
         vertex 1.746093e+001 -4.990146e+000 1.000000e+003
      endloop
   endfacet
   facet normal 0.000000e+000 -1.224647e-016 1.000000e+000
      outer loop
         vertex 1.793074e+001 2.876508e+000 1.000000e+003
         vertex 1.787000e+001 3.232442e+000 1.000000e+003
         vertex 8.659914e+000 1.596219e+001 1.000000e+003
      endloop
   endfacet
   facet normal 0.000000e+000 -1.224647e-016 1.000000e+000
      outer loop
         vertex 8.659914e+000 1.596219e+001 1.000000e+003
         vertex 1.787000e+001 3.232442e+000 1.000000e+003
         vertex 1.780220e+001 3.587098e+000 1.000000e+003
      endloop
   endfacet
   facet normal 0.000000e+000 -1.224647e-016 1.000000e+000
      outer loop
         vertex 1.780220e+001 3.587098e+000 1.000000e+003
         vertex 1.772736e+001 3.940335e+000 1.000000e+003
         vertex 8.659914e+000 1.596219e+001 1.000000e+003
      endloop
   endfacet
   facet normal 0.000000e+000 -1.224647e-016 1.000000e+000
      outer loop
         vertex 8.659914e+000 1.596219e+001 1.000000e+003
         vertex 1.772736e+001 3.940335e+000 1.000000e+003
         vertex 1.764552e+001 4.292015e+000 1.000000e+003
      endloop
   endfacet
   facet normal 0.000000e+000 -1.224647e-016 1.000000e+000
      outer loop
         vertex 8.659914e+000 1.596219e+001 1.000000e+003
         vertex 1.764552e+001 4.292015e+000 1.000000e+003
         vertex 1.755669e+001 4.641998e+000 1.000000e+003
      endloop
   endfacet
   facet normal 0.000000e+000 -1.224647e-016 1.000000e+000
      outer loop
         vertex 7.692924e+000 1.645006e+001 1.000000e+003
         vertex 1.687942e+001 -6.698569e+000 1.000000e+003
         vertex 8.018467e+000 1.629386e+001 1.000000e+003
      endloop
   endfacet
   facet normal 0.000000e+000 -1.224647e-016 1.000000e+000
      outer loop
         vertex 3.232442e+000 1.787000e+001 1.000000e+003
         vertex 2.876508e+000 1.793074e+001 1.000000e+003
         vertex 1.687942e+001 -6.698569e+000 1.000000e+003
      endloop
   endfacet
   facet normal 0.000000e+000 -1.224647e-016 1.000000e+000
      outer loop
         vertex 1.687942e+001 -6.698569e+000 1.000000e+003
         vertex 2.876508e+000 1.793074e+001 1.000000e+003
         vertex 2.519437e+000 1.798438e+001 1.000000e+003
      endloop
   endfacet
   facet normal 0.000000e+000 -1.224647e-016 1.000000e+000
      outer loop
         vertex 1.687942e+001 -6.698569e+000 1.000000e+003
         vertex 2.519437e+000 1.798438e+001 1.000000e+003
         vertex 2.161370e+000 1.803092e+001 1.000000e+003
      endloop
   endfacet
   facet normal 0.000000e+000 -1.224647e-016 1.000000e+000
      outer loop
         vertex 1.746093e+001 -4.990146e+000 1.000000e+003
         vertex 1.755669e+001 -4.641998e+000 1.000000e+003
         vertex 8.659914e+000 1.596219e+001 1.000000e+003
      endloop
   endfacet
   facet normal 0.000000e+000 -1.224647e-016 1.000000e+000
      outer loop
         vertex 8.659914e+000 1.596219e+001 1.000000e+003
         vertex 1.755669e+001 -4.641998e+000 1.000000e+003
         vertex 1.764552e+001 -4.292015e+000 1.000000e+003
      endloop
   endfacet
   facet normal 0.000000e+000 -1.224647e-016 1.000000e+000
      outer loop
         vertex 8.659914e+000 1.596219e+001 1.000000e+003
         vertex 1.764552e+001 -4.292015e+000 1.000000e+003
         vertex 1.772736e+001 -3.940335e+000 1.000000e+003
      endloop
   endfacet
   facet normal 0.000000e+000 -1.224647e-016 1.000000e+000
      outer loop
         vertex 9.287668e+000 1.560528e+001 1.000000e+003
         vertex 8.975565e+000 1.578686e+001 1.000000e+003
         vertex 1.735826e+001 5.336321e+000 1.000000e+003
      endloop
   endfacet
   facet normal 0.000000e+000 -1.224647e-016 1.000000e+000
      outer loop
         vertex 1.735826e+001 5.336321e+000 1.000000e+003
         vertex 8.975565e+000 1.578686e+001 1.000000e+003
         vertex 8.659914e+000 1.596219e+001 1.000000e+003
      endloop
   endfacet
   facet normal 0.000000e+000 -1.224647e-016 1.000000e+000
      outer loop
         vertex 1.735826e+001 5.336321e+000 1.000000e+003
         vertex 8.659914e+000 1.596219e+001 1.000000e+003
         vertex 1.746093e+001 4.990146e+000 1.000000e+003
      endloop
   endfacet
   facet normal 0.000000e+000 -1.224647e-016 1.000000e+000
      outer loop
         vertex 1.746093e+001 4.990146e+000 1.000000e+003
         vertex 8.659914e+000 1.596219e+001 1.000000e+003
         vertex 1.755669e+001 4.641998e+000 1.000000e+003
      endloop
   endfacet
   facet normal 0.000000e+000 -1.224647e-016 1.000000e+000
      outer loop
         vertex 7.364340e+000 1.659976e+001 1.000000e+003
         vertex 7.032845e+000 1.674290e+001 1.000000e+003
         vertex 1.687942e+001 -6.698569e+000 1.000000e+003
      endloop
   endfacet
   facet normal 0.000000e+000 -1.224647e-016 1.000000e+000
      outer loop
         vertex 1.687942e+001 -6.698569e+000 1.000000e+003
         vertex 7.032845e+000 1.674290e+001 1.000000e+003
         vertex 6.698569e+000 1.687942e+001 1.000000e+003
      endloop
   endfacet
   facet normal 0.000000e+000 -1.224647e-016 1.000000e+000
      outer loop
         vertex 1.687942e+001 -6.698569e+000 1.000000e+003
         vertex 6.698569e+000 1.687942e+001 1.000000e+003
         vertex 6.361645e+000 1.700926e+001 1.000000e+003
      endloop
   endfacet
   facet normal 0.000000e+000 -1.224647e-016 1.000000e+000
      outer loop
         vertex 6.361645e+000 1.700926e+001 1.000000e+003
         vertex 6.022206e+000 1.713239e+001 1.000000e+003
         vertex 1.687942e+001 -6.698569e+000 1.000000e+003
      endloop
   endfacet
   facet normal 0.000000e+000 -1.224647e-016 1.000000e+000
      outer loop
         vertex 1.687942e+001 -6.698569e+000 1.000000e+003
         vertex 6.022206e+000 1.713239e+001 1.000000e+003
         vertex 5.680387e+000 1.724873e+001 1.000000e+003
      endloop
   endfacet
   facet normal 0.000000e+000 -1.224647e-016 1.000000e+000
      outer loop
         vertex 1.687942e+001 -6.698569e+000 1.000000e+003
         vertex 5.680387e+000 1.724873e+001 1.000000e+003
         vertex 5.336321e+000 1.735826e+001 1.000000e+003
      endloop
   endfacet
   facet normal 0.000000e+000 -1.224647e-016 1.000000e+000
      outer loop
         vertex 5.336321e+000 1.735826e+001 1.000000e+003
         vertex 4.990146e+000 1.746093e+001 1.000000e+003
         vertex 1.687942e+001 -6.698569e+000 1.000000e+003
      endloop
   endfacet
   facet normal 0.000000e+000 -1.224647e-016 1.000000e+000
      outer loop
         vertex 1.687942e+001 -6.698569e+000 1.000000e+003
         vertex 4.990146e+000 1.746093e+001 1.000000e+003
         vertex 4.641998e+000 1.755669e+001 1.000000e+003
      endloop
   endfacet
   facet normal 0.000000e+000 -1.224647e-016 1.000000e+000
      outer loop
         vertex 1.687942e+001 -6.698569e+000 1.000000e+003
         vertex 4.641998e+000 1.755669e+001 1.000000e+003
         vertex 4.292015e+000 1.764552e+001 1.000000e+003
      endloop
   endfacet
   facet normal 0.000000e+000 -1.224647e-016 1.000000e+000
      outer loop
         vertex 2.161370e+000 1.803092e+001 1.000000e+003
         vertex 1.802449e+000 1.807033e+001 1.000000e+003
         vertex 1.687942e+001 -6.698569e+000 1.000000e+003
      endloop
   endfacet
   facet normal 0.000000e+000 -1.224647e-016 1.000000e+000
      outer loop
         vertex 1.687942e+001 -6.698569e+000 1.000000e+003
         vertex 1.802449e+000 1.807033e+001 1.000000e+003
         vertex 1.442815e+000 1.810259e+001 1.000000e+003
      endloop
   endfacet
   facet normal 0.000000e+000 -1.224647e-016 1.000000e+000
      outer loop
         vertex 1.687942e+001 -6.698569e+000 1.000000e+003
         vertex 1.442815e+000 1.810259e+001 1.000000e+003
         vertex 1.082611e+000 1.812770e+001 1.000000e+003
      endloop
   endfacet
   facet normal 0.000000e+000 -1.224647e-016 1.000000e+000
      outer loop
         vertex 1.393712e+001 -1.164226e+001 1.000000e+003
         vertex 1.416584e+001 -1.136286e+001 1.000000e+003
         vertex -1.268106e-013 1.816000e+001 1.000000e+003
      endloop
   endfacet
   facet normal 0.000000e+000 -1.224647e-016 1.000000e+000
      outer loop
         vertex -1.268106e-013 1.816000e+001 1.000000e+003
         vertex 1.416584e+001 -1.136286e+001 1.000000e+003
         vertex 1.438896e+001 -1.107897e+001 1.000000e+003
      endloop
   endfacet
   facet normal 0.000000e+000 -1.224647e-016 1.000000e+000
      outer loop
         vertex -1.268106e-013 1.816000e+001 1.000000e+003
         vertex 1.438896e+001 -1.107897e+001 1.000000e+003
         vertex 1.460639e+001 -1.079069e+001 1.000000e+003
      endloop
   endfacet
   facet normal 0.000000e+000 -1.224647e-016 1.000000e+000
      outer loop
         vertex 1.460639e+001 -1.079069e+001 1.000000e+003
         vertex 1.481804e+001 -1.049815e+001 1.000000e+003
         vertex -1.268106e-013 1.816000e+001 1.000000e+003
      endloop
   endfacet
   facet normal 0.000000e+000 -1.224647e-016 1.000000e+000
      outer loop
         vertex -1.268106e-013 1.816000e+001 1.000000e+003
         vertex 1.481804e+001 -1.049815e+001 1.000000e+003
         vertex 1.502384e+001 -1.020146e+001 1.000000e+003
      endloop
   endfacet
   facet normal 0.000000e+000 -1.224647e-016 1.000000e+000
      outer loop
         vertex -1.268106e-013 1.816000e+001 1.000000e+003
         vertex 1.502384e+001 -1.020146e+001 1.000000e+003
         vertex 1.522370e+001 -9.900737e+000 1.000000e+003
      endloop
   endfacet
   facet normal 0.000000e+000 -1.224647e-016 1.000000e+000
      outer loop
         vertex 1.596219e+001 -8.659914e+000 1.000000e+003
         vertex 1.613121e+001 -8.340838e+000 1.000000e+003
         vertex -1.268106e-013 1.816000e+001 1.000000e+003
      endloop
   endfacet
   facet normal 0.000000e+000 -1.224647e-016 1.000000e+000
      outer loop
         vertex -1.268106e-013 1.816000e+001 1.000000e+003
         vertex 1.613121e+001 -8.340838e+000 1.000000e+003
         vertex 1.629386e+001 -8.018467e+000 1.000000e+003
      endloop
   endfacet
   facet normal 0.000000e+000 -1.224647e-016 1.000000e+000
      outer loop
         vertex -1.268106e-013 1.816000e+001 1.000000e+003
         vertex 1.629386e+001 -8.018467e+000 1.000000e+003
         vertex 1.645006e+001 -7.692924e+000 1.000000e+003
      endloop
   endfacet
   facet normal 0.000000e+000 -1.224647e-016 1.000000e+000
      outer loop
         vertex 1.772736e+001 -3.940335e+000 1.000000e+003
         vertex 1.780220e+001 -3.587098e+000 1.000000e+003
         vertex 8.659914e+000 1.596219e+001 1.000000e+003
      endloop
   endfacet
   facet normal 0.000000e+000 -1.224647e-016 1.000000e+000
      outer loop
         vertex 8.659914e+000 1.596219e+001 1.000000e+003
         vertex 1.780220e+001 -3.587098e+000 1.000000e+003
         vertex 1.787000e+001 -3.232442e+000 1.000000e+003
      endloop
   endfacet
   facet normal 0.000000e+000 -1.224647e-016 1.000000e+000
      outer loop
         vertex 8.659914e+000 1.596219e+001 1.000000e+003
         vertex 1.787000e+001 -3.232442e+000 1.000000e+003
         vertex 1.793074e+001 -2.876508e+000 1.000000e+003
      endloop
   endfacet
   facet normal 0.000000e+000 -1.224647e-016 1.000000e+000
      outer loop
         vertex 1.793074e+001 -2.876508e+000 1.000000e+003
         vertex 1.798438e+001 -2.519437e+000 1.000000e+003
         vertex 8.659914e+000 1.596219e+001 1.000000e+003
      endloop
   endfacet
   facet normal 0.000000e+000 -1.224647e-016 1.000000e+000
      outer loop
         vertex 8.659914e+000 1.596219e+001 1.000000e+003
         vertex 1.798438e+001 -2.519437e+000 1.000000e+003
         vertex 1.803092e+001 -2.161370e+000 1.000000e+003
      endloop
   endfacet
   facet normal 0.000000e+000 -1.224647e-016 1.000000e+000
      outer loop
         vertex 8.659914e+000 1.596219e+001 1.000000e+003
         vertex 1.803092e+001 -2.161370e+000 1.000000e+003
         vertex 1.807033e+001 -1.802449e+000 1.000000e+003
      endloop
   endfacet
   facet normal 0.000000e+000 -1.224647e-016 1.000000e+000
      outer loop
         vertex 8.659914e+000 1.596219e+001 1.000000e+003
         vertex 1.815641e+001 3.610605e-001 1.000000e+003
         vertex 1.814564e+001 7.219783e-001 1.000000e+003
      endloop
   endfacet
   facet normal 0.000000e+000 -1.224647e-016 1.000000e+000
      outer loop
         vertex 1.700926e+001 -6.361645e+000 1.000000e+003
         vertex 8.659914e+000 1.596219e+001 1.000000e+003
         vertex 1.687942e+001 -6.698569e+000 1.000000e+003
      endloop
   endfacet
   facet normal 0.000000e+000 -1.224647e-016 1.000000e+000
      outer loop
         vertex 1.687942e+001 -6.698569e+000 1.000000e+003
         vertex 8.659914e+000 1.596219e+001 1.000000e+003
         vertex 8.340838e+000 1.613121e+001 1.000000e+003
      endloop
   endfacet
   facet normal 0.000000e+000 -1.224647e-016 1.000000e+000
      outer loop
         vertex 1.687942e+001 -6.698569e+000 1.000000e+003
         vertex 8.340838e+000 1.613121e+001 1.000000e+003
         vertex 8.018467e+000 1.629386e+001 1.000000e+003
      endloop
   endfacet
   facet normal 0.000000e+000 -1.224647e-016 1.000000e+000
      outer loop
         vertex 4.292015e+000 1.764552e+001 1.000000e+003
         vertex 3.940335e+000 1.772736e+001 1.000000e+003
         vertex 1.687942e+001 -6.698569e+000 1.000000e+003
      endloop
   endfacet
   facet normal 0.000000e+000 -1.224647e-016 1.000000e+000
      outer loop
         vertex 1.687942e+001 -6.698569e+000 1.000000e+003
         vertex 3.940335e+000 1.772736e+001 1.000000e+003
         vertex 3.587098e+000 1.780220e+001 1.000000e+003
      endloop
   endfacet
   facet normal 0.000000e+000 -1.224647e-016 1.000000e+000
      outer loop
         vertex 1.687942e+001 -6.698569e+000 1.000000e+003
         vertex 3.587098e+000 1.780220e+001 1.000000e+003
         vertex 3.232442e+000 1.787000e+001 1.000000e+003
      endloop
   endfacet
   facet normal 0.000000e+000 -1.224647e-016 1.000000e+000
      outer loop
         vertex 1.541754e+001 -9.596099e+000 1.000000e+003
         vertex 1.560528e+001 -9.287668e+000 1.000000e+003
         vertex -1.268106e-013 1.816000e+001 1.000000e+003
      endloop
   endfacet
   facet normal 0.000000e+000 -1.224647e-016 1.000000e+000
      outer loop
         vertex -1.268106e-013 1.816000e+001 1.000000e+003
         vertex 1.560528e+001 -9.287668e+000 1.000000e+003
         vertex 1.578686e+001 -8.975565e+000 1.000000e+003
      endloop
   endfacet
   facet normal 0.000000e+000 -1.224647e-016 1.000000e+000
      outer loop
         vertex -1.268106e-013 1.816000e+001 1.000000e+003
         vertex 1.578686e+001 -8.975565e+000 1.000000e+003
         vertex 1.596219e+001 -8.659914e+000 1.000000e+003
      endloop
   endfacet
   facet normal 0.000000e+000 -1.224647e-016 1.000000e+000
      outer loop
         vertex 1.807033e+001 -1.802449e+000 1.000000e+003
         vertex 1.810259e+001 -1.442815e+000 1.000000e+003
         vertex 8.659914e+000 1.596219e+001 1.000000e+003
      endloop
   endfacet
   facet normal 0.000000e+000 -1.224647e-016 1.000000e+000
      outer loop
         vertex 8.659914e+000 1.596219e+001 1.000000e+003
         vertex 1.810259e+001 -1.442815e+000 1.000000e+003
         vertex 1.812770e+001 -1.082611e+000 1.000000e+003
      endloop
   endfacet
   facet normal 0.000000e+000 -1.224647e-016 1.000000e+000
      outer loop
         vertex 8.659914e+000 1.596219e+001 1.000000e+003
         vertex 1.812770e+001 -1.082611e+000 1.000000e+003
         vertex 1.814564e+001 -7.219783e-001 1.000000e+003
      endloop
   endfacet
   facet normal 0.000000e+000 -1.224647e-016 1.000000e+000
      outer loop
         vertex 1.814564e+001 7.219783e-001 1.000000e+003
         vertex 1.812770e+001 1.082611e+000 1.000000e+003
         vertex 8.659914e+000 1.596219e+001 1.000000e+003
      endloop
   endfacet
   facet normal 0.000000e+000 -1.224647e-016 1.000000e+000
      outer loop
         vertex 8.659914e+000 1.596219e+001 1.000000e+003
         vertex 1.812770e+001 1.082611e+000 1.000000e+003
         vertex 1.810259e+001 1.442815e+000 1.000000e+003
      endloop
   endfacet
   facet normal 0.000000e+000 -1.224647e-016 1.000000e+000
      outer loop
         vertex 8.659914e+000 1.596219e+001 1.000000e+003
         vertex 1.810259e+001 1.442815e+000 1.000000e+003
         vertex 1.807033e+001 1.802449e+000 1.000000e+003
      endloop
   endfacet
   facet normal 0.000000e+000 -1.224647e-016 1.000000e+000
      outer loop
         vertex 1.049815e+001 1.481804e+001 1.000000e+003
         vertex 1.020146e+001 1.502384e+001 1.000000e+003
         vertex 1.735826e+001 5.336321e+000 1.000000e+003
      endloop
   endfacet
   facet normal 0.000000e+000 -1.224647e-016 1.000000e+000
      outer loop
         vertex 1.735826e+001 5.336321e+000 1.000000e+003
         vertex 1.020146e+001 1.502384e+001 1.000000e+003
         vertex 9.900737e+000 1.522370e+001 1.000000e+003
      endloop
   endfacet
   facet normal 0.000000e+000 -1.224647e-016 1.000000e+000
      outer loop
         vertex 1.735826e+001 5.336321e+000 1.000000e+003
         vertex 9.900737e+000 1.522370e+001 1.000000e+003
         vertex 9.596099e+000 1.541754e+001 1.000000e+003
      endloop
   endfacet
   facet normal 0.000000e+000 -1.224647e-016 1.000000e+000
      outer loop
         vertex 1.814564e+001 -7.219783e-001 1.000000e+003
         vertex 1.815641e+001 -3.610605e-001 1.000000e+003
         vertex 8.659914e+000 1.596219e+001 1.000000e+003
      endloop
   endfacet
   facet normal 0.000000e+000 -1.224647e-016 1.000000e+000
      outer loop
         vertex 8.659914e+000 1.596219e+001 1.000000e+003
         vertex 1.815641e+001 -3.610605e-001 1.000000e+003
         vertex 1.816000e+001 -5.898060e-014 1.000000e+003
      endloop
   endfacet
   facet normal 0.000000e+000 -1.224647e-016 1.000000e+000
      outer loop
         vertex 8.659914e+000 1.596219e+001 1.000000e+003
         vertex 1.816000e+001 -5.898060e-014 1.000000e+003
         vertex 1.815641e+001 3.610605e-001 1.000000e+003
      endloop
   endfacet
   facet normal 0.000000e+000 -1.224647e-016 1.000000e+000
      outer loop
         vertex 1.807033e+001 1.802449e+000 1.000000e+003
         vertex 1.803092e+001 2.161370e+000 1.000000e+003
         vertex 8.659914e+000 1.596219e+001 1.000000e+003
      endloop
   endfacet
   facet normal 0.000000e+000 -1.224647e-016 1.000000e+000
      outer loop
         vertex 8.659914e+000 1.596219e+001 1.000000e+003
         vertex 1.803092e+001 2.161370e+000 1.000000e+003
         vertex 1.798438e+001 2.519437e+000 1.000000e+003
      endloop
   endfacet
   facet normal 0.000000e+000 -1.224647e-016 1.000000e+000
      outer loop
         vertex 8.659914e+000 1.596219e+001 1.000000e+003
         vertex 1.798438e+001 2.519437e+000 1.000000e+003
         vertex 1.793074e+001 2.876508e+000 1.000000e+003
      endloop
   endfacet
   facet normal 0.000000e+000 -1.224647e-016 1.000000e+000
      outer loop
         vertex 1.713239e+001 6.022206e+000 1.000000e+003
         vertex 1.296808e+001 1.271276e+001 1.000000e+003
         vertex 1.724873e+001 5.680387e+000 1.000000e+003
      endloop
   endfacet
   facet normal 0.000000e+000 -1.224647e-016 1.000000e+000
      outer loop
         vertex 1.724873e+001 5.680387e+000 1.000000e+003
         vertex 1.296808e+001 1.271276e+001 1.000000e+003
         vertex 1.735826e+001 5.336321e+000 1.000000e+003
      endloop
   endfacet
   facet normal 0.000000e+000 -1.224647e-016 1.000000e+000
      outer loop
         vertex 1.713239e+001 6.022206e+000 1.000000e+003
         vertex 1.700926e+001 6.361645e+000 1.000000e+003
         vertex 1.296808e+001 1.271276e+001 1.000000e+003
      endloop
   endfacet
   facet normal 0.000000e+000 -1.224647e-016 1.000000e+000
      outer loop
         vertex 1.296808e+001 1.271276e+001 1.000000e+003
         vertex 1.700926e+001 6.361645e+000 1.000000e+003
         vertex 1.687942e+001 6.698569e+000 1.000000e+003
      endloop
   endfacet
   facet normal 0.000000e+000 -1.224647e-016 1.000000e+000
      outer loop
         vertex 1.296808e+001 1.271276e+001 1.000000e+003
         vertex 1.687942e+001 6.698569e+000 1.000000e+003
         vertex 1.674290e+001 7.032845e+000 1.000000e+003
      endloop
   endfacet
   facet normal 0.000000e+000 -1.224647e-016 1.000000e+000
      outer loop
         vertex 1.674290e+001 7.032845e+000 1.000000e+003
         vertex 1.659976e+001 7.364340e+000 1.000000e+003
         vertex 1.296808e+001 1.271276e+001 1.000000e+003
      endloop
   endfacet
   facet normal 0.000000e+000 -1.224647e-016 1.000000e+000
      outer loop
         vertex 1.296808e+001 1.271276e+001 1.000000e+003
         vertex 1.659976e+001 7.364340e+000 1.000000e+003
         vertex 1.645006e+001 7.692924e+000 1.000000e+003
      endloop
   endfacet
   facet normal 0.000000e+000 -1.224647e-016 1.000000e+000
      outer loop
         vertex 1.296808e+001 1.271276e+001 1.000000e+003
         vertex 1.645006e+001 7.692924e+000 1.000000e+003
         vertex 1.629386e+001 8.018467e+000 1.000000e+003
      endloop
   endfacet
   facet normal 0.000000e+000 -1.224647e-016 1.000000e+000
      outer loop
         vertex 1.629386e+001 8.018467e+000 1.000000e+003
         vertex 1.613121e+001 8.340838e+000 1.000000e+003
         vertex 1.296808e+001 1.271276e+001 1.000000e+003
      endloop
   endfacet
   facet normal 0.000000e+000 -1.224647e-016 1.000000e+000
      outer loop
         vertex 1.296808e+001 1.271276e+001 1.000000e+003
         vertex 1.613121e+001 8.340838e+000 1.000000e+003
         vertex 1.596219e+001 8.659914e+000 1.000000e+003
      endloop
   endfacet
   facet normal 0.000000e+000 -1.224647e-016 1.000000e+000
      outer loop
         vertex 1.296808e+001 1.271276e+001 1.000000e+003
         vertex 1.596219e+001 8.659914e+000 1.000000e+003
         vertex 1.578686e+001 8.975565e+000 1.000000e+003
      endloop
   endfacet
   facet normal 0.000000e+000 -1.224647e-016 1.000000e+000
      outer loop
         vertex 1.296808e+001 1.271276e+001 1.000000e+003
         vertex 1.271276e+001 1.296808e+001 1.000000e+003
         vertex 1.735826e+001 5.336321e+000 1.000000e+003
      endloop
   endfacet
   facet normal 0.000000e+000 -1.224647e-016 1.000000e+000
      outer loop
         vertex 1.735826e+001 5.336321e+000 1.000000e+003
         vertex 1.271276e+001 1.296808e+001 1.000000e+003
         vertex 1.245242e+001 1.321828e+001 1.000000e+003
      endloop
   endfacet
   facet normal 0.000000e+000 -1.224647e-016 1.000000e+000
      outer loop
         vertex 1.735826e+001 5.336321e+000 1.000000e+003
         vertex 1.245242e+001 1.321828e+001 1.000000e+003
         vertex 1.218715e+001 1.346325e+001 1.000000e+003
      endloop
   endfacet
   facet normal 0.000000e+000 -1.224647e-016 1.000000e+000
      outer loop
         vertex 1.218715e+001 1.346325e+001 1.000000e+003
         vertex 1.191706e+001 1.370289e+001 1.000000e+003
         vertex 1.735826e+001 5.336321e+000 1.000000e+003
      endloop
   endfacet
   facet normal 0.000000e+000 -1.224647e-016 1.000000e+000
      outer loop
         vertex 1.735826e+001 5.336321e+000 1.000000e+003
         vertex 1.191706e+001 1.370289e+001 1.000000e+003
         vertex 1.164226e+001 1.393712e+001 1.000000e+003
      endloop
   endfacet
   facet normal 0.000000e+000 -1.224647e-016 1.000000e+000
      outer loop
         vertex 1.735826e+001 5.336321e+000 1.000000e+003
         vertex 1.164226e+001 1.393712e+001 1.000000e+003
         vertex 1.136286e+001 1.416584e+001 1.000000e+003
      endloop
   endfacet
   facet normal 0.000000e+000 -1.224647e-016 1.000000e+000
      outer loop
         vertex 1.136286e+001 1.416584e+001 1.000000e+003
         vertex 1.107897e+001 1.438896e+001 1.000000e+003
         vertex 1.735826e+001 5.336321e+000 1.000000e+003
      endloop
   endfacet
   facet normal 0.000000e+000 -1.224647e-016 1.000000e+000
      outer loop
         vertex 1.735826e+001 5.336321e+000 1.000000e+003
         vertex 1.107897e+001 1.438896e+001 1.000000e+003
         vertex 1.079069e+001 1.460639e+001 1.000000e+003
      endloop
   endfacet
   facet normal 0.000000e+000 -1.224647e-016 1.000000e+000
      outer loop
         vertex 1.735826e+001 5.336321e+000 1.000000e+003
         vertex 1.079069e+001 1.460639e+001 1.000000e+003
         vertex 1.049815e+001 1.481804e+001 1.000000e+003
      endloop
   endfacet
   facet normal 0.000000e+000 -1.224647e-016 1.000000e+000
      outer loop
         vertex 1.416584e+001 1.136286e+001 1.000000e+003
         vertex 1.541754e+001 9.596099e+000 1.000000e+003
         vertex 1.438896e+001 1.107897e+001 1.000000e+003
      endloop
   endfacet
   facet normal 0.000000e+000 -1.224647e-016 1.000000e+000
      outer loop
         vertex 1.438896e+001 1.107897e+001 1.000000e+003
         vertex 1.541754e+001 9.596099e+000 1.000000e+003
         vertex 1.460639e+001 1.079069e+001 1.000000e+003
      endloop
   endfacet
   facet normal 0.000000e+000 -1.224647e-016 1.000000e+000
      outer loop
         vertex 1.416584e+001 1.136286e+001 1.000000e+003
         vertex 1.393712e+001 1.164226e+001 1.000000e+003
         vertex 1.541754e+001 9.596099e+000 1.000000e+003
      endloop
   endfacet
   facet normal 0.000000e+000 -1.224647e-016 1.000000e+000
      outer loop
         vertex 1.541754e+001 9.596099e+000 1.000000e+003
         vertex 1.393712e+001 1.164226e+001 1.000000e+003
         vertex 1.370289e+001 1.191706e+001 1.000000e+003
      endloop
   endfacet
   facet normal 0.000000e+000 -1.224647e-016 1.000000e+000
      outer loop
         vertex 1.541754e+001 9.596099e+000 1.000000e+003
         vertex 1.370289e+001 1.191706e+001 1.000000e+003
         vertex 1.346325e+001 1.218715e+001 1.000000e+003
      endloop
   endfacet
   facet normal 0.000000e+000 -1.224647e-016 1.000000e+000
      outer loop
         vertex 1.460639e+001 1.079069e+001 1.000000e+003
         vertex 1.541754e+001 9.596099e+000 1.000000e+003
         vertex 1.481804e+001 1.049815e+001 1.000000e+003
      endloop
   endfacet
   facet normal 0.000000e+000 -1.224647e-016 1.000000e+000
      outer loop
         vertex 1.481804e+001 1.049815e+001 1.000000e+003
         vertex 1.541754e+001 9.596099e+000 1.000000e+003
         vertex 1.522370e+001 9.900737e+000 1.000000e+003
      endloop
   endfacet
   facet normal 0.000000e+000 -1.224647e-016 1.000000e+000
      outer loop
         vertex 1.481804e+001 1.049815e+001 1.000000e+003
         vertex 1.522370e+001 9.900737e+000 1.000000e+003
         vertex 1.502384e+001 1.020146e+001 1.000000e+003
      endloop
   endfacet
   facet normal 0.000000e+000 -1.224647e-016 1.000000e+000
      outer loop
         vertex 1.578686e+001 8.975565e+000 1.000000e+003
         vertex 1.560528e+001 9.287668e+000 1.000000e+003
         vertex 1.296808e+001 1.271276e+001 1.000000e+003
      endloop
   endfacet
   facet normal 0.000000e+000 -1.224647e-016 1.000000e+000
      outer loop
         vertex 1.296808e+001 1.271276e+001 1.000000e+003
         vertex 1.560528e+001 9.287668e+000 1.000000e+003
         vertex 1.541754e+001 9.596099e+000 1.000000e+003
      endloop
   endfacet
   facet normal 0.000000e+000 -1.224647e-016 1.000000e+000
      outer loop
         vertex 1.296808e+001 1.271276e+001 1.000000e+003
         vertex 1.541754e+001 9.596099e+000 1.000000e+003
         vertex 1.321828e+001 1.245242e+001 1.000000e+003
      endloop
   endfacet
   facet normal 0.000000e+000 -1.224647e-016 1.000000e+000
      outer loop
         vertex 1.321828e+001 1.245242e+001 1.000000e+003
         vertex 1.541754e+001 9.596099e+000 1.000000e+003
         vertex 1.346325e+001 1.218715e+001 1.000000e+003
      endloop
   endfacet
endsolid