solid solution_inlet
   facet normal 0.000000e+000 1.224647e-016 -1.000000e+000
      outer loop
         vertex 4.080584e+000 -6.009536e+000 8.785414e-017
         vertex 1.020146e+001 -1.502384e+001 -1.016080e-015
         vertex 3.960295e+000 -6.089479e+000 7.806394e-017
      endloop
   endfacet
   facet normal 0.000000e+000 1.224647e-016 -1.000000e+000
      outer loop
         vertex 3.960295e+000 -6.089479e+000 7.806394e-017
         vertex 1.020146e+001 -1.502384e+001 -1.016080e-015
         vertex 9.900737e+000 -1.522370e+001 -1.040555e-015
      endloop
   endfacet
   facet normal 0.000000e+000 1.224647e-016 -1.000000e+000
      outer loop
         vertex 3.960295e+000 -6.089479e+000 7.806394e-017
         vertex 9.900737e+000 -1.522370e+001 -1.040555e-015
         vertex 3.838440e+000 -6.167015e+000 6.856857e-017
      endloop
   endfacet
   facet normal 0.000000e+000 1.224647e-016 -1.000000e+000
      outer loop
         vertex 3.838440e+000 -6.167015e+000 6.856857e-017
         vertex 9.900737e+000 -1.522370e+001 -1.040555e-015
         vertex 9.596099e+000 -1.541754e+001 -1.064294e-015
      endloop
   endfacet
   facet normal 0.000000e+000 1.224647e-016 -1.000000e+000
      outer loop
         vertex 3.838440e+000 -6.167015e+000 6.856857e-017
         vertex 9.596099e+000 -1.541754e+001 -1.064294e-015
         vertex 3.715067e+000 -6.242113e+000 5.937178e-017
      endloop
   endfacet
   facet normal 0.000000e+000 1.224647e-016 -1.000000e+000
      outer loop
         vertex 3.715067e+000 -6.242113e+000 5.937178e-017
         vertex 9.596099e+000 -1.541754e+001 -1.064294e-015
         vertex 9.287668e+000 -1.560528e+001 -1.087286e-015
      endloop
   endfacet
   facet normal 0.000000e+000 1.224647e-016 -1.000000e+000
      outer loop
         vertex 3.715067e+000 -6.242113e+000 5.937178e-017
         vertex 9.287668e+000 -1.560528e+001 -1.087286e-015
         vertex 3.590226e+000 -6.314743e+000 5.047719e-017
      endloop
   endfacet
   facet normal 0.000000e+000 1.224647e-016 -1.000000e+000
      outer loop
         vertex 3.590226e+000 -6.314743e+000 5.047719e-017
         vertex 9.287668e+000 -1.560528e+001 -1.087286e-015
         vertex 8.975565e+000 -1.578686e+001 -1.109522e-015
      endloop
   endfacet
   facet normal 0.000000e+000 1.224647e-016 -1.000000e+000
      outer loop
         vertex 3.590226e+000 -6.314743e+000 5.047719e-017
         vertex 8.975565e+000 -1.578686e+001 -1.109522e-015
         vertex 3.463966e+000 -6.384876e+000 4.188834e-017
      endloop
   endfacet
   facet normal 0.000000e+000 1.224647e-016 -1.000000e+000
      outer loop
         vertex 3.463966e+000 -6.384876e+000 4.188834e-017
         vertex 8.975565e+000 -1.578686e+001 -1.109522e-015
         vertex 8.659914e+000 -1.596219e+001 -1.130994e-015
      endloop
   endfacet
   facet normal 0.000000e+000 1.224647e-016 -1.000000e+000
      outer loop
         vertex 3.463966e+000 -6.384876e+000 4.188834e-017
         vertex 8.659914e+000 -1.596219e+001 -1.130994e-015
         vertex 3.336335e+000 -6.452485e+000 3.360861e-017
      endloop
   endfacet
   facet normal 0.000000e+000 1.224647e-016 -1.000000e+000
      outer loop
         vertex 3.336335e+000 -6.452485e+000 3.360861e-017
         vertex 8.659914e+000 -1.596219e+001 -1.130994e-015
         vertex 8.340838e+000 -1.613121e+001 -1.151694e-015
      endloop
   endfacet
   facet normal 0.000000e+000 1.224647e-016 -1.000000e+000
      outer loop
         vertex 3.336335e+000 -6.452485e+000 3.360861e-017
         vertex 8.340838e+000 -1.613121e+001 -1.151694e-015
         vertex 3.207386e+000 -6.517543e+000 2.564128e-017
      endloop
   endfacet
   facet normal 0.000000e+000 1.224647e-016 -1.000000e+000
      outer loop
         vertex 3.207386e+000 -6.517543e+000 2.564128e-017
         vertex 8.340838e+000 -1.613121e+001 -1.151694e-015
         vertex 8.018467e+000 -1.629386e+001 -1.171612e-015
      endloop
   endfacet
   facet normal 0.000000e+000 1.224647e-016 -1.000000e+000
      outer loop
         vertex 3.207386e+000 -6.517543e+000 2.564128e-017
         vertex 8.018467e+000 -1.629386e+001 -1.171612e-015
         vertex 3.077169e+000 -6.580025e+000 1.798950e-017
      endloop
   endfacet
   facet normal 0.000000e+000 1.224647e-016 -1.000000e+000
      outer loop
         vertex 3.077169e+000 -6.580025e+000 1.798950e-017
         vertex 8.018467e+000 -1.629386e+001 -1.171612e-015
         vertex 7.692924e+000 -1.645006e+001 -1.190741e-015
      endloop
   endfacet
   facet normal 0.000000e+000 1.224647e-016 -1.000000e+000
      outer loop
         vertex 3.077169e+000 -6.580025e+000 1.798950e-017
         vertex 7.692924e+000 -1.645006e+001 -1.190741e-015
         vertex 2.945736e+000 -6.639905e+000 1.065629e-017
      endloop
   endfacet
   facet normal 0.000000e+000 1.224647e-016 -1.000000e+000
      outer loop
         vertex 2.945736e+000 -6.639905e+000 1.065629e-017
         vertex 7.692924e+000 -1.645006e+001 -1.190741e-015
         vertex 7.364340e+000 -1.659976e+001 -1.209074e-015
      endloop
   endfacet
   facet normal 0.000000e+000 1.224647e-016 -1.000000e+000
      outer loop
         vertex 2.945736e+000 -6.639905e+000 1.065629e-017
         vertex 7.364340e+000 -1.659976e+001 -1.209074e-015
         vertex 2.813138e+000 -6.697160e+000 3.644552e-018
      endloop
   endfacet
   facet normal 0.000000e+000 1.224647e-016 -1.000000e+000
      outer loop
         vertex 2.813138e+000 -6.697160e+000 3.644552e-018
         vertex 7.364340e+000 -1.659976e+001 -1.209074e-015
         vertex 7.032845e+000 -1.674290e+001 -1.226604e-015
      endloop
   endfacet
   facet normal 0.000000e+000 1.224647e-016 -1.000000e+000
      outer loop
         vertex 2.813138e+000 -6.697160e+000 3.644552e-018
         vertex 7.032845e+000 -1.674290e+001 -1.226604e-015
         vertex 2.679428e+000 -6.751767e+000 -3.042938e-018
      endloop
   endfacet
   facet normal 0.000000e+000 1.224647e-016 -1.000000e+000
      outer loop
         vertex 2.679428e+000 -6.751767e+000 -3.042938e-018
         vertex 7.032845e+000 -1.674290e+001 -1.226604e-015
         vertex 6.698569e+000 -1.687942e+001 -1.243322e-015
      endloop
   endfacet
   facet normal 0.000000e+000 1.224647e-016 -1.000000e+000
      outer loop
         vertex 2.679428e+000 -6.751767e+000 -3.042938e-018
         vertex 6.698569e+000 -1.687942e+001 -1.243322e-015
         vertex 2.544658e+000 -6.803706e+000 -9.403541e-018
      endloop
   endfacet
   facet normal 0.000000e+000 1.224647e-016 -1.000000e+000
      outer loop
         vertex 2.544658e+000 -6.803706e+000 -9.403541e-018
         vertex 6.698569e+000 -1.687942e+001 -1.243322e-015
         vertex 6.361645e+000 -1.700926e+001 -1.259224e-015
      endloop
   endfacet
   facet normal 0.000000e+000 1.224647e-016 -1.000000e+000
      outer loop
         vertex 2.544658e+000 -6.803706e+000 -9.403541e-018
         vertex 6.361645e+000 -1.700926e+001 -1.259224e-015
         vertex 2.408882e+000 -6.852954e+000 -1.543474e-017
      endloop
   endfacet
   facet normal 0.000000e+000 1.224647e-016 -1.000000e+000
      outer loop
         vertex 2.408882e+000 -6.852954e+000 -1.543474e-017
         vertex 6.361645e+000 -1.700926e+001 -1.259224e-015
         vertex 6.022206e+000 -1.713239e+001 -1.274302e-015
      endloop
   endfacet
   facet normal 0.000000e+000 1.224647e-016 -1.000000e+000
      outer loop
         vertex 2.408882e+000 -6.852954e+000 -1.543474e-017
         vertex 6.022206e+000 -1.713239e+001 -1.274302e-015
         vertex 2.272154e+000 -6.899493e+000 -2.113415e-017
      endloop
   endfacet
   facet normal 0.000000e+000 1.224647e-016 -1.000000e+000
      outer loop
         vertex 2.272154e+000 -6.899493e+000 -2.113415e-017
         vertex 6.022206e+000 -1.713239e+001 -1.274302e-015
         vertex 5.680387e+000 -1.724873e+001 -1.288551e-015
      endloop
   endfacet
   facet normal 0.000000e+000 1.224647e-016 -1.000000e+000
      outer loop
         vertex 2.272154e+000 -6.899493e+000 -2.113415e-017
         vertex 5.680387e+000 -1.724873e+001 -1.288551e-015
         vertex 2.134528e+000 -6.943305e+000 -2.649952e-017
      endloop
   endfacet
   facet normal 0.000000e+000 1.224647e-016 -1.000000e+000
      outer loop
         vertex 2.134528e+000 -6.943305e+000 -2.649952e-017
         vertex 5.680387e+000 -1.724873e+001 -1.288551e-015
         vertex 5.336321e+000 -1.735826e+001 -1.301964e-015
      endloop
   endfacet
   facet normal 0.000000e+000 1.224647e-016 -1.000000e+000
      outer loop
         vertex 2.134528e+000 -6.943305e+000 -2.649952e-017
         vertex 5.336321e+000 -1.735826e+001 -1.301964e-015
         vertex 1.996058e+000 -6.984372e+000 -3.152873e-017
      endloop
   endfacet
   facet normal 0.000000e+000 1.224647e-016 -1.000000e+000
      outer loop
         vertex 1.996058e+000 -6.984372e+000 -3.152873e-017
         vertex 5.336321e+000 -1.735826e+001 -1.301964e-015
         vertex 4.990146e+000 -1.746093e+001 -1.314537e-015
      endloop
   endfacet
   facet normal 0.000000e+000 1.224647e-016 -1.000000e+000
      outer loop
         vertex 1.996058e+000 -6.984372e+000 -3.152873e-017
         vertex 4.990146e+000 -1.746093e+001 -1.314537e-015
         vertex 1.856799e+000 -7.022677e+000 -3.621979e-017
      endloop
   endfacet
   facet normal 0.000000e+000 1.224647e-016 -1.000000e+000
      outer loop
         vertex 1.856799e+000 -7.022677e+000 -3.621979e-017
         vertex 4.990146e+000 -1.746093e+001 -1.314537e-015
         vertex 4.641998e+000 -1.755669e+001 -1.326265e-015
      endloop
   endfacet
   facet normal 0.000000e+000 1.224647e-016 -1.000000e+000
      outer loop
         vertex 1.856799e+000 -7.022677e+000 -3.621979e-017
         vertex 4.641998e+000 -1.755669e+001 -1.326265e-015
         vertex 1.716806e+000 -7.058206e+000 -4.057084e-017
      endloop
   endfacet
   facet normal 0.000000e+000 1.224647e-016 -1.000000e+000
      outer loop
         vertex 1.716806e+000 -7.058206e+000 -4.057084e-017
         vertex 4.641998e+000 -1.755669e+001 -1.326265e-015
         vertex 4.292015e+000 -1.764552e+001 -1.337142e-015
      endloop
   endfacet
   facet normal 0.000000e+000 1.224647e-016 -1.000000e+000
      outer loop
         vertex 1.716806e+000 -7.058206e+000 -4.057084e-017
         vertex 4.292015e+000 -1.764552e+001 -1.337142e-015
         vertex 1.576134e+000 -7.090945e+000 -4.458017e-017
      endloop
   endfacet
   facet normal 0.000000e+000 1.224647e-016 -1.000000e+000
      outer loop
         vertex 1.576134e+000 -7.090945e+000 -4.458017e-017
         vertex 4.292015e+000 -1.764552e+001 -1.337142e-015
         vertex 3.940335e+000 -1.772736e+001 -1.347166e-015
      endloop
   endfacet
   facet normal 0.000000e+000 1.224647e-016 -1.000000e+000
      outer loop
         vertex 1.576134e+000 -7.090945e+000 -4.458017e-017
         vertex 3.940335e+000 -1.772736e+001 -1.347166e-015
         vertex 1.434839e+000 -7.120880e+000 -4.824620e-017
      endloop
   endfacet
   facet normal 0.000000e+000 1.224647e-016 -1.000000e+000
      outer loop
         vertex 1.434839e+000 -7.120880e+000 -4.824620e-017
         vertex 3.940335e+000 -1.772736e+001 -1.347166e-015
         vertex 3.587098e+000 -1.780220e+001 -1.356331e-015
      endloop
   endfacet
   facet normal 0.000000e+000 1.224647e-016 -1.000000e+000
      outer loop
         vertex 1.434839e+000 -7.120880e+000 -4.824620e-017
         vertex 3.587098e+000 -1.780220e+001 -1.356331e-015
         vertex 1.292977e+000 -7.148000e+000 -5.156746e-017
      endloop
   endfacet
   facet normal 0.000000e+000 1.224647e-016 -1.000000e+000
      outer loop
         vertex 1.292977e+000 -7.148000e+000 -5.156746e-017
         vertex 3.587098e+000 -1.780220e+001 -1.356331e-015
         vertex 3.232442e+000 -1.787000e+001 -1.364634e-015
      endloop
   endfacet
   facet normal 0.000000e+000 1.224647e-016 -1.000000e+000
      outer loop
         vertex 1.292977e+000 -7.148000e+000 -5.156746e-017
         vertex 3.232442e+000 -1.787000e+001 -1.364634e-015
         vertex 1.150603e+000 -7.172295e+000 -5.454264e-017
      endloop
   endfacet
   facet normal 0.000000e+000 1.224647e-016 -1.000000e+000
      outer loop
         vertex 1.150603e+000 -7.172295e+000 -5.454264e-017
         vertex 3.232442e+000 -1.787000e+001 -1.364634e-015
         vertex 2.876508e+000 -1.793074e+001 -1.372072e-015
      endloop
   endfacet
   facet normal 0.000000e+000 1.224647e-016 -1.000000e+000
      outer loop
         vertex 1.150603e+000 -7.172295e+000 -5.454264e-017
         vertex 2.876508e+000 -1.793074e+001 -1.372072e-015
         vertex 1.007775e+000 -7.193753e+000 -5.717058e-017
      endloop
   endfacet
   facet normal 0.000000e+000 1.224647e-016 -1.000000e+000
      outer loop
         vertex 1.007775e+000 -7.193753e+000 -5.717058e-017
         vertex 2.876508e+000 -1.793074e+001 -1.372072e-015
         vertex 2.519437e+000 -1.798438e+001 -1.378642e-015
      endloop
   endfacet
   facet normal 0.000000e+000 1.224647e-016 -1.000000e+000
      outer loop
         vertex 1.007775e+000 -7.193753e+000 -5.717058e-017
         vertex 2.519437e+000 -1.798438e+001 -1.378642e-015
         vertex 8.645481e-001 -7.212368e+000 -5.945024e-017
      endloop
   endfacet
   facet normal 0.000000e+000 1.224647e-016 -1.000000e+000
      outer loop
         vertex 8.645481e-001 -7.212368e+000 -5.945024e-017
         vertex 2.519437e+000 -1.798438e+001 -1.378642e-015
         vertex 2.161370e+000 -1.803092e+001 -1.384341e-015
      endloop
   endfacet
   facet normal 0.000000e+000 1.224647e-016 -1.000000e+000
      outer loop
         vertex 8.645481e-001 -7.212368e+000 -5.945024e-017
         vertex 2.161370e+000 -1.803092e+001 -1.384341e-015
         vertex 7.209796e-001 -7.228131e+000 -6.138070e-017
      endloop
   endfacet
   facet normal 0.000000e+000 1.224647e-016 -1.000000e+000
      outer loop
         vertex 7.209796e-001 -7.228131e+000 -6.138070e-017
         vertex 2.161370e+000 -1.803092e+001 -1.384341e-015
         vertex 1.802449e+000 -1.807033e+001 -1.389167e-015
      endloop
   endfacet
   facet normal 0.000000e+000 1.224647e-016 -1.000000e+000
      outer loop
         vertex 7.209796e-001 -7.228131e+000 -6.138070e-017
         vertex 1.802449e+000 -1.807033e+001 -1.389167e-015
         vertex 5.771260e-001 -7.241037e+000 -6.296122e-017
      endloop
   endfacet
   facet normal 0.000000e+000 1.224647e-016 -1.000000e+000
      outer loop
         vertex 5.771260e-001 -7.241037e+000 -6.296122e-017
         vertex 1.802449e+000 -1.807033e+001 -1.389167e-015
         vertex 1.442815e+000 -1.810259e+001 -1.393118e-015
      endloop
   endfacet
   facet normal 0.000000e+000 1.224647e-016 -1.000000e+000
      outer loop
         vertex 5.771260e-001 -7.241037e+000 -6.296122e-017
         vertex 1.442815e+000 -1.810259e+001 -1.393118e-015
         vertex 4.330443e-001 -7.251081e+000 -6.419115e-017
      endloop
   endfacet
   facet normal 0.000000e+000 1.224647e-016 -1.000000e+000
      outer loop
         vertex 4.330443e-001 -7.251081e+000 -6.419115e-017
         vertex 1.442815e+000 -1.810259e+001 -1.393118e-015
         vertex 1.082611e+000 -1.812770e+001 -1.396193e-015
      endloop
   endfacet
   facet normal 0.000000e+000 1.224647e-016 -1.000000e+000
      outer loop
         vertex 4.330443e-001 -7.251081e+000 -6.419115e-017
         vertex 1.082611e+000 -1.812770e+001 -1.396193e-015
         vertex 2.887913e-001 -7.258257e+000 -6.507002e-017
      endloop
   endfacet
   facet normal 0.000000e+000 1.224647e-016 -1.000000e+000
      outer loop
         vertex 2.887913e-001 -7.258257e+000 -6.507002e-017
         vertex 1.082611e+000 -1.812770e+001 -1.396193e-015
         vertex 7.219783e-001 -1.814564e+001 -1.398390e-015
      endloop
   endfacet
   facet normal 0.000000e+000 1.224647e-016 -1.000000e+000
      outer loop
         vertex 2.887913e-001 -7.258257e+000 -6.507002e-017
         vertex 7.219783e-001 -1.814564e+001 -1.398390e-015
         vertex 1.444242e-001 -7.262564e+000 -6.559749e-017
      endloop
   endfacet
   facet normal 0.000000e+000 1.224647e-016 -1.000000e+000
      outer loop
         vertex 1.444242e-001 -7.262564e+000 -6.559749e-017
         vertex 7.219783e-001 -1.814564e+001 -1.398390e-015
         vertex 3.610605e-001 -1.815641e+001 -1.399709e-015
      endloop
   endfacet
   facet normal 0.000000e+000 1.224647e-016 -1.000000e+000
      outer loop
         vertex 1.444242e-001 -7.262564e+000 -6.559749e-017
         vertex 3.610605e-001 -1.815641e+001 -1.399709e-015
         vertex 0.000000e+000 -7.264000e+000 -6.577333e-017
      endloop
   endfacet
   facet normal 0.000000e+000 1.224647e-016 -1.000000e+000
      outer loop
         vertex 0.000000e+000 -7.264000e+000 -6.577333e-017
         vertex 3.610605e-001 -1.815641e+001 -1.399709e-015
         vertex 0.000000e+000 -1.816000e+001 -1.400148e-015
      endloop
   endfacet
   facet normal 0.000000e+000 1.224647e-016 -1.000000e+000
      outer loop
         vertex -5.072424e-014 7.264000e+000 1.713394e-015
         vertex -1.268106e-013 1.816000e+001 3.047769e-015
         vertex 1.444242e-001 7.262564e+000 1.713218e-015
      endloop
   endfacet
   facet normal 0.000000e+000 1.224647e-016 -1.000000e+000
      outer loop
         vertex 1.444242e-001 7.262564e+000 1.713218e-015
         vertex -1.268106e-013 1.816000e+001 3.047769e-015
         vertex 3.610605e-001 1.815641e+001 3.047329e-015
      endloop
   endfacet
   facet normal 0.000000e+000 1.224647e-016 -1.000000e+000
      outer loop
         vertex 1.444242e-001 7.262564e+000 1.713218e-015
         vertex 3.610605e-001 1.815641e+001 3.047329e-015
         vertex 2.887913e-001 7.258257e+000 1.712690e-015
      endloop
   endfacet
   facet normal 0.000000e+000 1.224647e-016 -1.000000e+000
      outer loop
         vertex 2.887913e-001 7.258257e+000 1.712690e-015
         vertex 3.610605e-001 1.815641e+001 3.047329e-015
         vertex 7.219783e-001 1.814564e+001 3.046011e-015
      endloop
   endfacet
   facet normal 0.000000e+000 1.224647e-016 -1.000000e+000
      outer loop
         vertex 2.887913e-001 7.258257e+000 1.712690e-015
         vertex 7.219783e-001 1.814564e+001 3.046011e-015
         vertex 4.330443e-001 7.251081e+000 1.711811e-015
      endloop
   endfacet
   facet normal 0.000000e+000 1.224647e-016 -1.000000e+000
      outer loop
         vertex 4.330443e-001 7.251081e+000 1.711811e-015
         vertex 7.219783e-001 1.814564e+001 3.046011e-015
         vertex 1.082611e+000 1.812770e+001 3.043813e-015
      endloop
   endfacet
   facet normal 0.000000e+000 1.224647e-016 -1.000000e+000
      outer loop
         vertex 4.330443e-001 7.251081e+000 1.711811e-015
         vertex 1.082611e+000 1.812770e+001 3.043813e-015
         vertex 5.771260e-001 7.241037e+000 1.710581e-015
      endloop
   endfacet
   facet normal 0.000000e+000 1.224647e-016 -1.000000e+000
      outer loop
         vertex 5.771260e-001 7.241037e+000 1.710581e-015
         vertex 1.082611e+000 1.812770e+001 3.043813e-015
         vertex 1.442815e+000 1.810259e+001 3.040738e-015
      endloop
   endfacet
   facet normal 0.000000e+000 1.224647e-016 -1.000000e+000
      outer loop
         vertex 5.771260e-001 7.241037e+000 1.710581e-015
         vertex 1.442815e+000 1.810259e+001 3.040738e-015
         vertex 7.209796e-001 7.228131e+000 1.709001e-015
      endloop
   endfacet
   facet normal 0.000000e+000 1.224647e-016 -1.000000e+000
      outer loop
         vertex 7.209796e-001 7.228131e+000 1.709001e-015
         vertex 1.442815e+000 1.810259e+001 3.040738e-015
         vertex 1.802449e+000 1.807033e+001 3.036787e-015
      endloop
   endfacet
   facet normal 0.000000e+000 1.224647e-016 -1.000000e+000
      outer loop
         vertex 7.209796e-001 7.228131e+000 1.709001e-015
         vertex 1.802449e+000 1.807033e+001 3.036787e-015
         vertex 8.645481e-001 7.212368e+000 1.707070e-015
      endloop
   endfacet
   facet normal 0.000000e+000 1.224647e-016 -1.000000e+000
      outer loop
         vertex 8.645481e-001 7.212368e+000 1.707070e-015
         vertex 1.802449e+000 1.807033e+001 3.036787e-015
         vertex 2.161370e+000 1.803092e+001 3.031961e-015
      endloop
   endfacet
   facet normal 0.000000e+000 1.224647e-016 -1.000000e+000
      outer loop
         vertex 8.645481e-001 7.212368e+000 1.707070e-015
         vertex 2.161370e+000 1.803092e+001 3.031961e-015
         vertex 1.007775e+000 7.193753e+000 1.704791e-015
      endloop
   endfacet
   facet normal 0.000000e+000 1.224647e-016 -1.000000e+000
      outer loop
         vertex 1.007775e+000 7.193753e+000 1.704791e-015
         vertex 2.161370e+000 1.803092e+001 3.031961e-015
         vertex 2.519437e+000 1.798438e+001 3.026262e-015
      endloop
   endfacet
   facet normal 0.000000e+000 1.224647e-016 -1.000000e+000
      outer loop
         vertex 1.007775e+000 7.193753e+000 1.704791e-015
         vertex 2.519437e+000 1.798438e+001 3.026262e-015
         vertex 1.150603e+000 7.172295e+000 1.702163e-015
      endloop
   endfacet
   facet normal 0.000000e+000 1.224647e-016 -1.000000e+000
      outer loop
         vertex 1.150603e+000 7.172295e+000 1.702163e-015
         vertex 2.519437e+000 1.798438e+001 3.026262e-015
         vertex 2.876508e+000 1.793074e+001 3.019692e-015
      endloop
   endfacet
   facet normal 0.000000e+000 1.224647e-016 -1.000000e+000
      outer loop
         vertex 1.150603e+000 7.172295e+000 1.702163e-015
         vertex 2.876508e+000 1.793074e+001 3.019692e-015
         vertex 1.292977e+000 7.148000e+000 1.699188e-015
      endloop
   endfacet
   facet normal 0.000000e+000 1.224647e-016 -1.000000e+000
      outer loop
         vertex 1.292977e+000 7.148000e+000 1.699188e-015
         vertex 2.876508e+000 1.793074e+001 3.019692e-015
         vertex 3.232442e+000 1.787000e+001 3.012254e-015
      endloop
   endfacet
   facet normal 0.000000e+000 1.224647e-016 -1.000000e+000
      outer loop
         vertex 1.292977e+000 7.148000e+000 1.699188e-015
         vertex 3.232442e+000 1.787000e+001 3.012254e-015
         vertex 1.434839e+000 7.120880e+000 1.695866e-015
      endloop
   endfacet
   facet normal 0.000000e+000 1.224647e-016 -1.000000e+000
      outer loop
         vertex 1.434839e+000 7.120880e+000 1.695866e-015
         vertex 3.232442e+000 1.787000e+001 3.012254e-015
         vertex 3.587098e+000 1.780220e+001 3.003951e-015
      endloop
   endfacet
   facet normal 0.000000e+000 1.224647e-016 -1.000000e+000
      outer loop
         vertex 1.434839e+000 7.120880e+000 1.695866e-015
         vertex 3.587098e+000 1.780220e+001 3.003951e-015
         vertex 1.576134e+000 7.090945e+000 1.692200e-015
      endloop
   endfacet
   facet normal 0.000000e+000 1.224647e-016 -1.000000e+000
      outer loop
         vertex 1.576134e+000 7.090945e+000 1.692200e-015
         vertex 3.587098e+000 1.780220e+001 3.003951e-015
         vertex 3.940335e+000 1.772736e+001 2.994786e-015
      endloop
   endfacet
   facet normal 0.000000e+000 1.224647e-016 -1.000000e+000
      outer loop
         vertex 1.576134e+000 7.090945e+000 1.692200e-015
         vertex 3.940335e+000 1.772736e+001 2.994786e-015
         vertex 1.716806e+000 7.058206e+000 1.688191e-015
      endloop
   endfacet
   facet normal 0.000000e+000 1.224647e-016 -1.000000e+000
      outer loop
         vertex 1.716806e+000 7.058206e+000 1.688191e-015
         vertex 3.940335e+000 1.772736e+001 2.994786e-015
         vertex 4.292015e+000 1.764552e+001 2.984763e-015
      endloop
   endfacet
   facet normal 0.000000e+000 1.224647e-016 -1.000000e+000
      outer loop
         vertex 1.716806e+000 7.058206e+000 1.688191e-015
         vertex 4.292015e+000 1.764552e+001 2.984763e-015
         vertex 1.856799e+000 7.022677e+000 1.683840e-015
      endloop
   endfacet
   facet normal 0.000000e+000 1.224647e-016 -1.000000e+000
      outer loop
         vertex 1.856799e+000 7.022677e+000 1.683840e-015
         vertex 4.292015e+000 1.764552e+001 2.984763e-015
         vertex 4.641998e+000 1.755669e+001 2.973885e-015
      endloop
   endfacet
   facet normal 0.000000e+000 1.224647e-016 -1.000000e+000
      outer loop
         vertex 1.856799e+000 7.022677e+000 1.683840e-015
         vertex 4.641998e+000 1.755669e+001 2.973885e-015
         vertex 1.996058e+000 6.984372e+000 1.679149e-015
      endloop
   endfacet
   facet normal 0.000000e+000 1.224647e-016 -1.000000e+000
      outer loop
         vertex 1.996058e+000 6.984372e+000 1.679149e-015
         vertex 4.641998e+000 1.755669e+001 2.973885e-015
         vertex 4.990146e+000 1.746093e+001 2.962157e-015
      endloop
   endfacet
   facet normal 0.000000e+000 1.224647e-016 -1.000000e+000
      outer loop
         vertex 1.996058e+000 6.984372e+000 1.679149e-015
         vertex 4.990146e+000 1.746093e+001 2.962157e-015
         vertex 2.134528e+000 6.943305e+000 1.674120e-015
      endloop
   endfacet
   facet normal 0.000000e+000 1.224647e-016 -1.000000e+000
      outer loop
         vertex 2.134528e+000 6.943305e+000 1.674120e-015
         vertex 4.990146e+000 1.746093e+001 2.962157e-015
         vertex 5.336321e+000 1.735826e+001 2.949584e-015
      endloop
   endfacet
   facet normal 0.000000e+000 1.224647e-016 -1.000000e+000
      outer loop
         vertex 2.134528e+000 6.943305e+000 1.674120e-015
         vertex 5.336321e+000 1.735826e+001 2.949584e-015
         vertex 2.272154e+000 6.899493e+000 1.668754e-015
      endloop
   endfacet
   facet normal 0.000000e+000 1.224647e-016 -1.000000e+000
      outer loop
         vertex 2.272154e+000 6.899493e+000 1.668754e-015
         vertex 5.336321e+000 1.735826e+001 2.949584e-015
         vertex 5.680387e+000 1.724873e+001 2.936171e-015
      endloop
   endfacet
   facet normal 0.000000e+000 1.224647e-016 -1.000000e+000
      outer loop
         vertex 2.272154e+000 6.899493e+000 1.668754e-015
         vertex 5.680387e+000 1.724873e+001 2.936171e-015
         vertex 2.408882e+000 6.852954e+000 1.663055e-015
      endloop
   endfacet
   facet normal 0.000000e+000 1.224647e-016 -1.000000e+000
      outer loop
         vertex 2.408882e+000 6.852954e+000 1.663055e-015
         vertex 5.680387e+000 1.724873e+001 2.936171e-015
         vertex 6.022206e+000 1.713239e+001 2.921922e-015
      endloop
   endfacet
   facet normal 0.000000e+000 1.224647e-016 -1.000000e+000
      outer loop
         vertex 2.408882e+000 6.852954e+000 1.663055e-015
         vertex 6.022206e+000 1.713239e+001 2.921922e-015
         vertex 2.544658e+000 6.803706e+000 1.657024e-015
      endloop
   endfacet
   facet normal 0.000000e+000 1.224647e-016 -1.000000e+000
      outer loop
         vertex 2.544658e+000 6.803706e+000 1.657024e-015
         vertex 6.022206e+000 1.713239e+001 2.921922e-015
         vertex 6.361645e+000 1.700926e+001 2.906844e-015
      endloop
   endfacet
   facet normal 0.000000e+000 1.224647e-016 -1.000000e+000
      outer loop
         vertex 2.544658e+000 6.803706e+000 1.657024e-015
         vertex 6.361645e+000 1.700926e+001 2.906844e-015
         vertex 2.679428e+000 6.751767e+000 1.650663e-015
      endloop
   endfacet
   facet normal 0.000000e+000 1.224647e-016 -1.000000e+000
      outer loop
         vertex 2.679428e+000 6.751767e+000 1.650663e-015
         vertex 6.361645e+000 1.700926e+001 2.906844e-015
         vertex 6.698569e+000 1.687942e+001 2.890943e-015
      endloop
   endfacet
   facet normal 0.000000e+000 1.224647e-016 -1.000000e+000
      outer loop
         vertex 2.679428e+000 6.751767e+000 1.650663e-015
         vertex 6.698569e+000 1.687942e+001 2.890943e-015
         vertex 2.813138e+000 6.697160e+000 1.643976e-015
      endloop
   endfacet
   facet normal 0.000000e+000 1.224647e-016 -1.000000e+000
      outer loop
         vertex 2.813138e+000 6.697160e+000 1.643976e-015
         vertex 6.698569e+000 1.687942e+001 2.890943e-015
         vertex 7.032845e+000 1.674290e+001 2.874224e-015
      endloop
   endfacet
   facet normal 0.000000e+000 1.224647e-016 -1.000000e+000
      outer loop
         vertex 2.813138e+000 6.697160e+000 1.643976e-015
         vertex 7.032845e+000 1.674290e+001 2.874224e-015
         vertex 2.945736e+000 6.639905e+000 1.636964e-015
      endloop
   endfacet
   facet normal 0.000000e+000 1.224647e-016 -1.000000e+000
      outer loop
         vertex 2.945736e+000 6.639905e+000 1.636964e-015
         vertex 7.032845e+000 1.674290e+001 2.874224e-015
         vertex 7.364340e+000 1.659976e+001 2.856695e-015
      endloop
   endfacet
   facet normal 0.000000e+000 1.224647e-016 -1.000000e+000
      outer loop
         vertex 2.945736e+000 6.639905e+000 1.636964e-015
         vertex 7.364340e+000 1.659976e+001 2.856695e-015
         vertex 3.077169e+000 6.580025e+000 1.629631e-015
      endloop
   endfacet
   facet normal 0.000000e+000 1.224647e-016 -1.000000e+000
      outer loop
         vertex 3.077169e+000 6.580025e+000 1.629631e-015
         vertex 7.364340e+000 1.659976e+001 2.856695e-015
         vertex 7.692924e+000 1.645006e+001 2.838362e-015
      endloop
   endfacet
   facet normal 0.000000e+000 1.224647e-016 -1.000000e+000
      outer loop
         vertex 3.077169e+000 6.580025e+000 1.629631e-015
         vertex 7.692924e+000 1.645006e+001 2.838362e-015
         vertex 3.207386e+000 6.517543e+000 1.621979e-015
      endloop
   endfacet
   facet normal 0.000000e+000 1.224647e-016 -1.000000e+000
      outer loop
         vertex 3.207386e+000 6.517543e+000 1.621979e-015
         vertex 7.692924e+000 1.645006e+001 2.838362e-015
         vertex 8.018467e+000 1.629386e+001 2.819232e-015
      endloop
   endfacet
   facet normal 0.000000e+000 1.224647e-016 -1.000000e+000
      outer loop
         vertex 3.207386e+000 6.517543e+000 1.621979e-015
         vertex 8.018467e+000 1.629386e+001 2.819232e-015
         vertex 3.336335e+000 6.452485e+000 1.614012e-015
      endloop
   endfacet
   facet normal 0.000000e+000 1.224647e-016 -1.000000e+000
      outer loop
         vertex 3.336335e+000 6.452485e+000 1.614012e-015
         vertex 8.018467e+000 1.629386e+001 2.819232e-015
         vertex 8.340838e+000 1.613121e+001 2.799314e-015
      endloop
   endfacet
   facet normal 0.000000e+000 1.224647e-016 -1.000000e+000
      outer loop
         vertex 3.336335e+000 6.452485e+000 1.614012e-015
         vertex 8.340838e+000 1.613121e+001 2.799314e-015
         vertex 3.463966e+000 6.384876e+000 1.605732e-015
      endloop
   endfacet
   facet normal 0.000000e+000 1.224647e-016 -1.000000e+000
      outer loop
         vertex 3.463966e+000 6.384876e+000 1.605732e-015
         vertex 8.340838e+000 1.613121e+001 2.799314e-015
         vertex 8.659914e+000 1.596219e+001 2.778615e-015
      endloop
   endfacet
   facet normal 0.000000e+000 1.224647e-016 -1.000000e+000
      outer loop
         vertex 3.463966e+000 6.384876e+000 1.605732e-015
         vertex 8.659914e+000 1.596219e+001 2.778615e-015
         vertex 3.590226e+000 6.314743e+000 1.597143e-015
      endloop
   endfacet
   facet normal 0.000000e+000 1.224647e-016 -1.000000e+000
      outer loop
         vertex 3.590226e+000 6.314743e+000 1.597143e-015
         vertex 8.659914e+000 1.596219e+001 2.778615e-015
         vertex 8.975565e+000 1.578686e+001 2.757142e-015
      endloop
   endfacet
   facet normal 0.000000e+000 1.224647e-016 -1.000000e+000
      outer loop
         vertex 3.590226e+000 6.314743e+000 1.597143e-015
         vertex 8.975565e+000 1.578686e+001 2.757142e-015
         vertex 3.715067e+000 6.242113e+000 1.588248e-015
      endloop
   endfacet
   facet normal 0.000000e+000 1.224647e-016 -1.000000e+000
      outer loop
         vertex 3.715067e+000 6.242113e+000 1.588248e-015
         vertex 8.975565e+000 1.578686e+001 2.757142e-015
         vertex 9.287668e+000 1.560528e+001 2.734906e-015
      endloop
   endfacet
   facet normal 0.000000e+000 1.224647e-016 -1.000000e+000
      outer loop
         vertex 3.715067e+000 6.242113e+000 1.588248e-015
         vertex 9.287668e+000 1.560528e+001 2.734906e-015
         vertex 3.838440e+000 6.167015e+000 1.579052e-015
      endloop
   endfacet
   facet normal 0.000000e+000 1.224647e-016 -1.000000e+000
      outer loop
         vertex 3.838440e+000 6.167015e+000 1.579052e-015
         vertex 9.287668e+000 1.560528e+001 2.734906e-015
         vertex 9.596099e+000 1.541754e+001 2.711914e-015
      endloop
   endfacet
   facet normal 0.000000e+000 1.224647e-016 -1.000000e+000
      outer loop
         vertex 3.838440e+000 6.167015e+000 1.579052e-015
         vertex 9.596099e+000 1.541754e+001 2.711914e-015
         vertex 3.960295e+000 6.089479e+000 1.569556e-015
      endloop
   endfacet
   facet normal 0.000000e+000 1.224647e-016 -1.000000e+000
      outer loop
         vertex 3.960295e+000 6.089479e+000 1.569556e-015
         vertex 9.596099e+000 1.541754e+001 2.711914e-015
         vertex 9.900737e+000 1.522370e+001 2.688176e-015
      endloop
   endfacet
   facet normal 0.000000e+000 1.224647e-016 -1.000000e+000
      outer loop
         vertex 3.960295e+000 6.089479e+000 1.569556e-015
         vertex 9.900737e+000 1.522370e+001 2.688176e-015
         vertex 4.080584e+000 6.009536e+000 1.559766e-015
      endloop
   endfacet
   facet normal 0.000000e+000 1.224647e-016 -1.000000e+000
      outer loop
         vertex 4.080584e+000 6.009536e+000 1.559766e-015
         vertex 9.900737e+000 1.522370e+001 2.688176e-015
         vertex 1.020146e+001 1.502384e+001 2.663700e-015
      endloop
   endfacet
   facet normal 0.000000e+000 1.224647e-016 -1.000000e+000
      outer loop
         vertex 4.080584e+000 6.009536e+000 1.559766e-015
         vertex 1.020146e+001 1.502384e+001 2.663700e-015
         vertex 4.199260e+000 5.927217e+000 1.549685e-015
      endloop
   endfacet
   facet normal 0.000000e+000 1.224647e-016 -1.000000e+000
      outer loop
         vertex 4.199260e+000 5.927217e+000 1.549685e-015
         vertex 1.020146e+001 1.502384e+001 2.663700e-015
         vertex 1.049815e+001 1.481804e+001 2.638497e-015
      endloop
   endfacet
   facet normal 0.000000e+000 1.224647e-016 -1.000000e+000
      outer loop
         vertex 4.199260e+000 5.927217e+000 1.549685e-015
         vertex 1.049815e+001 1.481804e+001 2.638497e-015
         vertex 4.316277e+000 5.842556e+000 1.539317e-015
      endloop
   endfacet
   facet normal 0.000000e+000 1.224647e-016 -1.000000e+000
      outer loop
         vertex 4.316277e+000 5.842556e+000 1.539317e-015
         vertex 1.049815e+001 1.481804e+001 2.638497e-015
         vertex 1.079069e+001 1.460639e+001 2.612577e-015
      endloop
   endfacet
   facet normal 0.000000e+000 1.224647e-016 -1.000000e+000
      outer loop
         vertex 4.316277e+000 5.842556e+000 1.539317e-015
         vertex 1.079069e+001 1.460639e+001 2.612577e-015
         vertex 4.431586e+000 5.755584e+000 1.528666e-015
      endloop
   endfacet
   facet normal 0.000000e+000 1.224647e-016 -1.000000e+000
      outer loop
         vertex 4.431586e+000 5.755584e+000 1.528666e-015
         vertex 1.079069e+001 1.460639e+001 2.612577e-015
         vertex 1.107897e+001 1.438896e+001 2.585949e-015
      endloop
   endfacet
   facet normal 0.000000e+000 1.224647e-016 -1.000000e+000
      outer loop
         vertex 4.431586e+000 5.755584e+000 1.528666e-015
         vertex 1.107897e+001 1.438896e+001 2.585949e-015
         vertex 4.545143e+000 5.666337e+000 1.517736e-015
      endloop
   endfacet
   facet normal 0.000000e+000 1.224647e-016 -1.000000e+000
      outer loop
         vertex 4.545143e+000 5.666337e+000 1.517736e-015
         vertex 1.107897e+001 1.438896e+001 2.585949e-015
         vertex 1.136286e+001 1.416584e+001 2.558625e-015
      endloop
   endfacet
   facet normal 0.000000e+000 1.224647e-016 -1.000000e+000
      outer loop
         vertex 4.545143e+000 5.666337e+000 1.517736e-015
         vertex 1.136286e+001 1.416584e+001 2.558625e-015
         vertex 4.656904e+000 5.574849e+000 1.506532e-015
      endloop
   endfacet
   facet normal 0.000000e+000 1.224647e-016 -1.000000e+000
      outer loop
         vertex 4.656904e+000 5.574849e+000 1.506532e-015
         vertex 1.136286e+001 1.416584e+001 2.558625e-015
         vertex 1.164226e+001 1.393712e+001 2.530615e-015
      endloop
   endfacet
   facet normal 0.000000e+000 1.224647e-016 -1.000000e+000
      outer loop
         vertex 4.656904e+000 5.574849e+000 1.506532e-015
         vertex 1.164226e+001 1.393712e+001 2.530615e-015
         vertex 4.766824e+000 5.481157e+000 1.495058e-015
      endloop
   endfacet
   facet normal 0.000000e+000 1.224647e-016 -1.000000e+000
      outer loop
         vertex 4.766824e+000 5.481157e+000 1.495058e-015
         vertex 1.164226e+001 1.393712e+001 2.530615e-015
         vertex 1.191706e+001 1.370289e+001 2.501931e-015
      endloop
   endfacet
   facet normal 0.000000e+000 1.224647e-016 -1.000000e+000
      outer loop
         vertex 4.766824e+000 5.481157e+000 1.495058e-015
         vertex 1.191706e+001 1.370289e+001 2.501931e-015
         vertex 4.874859e+000 5.385299e+000 1.483319e-015
      endloop
   endfacet
   facet normal 0.000000e+000 1.224647e-016 -1.000000e+000
      outer loop
         vertex 4.874859e+000 5.385299e+000 1.483319e-015
         vertex 1.191706e+001 1.370289e+001 2.501931e-015
         vertex 1.218715e+001 1.346325e+001 2.472582e-015
      endloop
   endfacet
   facet normal 0.000000e+000 1.224647e-016 -1.000000e+000
      outer loop
         vertex 4.874859e+000 5.385299e+000 1.483319e-015
         vertex 1.218715e+001 1.346325e+001 2.472582e-015
         vertex 4.980967e+000 5.287312e+000 1.471319e-015
      endloop
   endfacet
   facet normal 0.000000e+000 1.224647e-016 -1.000000e+000
      outer loop
         vertex 4.980967e+000 5.287312e+000 1.471319e-015
         vertex 1.218715e+001 1.346325e+001 2.472582e-015
         vertex 1.245242e+001 1.321828e+001 2.442583e-015
      endloop
   endfacet
   facet normal 0.000000e+000 1.224647e-016 -1.000000e+000
      outer loop
         vertex 4.980967e+000 5.287312e+000 1.471319e-015
         vertex 1.245242e+001 1.321828e+001 2.442583e-015
         vertex 5.085105e+000 5.187234e+000 1.459063e-015
      endloop
   endfacet
   facet normal 0.000000e+000 1.224647e-016 -1.000000e+000
      outer loop
         vertex 5.085105e+000 5.187234e+000 1.459063e-015
         vertex 1.245242e+001 1.321828e+001 2.442583e-015
         vertex 1.271276e+001 1.296808e+001 2.411942e-015
      endloop
   endfacet
   facet normal 0.000000e+000 1.224647e-016 -1.000000e+000
      outer loop
         vertex 5.085105e+000 5.187234e+000 1.459063e-015
         vertex 1.271276e+001 1.296808e+001 2.411942e-015
         vertex 5.187234e+000 5.085105e+000 1.446556e-015
      endloop
   endfacet
   facet normal 0.000000e+000 1.224647e-016 -1.000000e+000
      outer loop
         vertex 5.187234e+000 5.085105e+000 1.446556e-015
         vertex 1.271276e+001 1.296808e+001 2.411942e-015
         vertex 1.296808e+001 1.271276e+001 2.380675e-015
      endloop
   endfacet
   facet normal 0.000000e+000 1.224647e-016 -1.000000e+000
      outer loop
         vertex 5.187234e+000 5.085105e+000 1.446556e-015
         vertex 1.296808e+001 1.271276e+001 2.380675e-015
         vertex 5.287312e+000 4.980967e+000 1.433803e-015
      endloop
   endfacet
   facet normal 0.000000e+000 1.224647e-016 -1.000000e+000
      outer loop
         vertex 5.287312e+000 4.980967e+000 1.433803e-015
         vertex 1.296808e+001 1.271276e+001 2.380675e-015
         vertex 1.321828e+001 1.245242e+001 2.348791e-015
      endloop
   endfacet
   facet normal 0.000000e+000 1.224647e-016 -1.000000e+000
      outer loop
         vertex 5.287312e+000 4.980967e+000 1.433803e-015
         vertex 1.321828e+001 1.245242e+001 2.348791e-015
         vertex 5.385299e+000 4.874859e+000 1.420808e-015
      endloop
   endfacet
   facet normal 0.000000e+000 1.224647e-016 -1.000000e+000
      outer loop
         vertex 5.385299e+000 4.874859e+000 1.420808e-015
         vertex 1.321828e+001 1.245242e+001 2.348791e-015
         vertex 1.346325e+001 1.218715e+001 2.316305e-015
      endloop
   endfacet
   facet normal 0.000000e+000 1.224647e-016 -1.000000e+000
      outer loop
         vertex 5.385299e+000 4.874859e+000 1.420808e-015
         vertex 1.346325e+001 1.218715e+001 2.316305e-015
         vertex 5.481157e+000 4.766824e+000 1.407578e-015
      endloop
   endfacet
   facet normal 0.000000e+000 1.224647e-016 -1.000000e+000
      outer loop
         vertex 5.481157e+000 4.766824e+000 1.407578e-015
         vertex 1.346325e+001 1.218715e+001 2.316305e-015
         vertex 1.370289e+001 1.191706e+001 2.283229e-015
      endloop
   endfacet
   facet normal 0.000000e+000 1.224647e-016 -1.000000e+000
      outer loop
         vertex 5.481157e+000 4.766824e+000 1.407578e-015
         vertex 1.370289e+001 1.191706e+001 2.283229e-015
         vertex 5.574849e+000 4.656904e+000 1.394116e-015
      endloop
   endfacet
   facet normal 0.000000e+000 1.224647e-016 -1.000000e+000
      outer loop
         vertex 5.574849e+000 4.656904e+000 1.394116e-015
         vertex 1.370289e+001 1.191706e+001 2.283229e-015
         vertex 1.393712e+001 1.164226e+001 2.249576e-015
      endloop
   endfacet
   facet normal 0.000000e+000 1.224647e-016 -1.000000e+000
      outer loop
         vertex 5.574849e+000 4.656904e+000 1.394116e-015
         vertex 1.393712e+001 1.164226e+001 2.249576e-015
         vertex 5.666337e+000 4.545143e+000 1.380430e-015
      endloop
   endfacet
   facet normal 0.000000e+000 1.224647e-016 -1.000000e+000
      outer loop
         vertex 5.666337e+000 4.545143e+000 1.380430e-015
         vertex 1.393712e+001 1.164226e+001 2.249576e-015
         vertex 1.416584e+001 1.136286e+001 2.215359e-015
      endloop
   endfacet
   facet normal 0.000000e+000 1.224647e-016 -1.000000e+000
      outer loop
         vertex 5.666337e+000 4.545143e+000 1.380430e-015
         vertex 1.416584e+001 1.136286e+001 2.215359e-015
         vertex 5.755584e+000 4.431586e+000 1.366523e-015
      endloop
   endfacet
   facet normal 0.000000e+000 1.224647e-016 -1.000000e+000
      outer loop
         vertex 5.755584e+000 4.431586e+000 1.366523e-015
         vertex 1.416584e+001 1.136286e+001 2.215359e-015
         vertex 1.438896e+001 1.107897e+001 2.180592e-015
      endloop
   endfacet
   facet normal 0.000000e+000 1.224647e-016 -1.000000e+000
      outer loop
         vertex 5.755584e+000 4.431586e+000 1.366523e-015
         vertex 1.438896e+001 1.107897e+001 2.180592e-015
         vertex 5.842556e+000 4.316277e+000 1.352401e-015
      endloop
   endfacet
   facet normal 0.000000e+000 1.224647e-016 -1.000000e+000
      outer loop
         vertex 5.842556e+000 4.316277e+000 1.352401e-015
         vertex 1.438896e+001 1.107897e+001 2.180592e-015
         vertex 1.460639e+001 1.079069e+001 2.145289e-015
      endloop
   endfacet
   facet normal 0.000000e+000 1.224647e-016 -1.000000e+000
      outer loop
         vertex 5.842556e+000 4.316277e+000 1.352401e-015
         vertex 1.460639e+001 1.079069e+001 2.145289e-015
         vertex 5.927217e+000 4.199260e+000 1.338071e-015
      endloop
   endfacet
   facet normal 0.000000e+000 1.224647e-016 -1.000000e+000
      outer loop
         vertex 5.927217e+000 4.199260e+000 1.338071e-015
         vertex 1.460639e+001 1.079069e+001 2.145289e-015
         vertex 1.481804e+001 1.049815e+001 2.109463e-015
      endloop
   endfacet
   facet normal 0.000000e+000 1.224647e-016 -1.000000e+000
      outer loop
         vertex 5.927217e+000 4.199260e+000 1.338071e-015
         vertex 1.481804e+001 1.049815e+001 2.109463e-015
         vertex 6.009536e+000 4.080584e+000 1.323538e-015
      endloop
   endfacet
   facet normal 0.000000e+000 1.224647e-016 -1.000000e+000
      outer loop
         vertex 6.009536e+000 4.080584e+000 1.323538e-015
         vertex 1.481804e+001 1.049815e+001 2.109463e-015
         vertex 1.502384e+001 1.020146e+001 2.073129e-015
      endloop
   endfacet
   facet normal 0.000000e+000 1.224647e-016 -1.000000e+000
      outer loop
         vertex 6.009536e+000 4.080584e+000 1.323538e-015
         vertex 1.502384e+001 1.020146e+001 2.073129e-015
         vertex 6.089479e+000 3.960295e+000 1.308806e-015
      endloop
   endfacet
   facet normal 0.000000e+000 1.224647e-016 -1.000000e+000
      outer loop
         vertex 6.089479e+000 3.960295e+000 1.308806e-015
         vertex 1.502384e+001 1.020146e+001 2.073129e-015
         vertex 1.522370e+001 9.900737e+000 2.036301e-015
      endloop
   endfacet
   facet normal 0.000000e+000 1.224647e-016 -1.000000e+000
      outer loop
         vertex 6.089479e+000 3.960295e+000 1.308806e-015
         vertex 1.522370e+001 9.900737e+000 2.036301e-015
         vertex 6.167015e+000 3.838440e+000 1.293883e-015
      endloop
   endfacet
   facet normal 0.000000e+000 1.224647e-016 -1.000000e+000
      outer loop
         vertex 6.167015e+000 3.838440e+000 1.293883e-015
         vertex 1.522370e+001 9.900737e+000 2.036301e-015
         vertex 1.541754e+001 9.596099e+000 1.998993e-015
      endloop
   endfacet
   facet normal 0.000000e+000 1.224647e-016 -1.000000e+000
      outer loop
         vertex 6.167015e+000 3.838440e+000 1.293883e-015
         vertex 1.541754e+001 9.596099e+000 1.998993e-015
         vertex 6.242113e+000 3.715067e+000 1.278775e-015
      endloop
   endfacet
   facet normal 0.000000e+000 1.224647e-016 -1.000000e+000
      outer loop
         vertex 6.242113e+000 3.715067e+000 1.278775e-015
         vertex 1.541754e+001 9.596099e+000 1.998993e-015
         vertex 1.560528e+001 9.287668e+000 1.961221e-015
      endloop
   endfacet
   facet normal 0.000000e+000 1.224647e-016 -1.000000e+000
      outer loop
         vertex 6.242113e+000 3.715067e+000 1.278775e-015
         vertex 1.560528e+001 9.287668e+000 1.961221e-015
         vertex 6.314743e+000 3.590226e+000 1.263486e-015
      endloop
   endfacet
   facet normal 0.000000e+000 1.224647e-016 -1.000000e+000
      outer loop
         vertex 6.314743e+000 3.590226e+000 1.263486e-015
         vertex 1.560528e+001 9.287668e+000 1.961221e-015
         vertex 1.578686e+001 8.975565e+000 1.923000e-015
      endloop
   endfacet
   facet normal 0.000000e+000 1.224647e-016 -1.000000e+000
      outer loop
         vertex 6.314743e+000 3.590226e+000 1.263486e-015
         vertex 1.578686e+001 8.975565e+000 1.923000e-015
         vertex 6.384876e+000 3.463966e+000 1.248024e-015
      endloop
   endfacet
   facet normal 0.000000e+000 1.224647e-016 -1.000000e+000
      outer loop
         vertex 6.384876e+000 3.463966e+000 1.248024e-015
         vertex 1.578686e+001 8.975565e+000 1.923000e-015
         vertex 1.596219e+001 8.659914e+000 1.884344e-015
      endloop
   endfacet
   facet normal 0.000000e+000 1.224647e-016 -1.000000e+000
      outer loop
         vertex 6.384876e+000 3.463966e+000 1.248024e-015
         vertex 1.596219e+001 8.659914e+000 1.884344e-015
         vertex 6.452485e+000 3.336335e+000 1.232393e-015
      endloop
   endfacet
   facet normal 0.000000e+000 1.224647e-016 -1.000000e+000
      outer loop
         vertex 6.452485e+000 3.336335e+000 1.232393e-015
         vertex 1.596219e+001 8.659914e+000 1.884344e-015
         vertex 1.613121e+001 8.340838e+000 1.845268e-015
      endloop
   endfacet
   facet normal 0.000000e+000 1.224647e-016 -1.000000e+000
      outer loop
         vertex 6.452485e+000 3.336335e+000 1.232393e-015
         vertex 1.613121e+001 8.340838e+000 1.845268e-015
         vertex 6.517543e+000 3.207386e+000 1.216602e-015
      endloop
   endfacet
   facet normal 0.000000e+000 1.224647e-016 -1.000000e+000
      outer loop
         vertex 6.517543e+000 3.207386e+000 1.216602e-015
         vertex 1.613121e+001 8.340838e+000 1.845268e-015
         vertex 1.629386e+001 8.018467e+000 1.805789e-015
      endloop
   endfacet
   facet normal 0.000000e+000 1.224647e-016 -1.000000e+000
      outer loop
         vertex 6.517543e+000 3.207386e+000 1.216602e-015
         vertex 1.629386e+001 8.018467e+000 1.805789e-015
         vertex 6.580025e+000 3.077169e+000 1.200655e-015
      endloop
   endfacet
   facet normal 0.000000e+000 1.224647e-016 -1.000000e+000
      outer loop
         vertex 6.580025e+000 3.077169e+000 1.200655e-015
         vertex 1.629386e+001 8.018467e+000 1.805789e-015
         vertex 1.645006e+001 7.692924e+000 1.765922e-015
      endloop
   endfacet
   facet normal 0.000000e+000 1.224647e-016 -1.000000e+000
      outer loop
         vertex 6.580025e+000 3.077169e+000 1.200655e-015
         vertex 1.645006e+001 7.692924e+000 1.765922e-015
         vertex 6.639905e+000 2.945736e+000 1.184559e-015
      endloop
   endfacet
   facet normal 0.000000e+000 1.224647e-016 -1.000000e+000
      outer loop
         vertex 6.639905e+000 2.945736e+000 1.184559e-015
         vertex 1.645006e+001 7.692924e+000 1.765922e-015
         vertex 1.659976e+001 7.364340e+000 1.725682e-015
      endloop
   endfacet
   facet normal 0.000000e+000 1.224647e-016 -1.000000e+000
      outer loop
         vertex 6.639905e+000 2.945736e+000 1.184559e-015
         vertex 1.659976e+001 7.364340e+000 1.725682e-015
         vertex 6.697160e+000 2.813138e+000 1.168320e-015
      endloop
   endfacet
   facet normal 0.000000e+000 1.224647e-016 -1.000000e+000
      outer loop
         vertex 6.697160e+000 2.813138e+000 1.168320e-015
         vertex 1.659976e+001 7.364340e+000 1.725682e-015
         vertex 1.674290e+001 7.032845e+000 1.685085e-015
      endloop
   endfacet
   facet normal 0.000000e+000 1.224647e-016 -1.000000e+000
      outer loop
         vertex 6.697160e+000 2.813138e+000 1.168320e-015
         vertex 1.674290e+001 7.032845e+000 1.685085e-015
         vertex 6.751767e+000 2.679428e+000 1.151945e-015
      endloop
   endfacet
   facet normal 0.000000e+000 1.224647e-016 -1.000000e+000
      outer loop
         vertex 6.751767e+000 2.679428e+000 1.151945e-015
         vertex 1.674290e+001 7.032845e+000 1.685085e-015
         vertex 1.687942e+001 6.698569e+000 1.644148e-015
      endloop
   endfacet
   facet normal 0.000000e+000 1.224647e-016 -1.000000e+000
      outer loop
         vertex 6.751767e+000 2.679428e+000 1.151945e-015
         vertex 1.687942e+001 6.698569e+000 1.644148e-015
         vertex 6.803706e+000 2.544658e+000 1.135441e-015
      endloop
   endfacet
   facet normal 0.000000e+000 1.224647e-016 -1.000000e+000
      outer loop
         vertex 6.803706e+000 2.544658e+000 1.135441e-015
         vertex 1.687942e+001 6.698569e+000 1.644148e-015
         vertex 1.700926e+001 6.361645e+000 1.602887e-015
      endloop
   endfacet
   facet normal 0.000000e+000 1.224647e-016 -1.000000e+000
      outer loop
         vertex 6.803706e+000 2.544658e+000 1.135441e-015
         vertex 1.700926e+001 6.361645e+000 1.602887e-015
         vertex 6.852954e+000 2.408882e+000 1.118813e-015
      endloop
   endfacet
   facet normal 0.000000e+000 1.224647e-016 -1.000000e+000
      outer loop
         vertex 6.852954e+000 2.408882e+000 1.118813e-015
         vertex 1.700926e+001 6.361645e+000 1.602887e-015
         vertex 1.713239e+001 6.022206e+000 1.561318e-015
      endloop
   endfacet
   facet normal 0.000000e+000 1.224647e-016 -1.000000e+000
      outer loop
         vertex 6.852954e+000 2.408882e+000 1.118813e-015
         vertex 1.713239e+001 6.022206e+000 1.561318e-015
         vertex 6.899493e+000 2.272154e+000 1.102069e-015
      endloop
   endfacet
   facet normal 0.000000e+000 1.224647e-016 -1.000000e+000
      outer loop
         vertex 6.899493e+000 2.272154e+000 1.102069e-015
         vertex 1.713239e+001 6.022206e+000 1.561318e-015
         vertex 1.724873e+001 5.680387e+000 1.519457e-015
      endloop
   endfacet
   facet normal 0.000000e+000 1.224647e-016 -1.000000e+000
      outer loop
         vertex 6.899493e+000 2.272154e+000 1.102069e-015
         vertex 1.724873e+001 5.680387e+000 1.519457e-015
         vertex 6.943305e+000 2.134528e+000 1.085214e-015
      endloop
   endfacet
   facet normal 0.000000e+000 1.224647e-016 -1.000000e+000
      outer loop
         vertex 6.943305e+000 2.134528e+000 1.085214e-015
         vertex 1.724873e+001 5.680387e+000 1.519457e-015
         vertex 1.735826e+001 5.336321e+000 1.477321e-015
      endloop
   endfacet
   facet normal 0.000000e+000 1.224647e-016 -1.000000e+000
      outer loop
         vertex 6.943305e+000 2.134528e+000 1.085214e-015
         vertex 1.735826e+001 5.336321e+000 1.477321e-015
         vertex 6.984372e+000 1.996058e+000 1.068257e-015
      endloop
   endfacet
   facet normal 0.000000e+000 1.224647e-016 -1.000000e+000
      outer loop
         vertex 6.984372e+000 1.996058e+000 1.068257e-015
         vertex 1.735826e+001 5.336321e+000 1.477321e-015
         vertex 1.746093e+001 4.990146e+000 1.434927e-015
      endloop
   endfacet
   facet normal 0.000000e+000 1.224647e-016 -1.000000e+000
      outer loop
         vertex 6.984372e+000 1.996058e+000 1.068257e-015
         vertex 1.746093e+001 4.990146e+000 1.434927e-015
         vertex 7.022677e+000 1.856799e+000 1.051202e-015
      endloop
   endfacet
   facet normal 0.000000e+000 1.224647e-016 -1.000000e+000
      outer loop
         vertex 7.022677e+000 1.856799e+000 1.051202e-015
         vertex 1.746093e+001 4.990146e+000 1.434927e-015
         vertex 1.755669e+001 4.641998e+000 1.392291e-015
      endloop
   endfacet
   facet normal 0.000000e+000 1.224647e-016 -1.000000e+000
      outer loop
         vertex 7.022677e+000 1.856799e+000 1.051202e-015
         vertex 1.755669e+001 4.641998e+000 1.392291e-015
         vertex 7.058206e+000 1.716806e+000 1.034058e-015
      endloop
   endfacet
   facet normal 0.000000e+000 1.224647e-016 -1.000000e+000
      outer loop
         vertex 7.058206e+000 1.716806e+000 1.034058e-015
         vertex 1.755669e+001 4.641998e+000 1.392291e-015
         vertex 1.764552e+001 4.292015e+000 1.349430e-015
      endloop
   endfacet
   facet normal 0.000000e+000 1.224647e-016 -1.000000e+000
      outer loop
         vertex 7.058206e+000 1.716806e+000 1.034058e-015
         vertex 1.764552e+001 4.292015e+000 1.349430e-015
         vertex 7.090945e+000 1.576134e+000 1.016831e-015
      endloop
   endfacet
   facet normal 0.000000e+000 1.224647e-016 -1.000000e+000
      outer loop
         vertex 7.090945e+000 1.576134e+000 1.016831e-015
         vertex 1.764552e+001 4.292015e+000 1.349430e-015
         vertex 1.772736e+001 3.940335e+000 1.306362e-015
      endloop
   endfacet
   facet normal 0.000000e+000 1.224647e-016 -1.000000e+000
      outer loop
         vertex 7.090945e+000 1.576134e+000 1.016831e-015
         vertex 1.772736e+001 3.940335e+000 1.306362e-015
         vertex 7.120880e+000 1.434839e+000 9.995273e-016
      endloop
   endfacet
   facet normal 0.000000e+000 1.224647e-016 -1.000000e+000
      outer loop
         vertex 7.120880e+000 1.434839e+000 9.995273e-016
         vertex 1.772736e+001 3.940335e+000 1.306362e-015
         vertex 1.780220e+001 3.587098e+000 1.263103e-015
      endloop
   endfacet
   facet normal 0.000000e+000 1.224647e-016 -1.000000e+000
      outer loop
         vertex 7.120880e+000 1.434839e+000 9.995273e-016
         vertex 1.780220e+001 3.587098e+000 1.263103e-015
         vertex 7.148000e+000 1.292977e+000 9.821541e-016
      endloop
   endfacet
   facet normal 0.000000e+000 1.224647e-016 -1.000000e+000
      outer loop
         vertex 7.148000e+000 1.292977e+000 9.821541e-016
         vertex 1.780220e+001 3.587098e+000 1.263103e-015
         vertex 1.787000e+001 3.232442e+000 1.219670e-015
      endloop
   endfacet
   facet normal 0.000000e+000 1.224647e-016 -1.000000e+000
      outer loop
         vertex 7.148000e+000 1.292977e+000 9.821541e-016
         vertex 1.787000e+001 3.232442e+000 1.219670e-015
         vertex 7.172295e+000 1.150603e+000 9.647184e-016
      endloop
   endfacet
   facet normal 0.000000e+000 1.224647e-016 -1.000000e+000
      outer loop
         vertex 7.172295e+000 1.150603e+000 9.647184e-016
         vertex 1.787000e+001 3.232442e+000 1.219670e-015
         vertex 1.793074e+001 2.876508e+000 1.176081e-015
      endloop
   endfacet
   facet normal 0.000000e+000 1.224647e-016 -1.000000e+000
      outer loop
         vertex 7.172295e+000 1.150603e+000 9.647184e-016
         vertex 1.793074e+001 2.876508e+000 1.176081e-015
         vertex 7.193753e+000 1.007775e+000 9.472270e-016
      endloop
   endfacet
   facet normal 0.000000e+000 1.224647e-016 -1.000000e+000
      outer loop
         vertex 7.193753e+000 1.007775e+000 9.472270e-016
         vertex 1.793074e+001 2.876508e+000 1.176081e-015
         vertex 1.798438e+001 2.519437e+000 1.132352e-015
      endloop
   endfacet
   facet normal 0.000000e+000 1.224647e-016 -1.000000e+000
      outer loop
         vertex 7.193753e+000 1.007775e+000 9.472270e-016
         vertex 1.798438e+001 2.519437e+000 1.132352e-015
         vertex 7.212368e+000 8.645481e-001 9.296867e-016
      endloop
   endfacet
   facet normal 0.000000e+000 1.224647e-016 -1.000000e+000
      outer loop
         vertex 7.212368e+000 8.645481e-001 9.296867e-016
         vertex 1.798438e+001 2.519437e+000 1.132352e-015
         vertex 1.803092e+001 2.161370e+000 1.088502e-015
      endloop
   endfacet
   facet normal 0.000000e+000 1.224647e-016 -1.000000e+000
      outer loop
         vertex 7.212368e+000 8.645481e-001 9.296867e-016
         vertex 1.803092e+001 2.161370e+000 1.088502e-015
         vertex 7.228131e+000 7.209796e-001 9.121047e-016
      endloop
   endfacet
   facet normal 0.000000e+000 1.224647e-016 -1.000000e+000
      outer loop
         vertex 7.228131e+000 7.209796e-001 9.121047e-016
         vertex 1.803092e+001 2.161370e+000 1.088502e-015
         vertex 1.807033e+001 1.802449e+000 1.044546e-015
      endloop
   endfacet
   facet normal 0.000000e+000 1.224647e-016 -1.000000e+000
      outer loop
         vertex 7.228131e+000 7.209796e-001 9.121047e-016
         vertex 1.807033e+001 1.802449e+000 1.044546e-015
         vertex 7.241037e+000 5.771260e-001 8.944877e-016
      endloop
   endfacet
   facet normal 0.000000e+000 1.224647e-016 -1.000000e+000
      outer loop
         vertex 7.241037e+000 5.771260e-001 8.944877e-016
         vertex 1.807033e+001 1.802449e+000 1.044546e-015
         vertex 1.810259e+001 1.442815e+000 1.000504e-015
      endloop
   endfacet
   facet normal 0.000000e+000 1.224647e-016 -1.000000e+000
      outer loop
         vertex 7.241037e+000 5.771260e-001 8.944877e-016
         vertex 1.810259e+001 1.442815e+000 1.000504e-015
         vertex 7.251081e+000 4.330443e-001 8.768428e-016
      endloop
   endfacet
   facet normal 0.000000e+000 1.224647e-016 -1.000000e+000
      outer loop
         vertex 7.251081e+000 4.330443e-001 8.768428e-016
         vertex 1.810259e+001 1.442815e+000 1.000504e-015
         vertex 1.812770e+001 1.082611e+000 9.563917e-016
      endloop
   endfacet
   facet normal 0.000000e+000 1.224647e-016 -1.000000e+000
      outer loop
         vertex 7.251081e+000 4.330443e-001 8.768428e-016
         vertex 1.812770e+001 1.082611e+000 9.563917e-016
         vertex 7.258257e+000 2.887913e-001 8.591769e-016
      endloop
   endfacet
   facet normal 0.000000e+000 1.224647e-016 -1.000000e+000
      outer loop
         vertex 7.258257e+000 2.887913e-001 8.591769e-016
         vertex 1.812770e+001 1.082611e+000 9.563917e-016
         vertex 1.814564e+001 7.219783e-001 9.122270e-016
      endloop
   endfacet
   facet normal 0.000000e+000 1.224647e-016 -1.000000e+000
      outer loop
         vertex 7.258257e+000 2.887913e-001 8.591769e-016
         vertex 1.814564e+001 7.219783e-001 9.122270e-016
         vertex 7.262564e+000 1.444242e-001 8.414970e-016
      endloop
   endfacet
   facet normal 0.000000e+000 1.224647e-016 -1.000000e+000
      outer loop
         vertex 7.262564e+000 1.444242e-001 8.414970e-016
         vertex 1.814564e+001 7.219783e-001 9.122270e-016
         vertex 1.815641e+001 3.610605e-001 8.680273e-016
      endloop
   endfacet
   facet normal 0.000000e+000 1.224647e-016 -1.000000e+000
      outer loop
         vertex 7.262564e+000 1.444242e-001 8.414970e-016
         vertex 1.815641e+001 3.610605e-001 8.680273e-016
         vertex 7.264000e+000 2.515349e-014 8.238101e-016
      endloop
   endfacet
   facet normal 0.000000e+000 1.224647e-016 -1.000000e+000
      outer loop
         vertex 7.264000e+000 2.515349e-014 8.238101e-016
         vertex 1.815641e+001 3.610605e-001 8.680273e-016
         vertex 1.816000e+001 6.418477e-014 8.238101e-016
      endloop
   endfacet
   facet normal 0.000000e+000 1.224647e-016 -1.000000e+000
      outer loop
         vertex 7.264000e+000 2.515349e-014 8.238101e-016
         vertex 1.816000e+001 6.418477e-014 8.238101e-016
         vertex 7.262564e+000 -1.444242e-001 8.061232e-016
      endloop
   endfacet
   facet normal 0.000000e+000 1.224647e-016 -1.000000e+000
      outer loop
         vertex 7.262564e+000 -1.444242e-001 8.061232e-016
         vertex 1.816000e+001 6.418477e-014 8.238101e-016
         vertex 1.815641e+001 -3.610605e-001 7.795930e-016
      endloop
   endfacet
   facet normal 0.000000e+000 1.224647e-016 -1.000000e+000
      outer loop
         vertex 7.262564e+000 -1.444242e-001 8.061232e-016
         vertex 1.815641e+001 -3.610605e-001 7.795930e-016
         vertex 7.258257e+000 -2.887913e-001 7.884434e-016
      endloop
   endfacet
   facet normal 0.000000e+000 1.224647e-016 -1.000000e+000
      outer loop
         vertex 7.258257e+000 -2.887913e-001 7.884434e-016
         vertex 1.815641e+001 -3.610605e-001 7.795930e-016
         vertex 1.814564e+001 -7.219783e-001 7.353933e-016
      endloop
   endfacet
   facet normal 0.000000e+000 1.224647e-016 -1.000000e+000
      outer loop
         vertex 7.258257e+000 -2.887913e-001 7.884434e-016
         vertex 1.814564e+001 -7.219783e-001 7.353933e-016
         vertex 7.251081e+000 -4.330443e-001 7.707775e-016
      endloop
   endfacet
   facet normal 0.000000e+000 1.224647e-016 -1.000000e+000
      outer loop
         vertex 7.251081e+000 -4.330443e-001 7.707775e-016
         vertex 1.814564e+001 -7.219783e-001 7.353933e-016
         vertex 1.812770e+001 -1.082611e+000 6.912285e-016
      endloop
   endfacet
   facet normal 0.000000e+000 1.224647e-016 -1.000000e+000
      outer loop
         vertex 7.251081e+000 -4.330443e-001 7.707775e-016
         vertex 1.812770e+001 -1.082611e+000 6.912285e-016
         vertex 7.241037e+000 -5.771260e-001 7.531325e-016
      endloop
   endfacet
   facet normal 0.000000e+000 1.224647e-016 -1.000000e+000
      outer loop
         vertex 7.241037e+000 -5.771260e-001 7.531325e-016
         vertex 1.812770e+001 -1.082611e+000 6.912285e-016
         vertex 1.810259e+001 -1.442815e+000 6.471162e-016
      endloop
   endfacet
   facet normal 0.000000e+000 1.224647e-016 -1.000000e+000
      outer loop
         vertex 7.241037e+000 -5.771260e-001 7.531325e-016
         vertex 1.810259e+001 -1.442815e+000 6.471162e-016
         vertex 7.228131e+000 -7.209796e-001 7.355156e-016
      endloop
   endfacet
   facet normal 0.000000e+000 1.224647e-016 -1.000000e+000
      outer loop
         vertex 7.228131e+000 -7.209796e-001 7.355156e-016
         vertex 1.810259e+001 -1.442815e+000 6.471162e-016
         vertex 1.807033e+001 -1.802449e+000 6.030737e-016
      endloop
   endfacet
   facet normal 0.000000e+000 1.224647e-016 -1.000000e+000
      outer loop
         vertex 7.228131e+000 -7.209796e-001 7.355156e-016
         vertex 1.807033e+001 -1.802449e+000 6.030737e-016
         vertex 7.212368e+000 -8.645481e-001 7.179335e-016
      endloop
   endfacet
   facet normal 0.000000e+000 1.224647e-016 -1.000000e+000
      outer loop
         vertex 7.212368e+000 -8.645481e-001 7.179335e-016
         vertex 1.807033e+001 -1.802449e+000 6.030737e-016
         vertex 1.803092e+001 -2.161370e+000 5.591186e-016
      endloop
   endfacet
   facet normal 0.000000e+000 1.224647e-016 -1.000000e+000
      outer loop
         vertex 7.212368e+000 -8.645481e-001 7.179335e-016
         vertex 1.803092e+001 -2.161370e+000 5.591186e-016
         vertex 7.193753e+000 -1.007775e+000 7.003933e-016
      endloop
   endfacet
   facet normal 0.000000e+000 1.224647e-016 -1.000000e+000
      outer loop
         vertex 7.193753e+000 -1.007775e+000 7.003933e-016
         vertex 1.803092e+001 -2.161370e+000 5.591186e-016
         vertex 1.798438e+001 -2.519437e+000 5.152680e-016
      endloop
   endfacet
   facet normal 0.000000e+000 1.224647e-016 -1.000000e+000
      outer loop
         vertex 7.193753e+000 -1.007775e+000 7.003933e-016
         vertex 1.798438e+001 -2.519437e+000 5.152680e-016
         vertex 7.172295e+000 -1.150603e+000 6.829018e-016
      endloop
   endfacet
   facet normal 0.000000e+000 1.224647e-016 -1.000000e+000
      outer loop
         vertex 7.172295e+000 -1.150603e+000 6.829018e-016
         vertex 1.798438e+001 -2.519437e+000 5.152680e-016
         vertex 1.793074e+001 -2.876508e+000 4.715395e-016
      endloop
   endfacet
   facet normal 0.000000e+000 1.224647e-016 -1.000000e+000
      outer loop
         vertex 7.172295e+000 -1.150603e+000 6.829018e-016
         vertex 1.793074e+001 -2.876508e+000 4.715395e-016
         vertex 7.148000e+000 -1.292977e+000 6.654661e-016
      endloop
   endfacet
   facet normal 0.000000e+000 1.224647e-016 -1.000000e+000
      outer loop
         vertex 7.148000e+000 -1.292977e+000 6.654661e-016
         vertex 1.793074e+001 -2.876508e+000 4.715395e-016
         vertex 1.787000e+001 -3.232442e+000 4.279502e-016
      endloop
   endfacet
   facet normal 0.000000e+000 1.224647e-016 -1.000000e+000
      outer loop
         vertex 7.148000e+000 -1.292977e+000 6.654661e-016
         vertex 1.787000e+001 -3.232442e+000 4.279502e-016
         vertex 7.120880e+000 -1.434839e+000 6.480930e-016
      endloop
   endfacet
   facet normal 0.000000e+000 1.224647e-016 -1.000000e+000
      outer loop
         vertex 7.120880e+000 -1.434839e+000 6.480930e-016
         vertex 1.787000e+001 -3.232442e+000 4.279502e-016
         vertex 1.780220e+001 -3.587098e+000 3.845174e-016
      endloop
   endfacet
   facet normal 0.000000e+000 1.224647e-016 -1.000000e+000
      outer loop
         vertex 7.120880e+000 -1.434839e+000 6.480930e-016
         vertex 1.780220e+001 -3.587098e+000 3.845174e-016
         vertex 7.090945e+000 -1.576134e+000 6.307894e-016
      endloop
   endfacet
   facet normal 0.000000e+000 1.224647e-016 -1.000000e+000
      outer loop
         vertex 7.090945e+000 -1.576134e+000 6.307894e-016
         vertex 1.780220e+001 -3.587098e+000 3.845174e-016
         vertex 1.772736e+001 -3.940335e+000 3.412582e-016
      endloop
   endfacet
   facet normal 0.000000e+000 1.224647e-016 -1.000000e+000
      outer loop
         vertex 7.090945e+000 -1.576134e+000 6.307894e-016
         vertex 1.772736e+001 -3.940335e+000 3.412582e-016
         vertex 7.058206e+000 -1.716806e+000 6.135620e-016
      endloop
   endfacet
   facet normal 0.000000e+000 1.224647e-016 -1.000000e+000
      outer loop
         vertex 7.058206e+000 -1.716806e+000 6.135620e-016
         vertex 1.772736e+001 -3.940335e+000 3.412582e-016
         vertex 1.764552e+001 -4.292015e+000 2.981899e-016
      endloop
   endfacet
   facet normal 0.000000e+000 1.224647e-016 -1.000000e+000
      outer loop
         vertex 7.058206e+000 -1.716806e+000 6.135620e-016
         vertex 1.764552e+001 -4.292015e+000 2.981899e-016
         vertex 7.022677e+000 -1.856799e+000 5.964178e-016
      endloop
   endfacet
   facet normal 0.000000e+000 1.224647e-016 -1.000000e+000
      outer loop
         vertex 7.022677e+000 -1.856799e+000 5.964178e-016
         vertex 1.764552e+001 -4.292015e+000 2.981899e-016
         vertex 1.755669e+001 -4.641998e+000 2.553293e-016
      endloop
   endfacet
   facet normal 0.000000e+000 1.224647e-016 -1.000000e+000
      outer loop
         vertex 7.022677e+000 -1.856799e+000 5.964178e-016
         vertex 1.755669e+001 -4.641998e+000 2.553293e-016
         vertex 6.984372e+000 -1.996058e+000 5.793634e-016
      endloop
   endfacet
   facet normal 0.000000e+000 1.224647e-016 -1.000000e+000
      outer loop
         vertex 6.984372e+000 -1.996058e+000 5.793634e-016
         vertex 1.755669e+001 -4.641998e+000 2.553293e-016
         vertex 1.746093e+001 -4.990146e+000 2.126935e-016
      endloop
   endfacet
   facet normal 0.000000e+000 1.224647e-016 -1.000000e+000
      outer loop
         vertex 6.984372e+000 -1.996058e+000 5.793634e-016
         vertex 1.746093e+001 -4.990146e+000 2.126935e-016
         vertex 6.943305e+000 -2.134528e+000 5.624058e-016
      endloop
   endfacet
   facet normal 0.000000e+000 1.224647e-016 -1.000000e+000
      outer loop
         vertex 6.943305e+000 -2.134528e+000 5.624058e-016
         vertex 1.746093e+001 -4.990146e+000 2.126935e-016
         vertex 1.735826e+001 -5.336321e+000 1.702993e-016
      endloop
   endfacet
   facet normal 0.000000e+000 1.224647e-016 -1.000000e+000
      outer loop
         vertex 6.943305e+000 -2.134528e+000 5.624058e-016
         vertex 1.735826e+001 -5.336321e+000 1.702993e-016
         vertex 6.899493e+000 -2.272154e+000 5.455514e-016
      endloop
   endfacet
   facet normal 0.000000e+000 1.224647e-016 -1.000000e+000
      outer loop
         vertex 6.899493e+000 -2.272154e+000 5.455514e-016
         vertex 1.735826e+001 -5.336321e+000 1.702993e-016
         vertex 1.724873e+001 -5.680387e+000 1.281634e-016
      endloop
   endfacet
   facet normal 0.000000e+000 1.224647e-016 -1.000000e+000
      outer loop
         vertex 6.899493e+000 -2.272154e+000 5.455514e-016
         vertex 1.724873e+001 -5.680387e+000 1.281634e-016
         vertex 6.852954e+000 -2.408882e+000 5.288071e-016
      endloop
   endfacet
   facet normal 0.000000e+000 1.224647e-016 -1.000000e+000
      outer loop
         vertex 6.852954e+000 -2.408882e+000 5.288071e-016
         vertex 1.724873e+001 -5.680387e+000 1.281634e-016
         vertex 1.713239e+001 -6.022206e+000 8.630257e-017
      endloop
   endfacet
   facet normal 0.000000e+000 1.224647e-016 -1.000000e+000
      outer loop
         vertex 6.852954e+000 -2.408882e+000 5.288071e-016
         vertex 1.713239e+001 -6.022206e+000 8.630257e-017
         vertex 6.803706e+000 -2.544658e+000 5.121794e-016
      endloop
   endfacet
   facet normal 0.000000e+000 1.224647e-016 -1.000000e+000
      outer loop
         vertex 6.803706e+000 -2.544658e+000 5.121794e-016
         vertex 1.713239e+001 -6.022206e+000 8.630257e-017
         vertex 1.700926e+001 -6.361645e+000 4.473329e-017
      endloop
   endfacet
   facet normal 0.000000e+000 1.224647e-016 -1.000000e+000
      outer loop
         vertex 6.803706e+000 -2.544658e+000 5.121794e-016
         vertex 1.700926e+001 -6.361645e+000 4.473329e-017
         vertex 6.751767e+000 -2.679428e+000 4.956748e-016
      endloop
   endfacet
   facet normal 0.000000e+000 1.224647e-016 -1.000000e+000
      outer loop
         vertex 6.751767e+000 -2.679428e+000 4.956748e-016
         vertex 1.700926e+001 -6.361645e+000 4.473329e-017
         vertex 1.687942e+001 -6.698569e+000 3.472012e-018
      endloop
   endfacet
   facet normal 0.000000e+000 1.224647e-016 -1.000000e+000
      outer loop
         vertex 6.751767e+000 -2.679428e+000 4.956748e-016
         vertex 1.687942e+001 -6.698569e+000 3.472012e-018
         vertex 6.697160e+000 -2.813138e+000 4.793001e-016
      endloop
   endfacet
   facet normal 0.000000e+000 1.224647e-016 -1.000000e+000
      outer loop
         vertex 6.697160e+000 -2.813138e+000 4.793001e-016
         vertex 1.687942e+001 -6.698569e+000 3.472012e-018
         vertex 1.674290e+001 -7.032845e+000 -3.746495e-017
      endloop
   endfacet
   facet normal 0.000000e+000 1.224647e-016 -1.000000e+000
      outer loop
         vertex 6.697160e+000 -2.813138e+000 4.793001e-016
         vertex 1.674290e+001 -7.032845e+000 -3.746495e-017
         vertex 6.639905e+000 -2.945736e+000 4.630615e-016
      endloop
   endfacet
   facet normal 0.000000e+000 1.224647e-016 -1.000000e+000
      outer loop
         vertex 6.639905e+000 -2.945736e+000 4.630615e-016
         vertex 1.674290e+001 -7.032845e+000 -3.746495e-017
         vertex 1.659976e+001 -7.364340e+000 -7.806142e-017
      endloop
   endfacet
   facet normal 0.000000e+000 1.224647e-016 -1.000000e+000
      outer loop
         vertex 6.639905e+000 -2.945736e+000 4.630615e-016
         vertex 1.659976e+001 -7.364340e+000 -7.806142e-017
         vertex 6.580025e+000 -3.077169e+000 4.469655e-016
      endloop
   endfacet
   facet normal 0.000000e+000 1.224647e-016 -1.000000e+000
      outer loop
         vertex 6.580025e+000 -3.077169e+000 4.469655e-016
         vertex 1.659976e+001 -7.364340e+000 -7.806142e-017
         vertex 1.645006e+001 -7.692924e+000 -1.183013e-016
      endloop
   endfacet
   facet normal 0.000000e+000 1.224647e-016 -1.000000e+000
      outer loop
         vertex 6.580025e+000 -3.077169e+000 4.469655e-016
         vertex 1.645006e+001 -7.692924e+000 -1.183013e-016
         vertex 6.517543e+000 -3.207386e+000 4.310185e-016
      endloop
   endfacet
   facet normal 0.000000e+000 1.224647e-016 -1.000000e+000
      outer loop
         vertex 6.517543e+000 -3.207386e+000 4.310185e-016
         vertex 1.645006e+001 -7.692924e+000 -1.183013e-016
         vertex 1.629386e+001 -8.018467e+000 -1.581688e-016
      endloop
   endfacet
   facet normal 0.000000e+000 1.224647e-016 -1.000000e+000
      outer loop
         vertex 6.517543e+000 -3.207386e+000 4.310185e-016
         vertex 1.629386e+001 -8.018467e+000 -1.581688e-016
         vertex 6.452485e+000 -3.336335e+000 4.152269e-016
      endloop
   endfacet
   facet normal 0.000000e+000 1.224647e-016 -1.000000e+000
      outer loop
         vertex 6.452485e+000 -3.336335e+000 4.152269e-016
         vertex 1.629386e+001 -8.018467e+000 -1.581688e-016
         vertex 1.613121e+001 -8.340838e+000 -1.976480e-016
      endloop
   endfacet
   facet normal 0.000000e+000 1.224647e-016 -1.000000e+000
      outer loop
         vertex 6.452485e+000 -3.336335e+000 4.152269e-016
         vertex 1.613121e+001 -8.340838e+000 -1.976480e-016
         vertex 6.384876e+000 -3.463966e+000 3.995967e-016
      endloop
   endfacet
   facet normal 0.000000e+000 1.224647e-016 -1.000000e+000
      outer loop
         vertex 6.384876e+000 -3.463966e+000 3.995967e-016
         vertex 1.613121e+001 -8.340838e+000 -1.976480e-016
         vertex 1.596219e+001 -8.659914e+000 -2.367235e-016
      endloop
   endfacet
   facet normal 0.000000e+000 1.224647e-016 -1.000000e+000
      outer loop
         vertex 6.384876e+000 -3.463966e+000 3.995967e-016
         vertex 1.596219e+001 -8.659914e+000 -2.367235e-016
         vertex 6.314743e+000 -3.590226e+000 3.841342e-016
      endloop
   endfacet
   facet normal 0.000000e+000 1.224647e-016 -1.000000e+000
      outer loop
         vertex 6.314743e+000 -3.590226e+000 3.841342e-016
         vertex 1.596219e+001 -8.659914e+000 -2.367235e-016
         vertex 1.578686e+001 -8.975565e+000 -2.753796e-016
      endloop
   endfacet
   facet normal 0.000000e+000 1.224647e-016 -1.000000e+000
      outer loop
         vertex 6.314743e+000 -3.590226e+000 3.841342e-016
         vertex 1.578686e+001 -8.975565e+000 -2.753796e-016
         vertex 6.242113e+000 -3.715067e+000 3.688456e-016
      endloop
   endfacet
   facet normal 0.000000e+000 1.224647e-016 -1.000000e+000
      outer loop
         vertex 6.242113e+000 -3.715067e+000 3.688456e-016
         vertex 1.578686e+001 -8.975565e+000 -2.753796e-016
         vertex 1.560528e+001 -9.287668e+000 -3.136012e-016
      endloop
   endfacet
   facet normal 0.000000e+000 1.224647e-016 -1.000000e+000
      outer loop
         vertex 6.242113e+000 -3.715067e+000 3.688456e-016
         vertex 1.560528e+001 -9.287668e+000 -3.136012e-016
         vertex 6.167015e+000 -3.838440e+000 3.537368e-016
      endloop
   endfacet
   facet normal 0.000000e+000 1.224647e-016 -1.000000e+000
      outer loop
         vertex 6.167015e+000 -3.838440e+000 3.537368e-016
         vertex 1.560528e+001 -9.287668e+000 -3.136012e-016
         vertex 1.541754e+001 -9.596099e+000 -3.513732e-016
      endloop
   endfacet
   facet normal 0.000000e+000 1.224647e-016 -1.000000e+000
      outer loop
         vertex 6.167015e+000 -3.838440e+000 3.537368e-016
         vertex 1.541754e+001 -9.596099e+000 -3.513732e-016
         vertex 6.089479e+000 -3.960295e+000 3.388139e-016
      endloop
   endfacet
   facet normal 0.000000e+000 1.224647e-016 -1.000000e+000
      outer loop
         vertex 6.089479e+000 -3.960295e+000 3.388139e-016
         vertex 1.541754e+001 -9.596099e+000 -3.513732e-016
         vertex 1.522370e+001 -9.900737e+000 -3.886805e-016
      endloop
   endfacet
   facet normal 0.000000e+000 1.224647e-016 -1.000000e+000
      outer loop
         vertex 6.089479e+000 -3.960295e+000 3.388139e-016
         vertex 1.522370e+001 -9.900737e+000 -3.886805e-016
         vertex 6.009536e+000 -4.080584e+000 3.240827e-016
      endloop
   endfacet
   facet normal 0.000000e+000 1.224647e-016 -1.000000e+000
      outer loop
         vertex 6.009536e+000 -4.080584e+000 3.240827e-016
         vertex 1.522370e+001 -9.900737e+000 -3.886805e-016
         vertex 1.502384e+001 -1.020146e+001 -4.255085e-016
      endloop
   endfacet
   facet normal 0.000000e+000 1.224647e-016 -1.000000e+000
      outer loop
         vertex 6.009536e+000 -4.080584e+000 3.240827e-016
         vertex 1.502384e+001 -1.020146e+001 -4.255085e-016
         vertex 5.927217e+000 -4.199260e+000 3.095490e-016
      endloop
   endfacet
   facet normal 0.000000e+000 1.224647e-016 -1.000000e+000
      outer loop
         vertex 5.927217e+000 -4.199260e+000 3.095490e-016
         vertex 1.502384e+001 -1.020146e+001 -4.255085e-016
         vertex 1.481804e+001 -1.049815e+001 -4.618425e-016
      endloop
   endfacet
   facet normal 0.000000e+000 1.224647e-016 -1.000000e+000
      outer loop
         vertex 5.927217e+000 -4.199260e+000 3.095490e-016
         vertex 1.481804e+001 -1.049815e+001 -4.618425e-016
         vertex 5.842556e+000 -4.316277e+000 2.952187e-016
      endloop
   endfacet
   facet normal 0.000000e+000 1.224647e-016 -1.000000e+000
      outer loop
         vertex 5.842556e+000 -4.316277e+000 2.952187e-016
         vertex 1.481804e+001 -1.049815e+001 -4.618425e-016
         vertex 1.460639e+001 -1.079069e+001 -4.976683e-016
      endloop
   endfacet
   facet normal 0.000000e+000 1.224647e-016 -1.000000e+000
      outer loop
         vertex 5.842556e+000 -4.316277e+000 2.952187e-016
         vertex 1.460639e+001 -1.079069e+001 -4.976683e-016
         vertex 5.755584e+000 -4.431586e+000 2.810974e-016
      endloop
   endfacet
   facet normal 0.000000e+000 1.224647e-016 -1.000000e+000
      outer loop
         vertex 5.755584e+000 -4.431586e+000 2.810974e-016
         vertex 1.460639e+001 -1.079069e+001 -4.976683e-016
         vertex 1.438896e+001 -1.107897e+001 -5.329718e-016
      endloop
   endfacet
   facet normal 0.000000e+000 1.224647e-016 -1.000000e+000
      outer loop
         vertex 5.755584e+000 -4.431586e+000 2.810974e-016
         vertex 1.438896e+001 -1.107897e+001 -5.329718e-016
         vertex 5.666337e+000 -4.545143e+000 2.671906e-016
      endloop
   endfacet
   facet normal 0.000000e+000 1.224647e-016 -1.000000e+000
      outer loop
         vertex 5.666337e+000 -4.545143e+000 2.671906e-016
         vertex 1.438896e+001 -1.107897e+001 -5.329718e-016
         vertex 1.416584e+001 -1.136286e+001 -5.677387e-016
      endloop
   endfacet
   facet normal 0.000000e+000 1.224647e-016 -1.000000e+000
      outer loop
         vertex 5.666337e+000 -4.545143e+000 2.671906e-016
         vertex 1.416584e+001 -1.136286e+001 -5.677387e-016
         vertex 5.574849e+000 -4.656904e+000 2.535038e-016
      endloop
   endfacet
   facet normal 0.000000e+000 1.224647e-016 -1.000000e+000
      outer loop
         vertex 5.574849e+000 -4.656904e+000 2.535038e-016
         vertex 1.416584e+001 -1.136286e+001 -5.677387e-016
         vertex 1.393712e+001 -1.164226e+001 -6.019556e-016
      endloop
   endfacet
   facet normal 0.000000e+000 1.224647e-016 -1.000000e+000
      outer loop
         vertex 5.574849e+000 -4.656904e+000 2.535038e-016
         vertex 1.393712e+001 -1.164226e+001 -6.019556e-016
         vertex 5.481157e+000 -4.766824e+000 2.400425e-016
      endloop
   endfacet
   facet normal 0.000000e+000 1.224647e-016 -1.000000e+000
      outer loop
         vertex 5.481157e+000 -4.766824e+000 2.400425e-016
         vertex 1.393712e+001 -1.164226e+001 -6.019556e-016
         vertex 1.370289e+001 -1.191706e+001 -6.356088e-016
      endloop
   endfacet
   facet normal 0.000000e+000 1.224647e-016 -1.000000e+000
      outer loop
         vertex 5.481157e+000 -4.766824e+000 2.400425e-016
         vertex 1.370289e+001 -1.191706e+001 -6.356088e-016
         vertex 5.385299e+000 -4.874859e+000 2.268121e-016
      endloop
   endfacet
   facet normal 0.000000e+000 1.224647e-016 -1.000000e+000
      outer loop
         vertex 5.385299e+000 -4.874859e+000 2.268121e-016
         vertex 1.370289e+001 -1.191706e+001 -6.356088e-016
         vertex 1.346325e+001 -1.218715e+001 -6.686850e-016
      endloop
   endfacet
   facet normal 0.000000e+000 1.224647e-016 -1.000000e+000
      outer loop
         vertex 5.385299e+000 -4.874859e+000 2.268121e-016
         vertex 1.346325e+001 -1.218715e+001 -6.686850e-016
         vertex 5.287312e+000 -4.980967e+000 2.138176e-016
      endloop
   endfacet
   facet normal 0.000000e+000 1.224647e-016 -1.000000e+000
      outer loop
         vertex 5.287312e+000 -4.980967e+000 2.138176e-016
         vertex 1.346325e+001 -1.218715e+001 -6.686850e-016
         vertex 1.321828e+001 -1.245242e+001 -7.011712e-016
      endloop
   endfacet
   facet normal 0.000000e+000 1.224647e-016 -1.000000e+000
      outer loop
         vertex 5.287312e+000 -4.980967e+000 2.138176e-016
         vertex 1.321828e+001 -1.245242e+001 -7.011712e-016
         vertex 5.187234e+000 -5.085105e+000 2.010643e-016
      endloop
   endfacet
   facet normal 0.000000e+000 1.224647e-016 -1.000000e+000
      outer loop
         vertex 5.187234e+000 -5.085105e+000 2.010643e-016
         vertex 1.321828e+001 -1.245242e+001 -7.011712e-016
         vertex 1.296808e+001 -1.271276e+001 -7.330545e-016
      endloop
   endfacet
   facet normal 0.000000e+000 1.224647e-016 -1.000000e+000
      outer loop
         vertex 5.187234e+000 -5.085105e+000 2.010643e-016
         vertex 1.296808e+001 -1.271276e+001 -7.330545e-016
         vertex 5.085105e+000 -5.187234e+000 1.885572e-016
      endloop
   endfacet
   facet normal 0.000000e+000 1.224647e-016 -1.000000e+000
      outer loop
         vertex 5.085105e+000 -5.187234e+000 1.885572e-016
         vertex 1.296808e+001 -1.271276e+001 -7.330545e-016
         vertex 1.271276e+001 -1.296808e+001 -7.643223e-016
      endloop
   endfacet
   facet normal 0.000000e+000 1.224647e-016 -1.000000e+000
      outer loop
         vertex 5.085105e+000 -5.187234e+000 1.885572e-016
         vertex 1.271276e+001 -1.296808e+001 -7.643223e-016
         vertex 4.980967e+000 -5.287312e+000 1.763012e-016
      endloop
   endfacet
   facet normal 0.000000e+000 1.224647e-016 -1.000000e+000
      outer loop
         vertex 4.980967e+000 -5.287312e+000 1.763012e-016
         vertex 1.271276e+001 -1.296808e+001 -7.643223e-016
         vertex 1.245242e+001 -1.321828e+001 -7.949622e-016
      endloop
   endfacet
   facet normal 0.000000e+000 1.224647e-016 -1.000000e+000
      outer loop
         vertex 4.980967e+000 -5.287312e+000 1.763012e-016
         vertex 1.245242e+001 -1.321828e+001 -7.949622e-016
         vertex 4.874859e+000 -5.385299e+000 1.643012e-016
      endloop
   endfacet
   facet normal 0.000000e+000 1.224647e-016 -1.000000e+000
      outer loop
         vertex 4.874859e+000 -5.385299e+000 1.643012e-016
         vertex 1.245242e+001 -1.321828e+001 -7.949622e-016
         vertex 1.218715e+001 -1.346325e+001 -8.249622e-016
      endloop
   endfacet
   facet normal 0.000000e+000 1.224647e-016 -1.000000e+000
      outer loop
         vertex 4.874859e+000 -5.385299e+000 1.643012e-016
         vertex 1.218715e+001 -1.346325e+001 -8.249622e-016
         vertex 4.766824e+000 -5.481157e+000 1.525619e-016
      endloop
   endfacet
   facet normal 0.000000e+000 1.224647e-016 -1.000000e+000
      outer loop
         vertex 4.766824e+000 -5.481157e+000 1.525619e-016
         vertex 1.218715e+001 -1.346325e+001 -8.249622e-016
         vertex 1.191706e+001 -1.370289e+001 -8.543104e-016
      endloop
   endfacet
   facet normal 0.000000e+000 1.224647e-016 -1.000000e+000
      outer loop
         vertex 4.766824e+000 -5.481157e+000 1.525619e-016
         vertex 1.191706e+001 -1.370289e+001 -8.543104e-016
         vertex 4.656904e+000 -5.574849e+000 1.410880e-016
      endloop
   endfacet
   facet normal 0.000000e+000 1.224647e-016 -1.000000e+000
      outer loop
         vertex 4.656904e+000 -5.574849e+000 1.410880e-016
         vertex 1.191706e+001 -1.370289e+001 -8.543104e-016
         vertex 1.164226e+001 -1.393712e+001 -8.829951e-016
      endloop
   endfacet
   facet normal 0.000000e+000 1.224647e-016 -1.000000e+000
      outer loop
         vertex 4.656904e+000 -5.574849e+000 1.410880e-016
         vertex 1.164226e+001 -1.393712e+001 -8.829951e-016
         vertex 4.545143e+000 -5.666337e+000 1.298840e-016
      endloop
   endfacet
   facet normal 0.000000e+000 1.224647e-016 -1.000000e+000
      outer loop
         vertex 4.545143e+000 -5.666337e+000 1.298840e-016
         vertex 1.164226e+001 -1.393712e+001 -8.829951e-016
         vertex 1.136286e+001 -1.416584e+001 -9.110050e-016
      endloop
   endfacet
   facet normal 0.000000e+000 1.224647e-016 -1.000000e+000
      outer loop
         vertex 4.545143e+000 -5.666337e+000 1.298840e-016
         vertex 1.136286e+001 -1.416584e+001 -9.110050e-016
         vertex 4.431586e+000 -5.755584e+000 1.189544e-016
      endloop
   endfacet
   facet normal 0.000000e+000 1.224647e-016 -1.000000e+000
      outer loop
         vertex 4.431586e+000 -5.755584e+000 1.189544e-016
         vertex 1.136286e+001 -1.416584e+001 -9.110050e-016
         vertex 1.107897e+001 -1.438896e+001 -9.383292e-016
      endloop
   endfacet
   facet normal 0.000000e+000 1.224647e-016 -1.000000e+000
      outer loop
         vertex 4.431586e+000 -5.755584e+000 1.189544e-016
         vertex 1.107897e+001 -1.438896e+001 -9.383292e-016
         vertex 4.316277e+000 -5.842556e+000 1.083034e-016
      endloop
   endfacet
   facet normal 0.000000e+000 1.224647e-016 -1.000000e+000
      outer loop
         vertex 4.316277e+000 -5.842556e+000 1.083034e-016
         vertex 1.107897e+001 -1.438896e+001 -9.383292e-016
         vertex 1.079069e+001 -1.460639e+001 -9.649567e-016
      endloop
   endfacet
   facet normal 0.000000e+000 1.224647e-016 -1.000000e+000
      outer loop
         vertex 4.316277e+000 -5.842556e+000 1.083034e-016
         vertex 1.079069e+001 -1.460639e+001 -9.649567e-016
         vertex 4.199260e+000 -5.927217e+000 9.793529e-017
      endloop
   endfacet
   facet normal 0.000000e+000 1.224647e-016 -1.000000e+000
      outer loop
         vertex 4.199260e+000 -5.927217e+000 9.793529e-017
         vertex 1.079069e+001 -1.460639e+001 -9.649567e-016
         vertex 1.049815e+001 -1.481804e+001 -9.908769e-016
      endloop
   endfacet
   facet normal 0.000000e+000 1.224647e-016 -1.000000e+000
      outer loop
         vertex 4.199260e+000 -5.927217e+000 9.793529e-017
         vertex 1.049815e+001 -1.481804e+001 -9.908769e-016
         vertex 4.080584e+000 -6.009536e+000 8.785414e-017
      endloop
   endfacet
   facet normal 0.000000e+000 1.224647e-016 -1.000000e+000
      outer loop
         vertex 4.080584e+000 -6.009536e+000 8.785414e-017
         vertex 1.049815e+001 -1.481804e+001 -9.908769e-016
         vertex 1.020146e+001 -1.502384e+001 -1.016080e-015
      endloop
   endfacet
endsolid