solid symmetry_plane
   facet normal -1.000000e+000 -6.982962e-015 -8.551663e-031
      outer loop
         vertex 5.072424e-014 -7.264000e+000 -6.577333e-017
         vertex 1.268106e-013 -1.816000e+001 -1.400148e-015
         vertex 5.072424e-014 -7.264000e+000 1.000000e+002
      endloop
   endfacet
   facet normal -1.000000e+000 -6.982962e-015 -8.551663e-031
      outer loop
         vertex 5.072424e-014 -7.264000e+000 1.000000e+002
         vertex 1.268106e-013 -1.816000e+001 -1.400148e-015
         vertex 1.268106e-013 -1.816000e+001 1.000000e+003
      endloop
   endfacet
   facet normal -1.000000e+000 -6.982962e-015 -8.551663e-031
      outer loop
         vertex -1.268106e-013 1.816000e+001 1.000000e+003
         vertex -1.268106e-013 1.816000e+001 3.047769e-015
         vertex -5.072424e-014 7.264000e+000 1.000000e+002
      endloop
   endfacet
   facet normal -1.000000e+000 -6.982962e-015 -8.551663e-031
      outer loop
         vertex -5.072424e-014 7.264000e+000 1.000000e+002
         vertex -1.268106e-013 1.816000e+001 3.047769e-015
         vertex -5.072424e-014 7.264000e+000 1.713394e-015
      endloop
   endfacet
   facet normal -1.000000e+000 -6.982962e-015 -8.551663e-031
      outer loop
         vertex 1.268106e-013 -1.816000e+001 1.000000e+003
         vertex -1.268106e-013 1.816000e+001 1.000000e+003
         vertex 5.072424e-014 -7.264000e+000 1.000000e+002
      endloop
   endfacet
   facet normal -1.000000e+000 -6.982962e-015 -8.551663e-031
      outer loop
         vertex 5.072424e-014 -7.264000e+000 1.000000e+002
         vertex -1.268106e-013 1.816000e+001 1.000000e+003
         vertex -5.072424e-014 7.264000e+000 1.000000e+002
      endloop
   endfacet
   facet normal -1.000000e+000 -6.982962e-015 -8.551663e-031
      outer loop
         vertex 5.072424e-014 -7.264000e+000 1.000000e+002
         vertex -5.072424e-014 7.264000e+000 1.000000e+002
         vertex 3.707953e-014 -5.310000e+000 6.000000e+001
      endloop
   endfacet
   facet normal -1.000000e+000 -6.982962e-015 -8.551663e-031
      outer loop
         vertex 3.707953e-014 -5.310000e+000 6.000000e+001
         vertex -5.072424e-014 7.264000e+000 1.000000e+002
         vertex -3.707953e-014 5.310000e+000 6.000000e+001
      endloop
   endfacet
   facet normal -1.000000e+000 -6.982962e-015 -8.551663e-031
      outer loop
         vertex 3.707953e-014 -5.310000e+000 6.000000e+001
         vertex -3.707953e-014 5.310000e+000 6.000000e+001
         vertex 3.707953e-014 -5.310000e+000 -6.502875e-016
      endloop
   endfacet
   facet normal -1.000000e+000 -6.982962e-015 -8.551663e-031
      outer loop
         vertex 3.707953e-014 -5.310000e+000 -6.502875e-016
         vertex -3.707953e-014 5.310000e+000 6.000000e+001
         vertex -3.707953e-014 5.310000e+000 6.502875e-016
      endloop
   endfacet
endsolid