solid water_inlet
   facet normal 0.000000e+000 1.224647e-016 -1.000000e+000
      outer loop
         vertex 1.459123e+000 5.105591e+000 2.235174e-007
         vertex 1.560345e+000 5.075571e+000 2.235174e-007
         vertex 1.055744e-001 -5.308950e+000 2.235174e-007
      endloop
   endfacet
   facet normal 0.000000e+000 1.224647e-016 -1.000000e+000
      outer loop
         vertex 1.055744e-001 -5.308950e+000 2.235174e-007
         vertex 1.560345e+000 5.075571e+000 2.235174e-007
         vertex 1.660950e+000 5.043545e+000 2.235174e-007
      endloop
   endfacet
   facet normal 0.000000e+000 1.224647e-016 -1.000000e+000
      outer loop
         vertex 0.000000e+000 -5.310000e+000 2.235174e-007
         vertex -3.707953e-014 5.310000e+000 2.235174e-007
         vertex 1.055744e-001 -5.308950e+000 2.235174e-007
      endloop
   endfacet
   facet normal 0.000000e+000 1.224647e-016 -1.000000e+000
      outer loop
         vertex 1.055744e-001 -5.308950e+000 2.235174e-007
         vertex -3.707953e-014 5.310000e+000 2.235174e-007
         vertex 1.055744e-001 5.308950e+000 2.235174e-007
      endloop
   endfacet
   facet normal 0.000000e+000 1.224647e-016 -1.000000e+000
      outer loop
         vertex 1.055744e-001 -5.308950e+000 2.235174e-007
         vertex 1.055744e-001 5.308950e+000 2.235174e-007
         vertex 2.111071e-001 5.305802e+000 2.235174e-007
      endloop
   endfacet
   facet normal 0.000000e+000 1.224647e-016 -1.000000e+000
      outer loop
         vertex 2.111071e-001 5.305802e+000 2.235174e-007
         vertex 3.165563e-001 5.300556e+000 2.235174e-007
         vertex 1.055744e-001 -5.308950e+000 2.235174e-007
      endloop
   endfacet
   facet normal 0.000000e+000 1.224647e-016 -1.000000e+000
      outer loop
         vertex 1.055744e-001 -5.308950e+000 2.235174e-007
         vertex 3.165563e-001 5.300556e+000 2.235174e-007
         vertex 4.218804e-001 5.293214e+000 2.235174e-007
      endloop
   endfacet
   facet normal 0.000000e+000 1.224647e-016 -1.000000e+000
      outer loop
         vertex 1.055744e-001 -5.308950e+000 2.235174e-007
         vertex 4.218804e-001 5.293214e+000 2.235174e-007
         vertex 5.270377e-001 5.283780e+000 2.235174e-007
      endloop
   endfacet
   facet normal 0.000000e+000 1.224647e-016 -1.000000e+000
      outer loop
         vertex 5.270377e-001 5.283780e+000 2.235174e-007
         vertex 6.319866e-001 5.272257e+000 2.235174e-007
         vertex 1.055744e-001 -5.308950e+000 2.235174e-007
      endloop
   endfacet
   facet normal 0.000000e+000 1.224647e-016 -1.000000e+000
      outer loop
         vertex 1.055744e-001 -5.308950e+000 2.235174e-007
         vertex 6.319866e-001 5.272257e+000 2.235174e-007
         vertex 7.366857e-001 5.258650e+000 2.235174e-007
      endloop
   endfacet
   facet normal 0.000000e+000 1.224647e-016 -1.000000e+000
      outer loop
         vertex 1.055744e-001 -5.308950e+000 2.235174e-007
         vertex 7.366857e-001 5.258650e+000 2.235174e-007
         vertex 8.410935e-001 5.242963e+000 2.235174e-007
      endloop
   endfacet
   facet normal 0.000000e+000 1.224647e-016 -1.000000e+000
      outer loop
         vertex 1.254989e+000 -5.159564e+000 2.235174e-007
         vertex 1.152157e+000 -5.183496e+000 2.235174e-007
         vertex 2.153340e+000 4.853785e+000 2.235174e-007
      endloop
   endfacet
   facet normal 0.000000e+000 1.224647e-016 -1.000000e+000
      outer loop
         vertex 2.153340e+000 4.853785e+000 2.235174e-007
         vertex 1.152157e+000 -5.183496e+000 2.235174e-007
         vertex 1.048870e+000 -5.205379e+000 2.235174e-007
      endloop
   endfacet
   facet normal 0.000000e+000 1.224647e-016 -1.000000e+000
      outer loop
         vertex 2.153340e+000 4.853785e+000 2.235174e-007
         vertex 1.048870e+000 -5.205379e+000 2.235174e-007
         vertex 9.451689e-001 -5.225204e+000 2.235174e-007
      endloop
   endfacet
   facet normal 0.000000e+000 1.224647e-016 -1.000000e+000
      outer loop
         vertex 1.660950e+000 5.043545e+000 2.235174e-007
         vertex 1.760898e+000 5.009524e+000 2.235174e-007
         vertex 1.055744e-001 -5.308950e+000 2.235174e-007
      endloop
   endfacet
   facet normal 0.000000e+000 1.224647e-016 -1.000000e+000
      outer loop
         vertex 1.055744e-001 -5.308950e+000 2.235174e-007
         vertex 1.760898e+000 5.009524e+000 2.235174e-007
         vertex 1.860151e+000 4.973524e+000 2.235174e-007
      endloop
   endfacet
   facet normal 0.000000e+000 1.224647e-016 -1.000000e+000
      outer loop
         vertex 1.055744e-001 -5.308950e+000 2.235174e-007
         vertex 1.860151e+000 4.973524e+000 2.235174e-007
         vertex 1.958668e+000 4.935557e+000 2.235174e-007
      endloop
   endfacet
   facet normal 0.000000e+000 1.224647e-016 -1.000000e+000
      outer loop
         vertex 9.451689e-001 -5.225204e+000 2.235174e-007
         vertex 8.410935e-001 -5.242963e+000 2.235174e-007
         vertex 2.153340e+000 4.853785e+000 2.235174e-007
      endloop
   endfacet
   facet normal 0.000000e+000 1.224647e-016 -1.000000e+000
      outer loop
         vertex 2.153340e+000 4.853785e+000 2.235174e-007
         vertex 8.410935e-001 -5.242963e+000 2.235174e-007
         vertex 7.366857e-001 -5.258650e+000 2.235174e-007
      endloop
   endfacet
   facet normal 0.000000e+000 1.224647e-016 -1.000000e+000
      outer loop
         vertex 2.153340e+000 4.853785e+000 2.235174e-007
         vertex 7.366857e-001 -5.258650e+000 2.235174e-007
         vertex 6.319866e-001 -5.272257e+000 2.235174e-007
      endloop
   endfacet
   facet normal 0.000000e+000 1.224647e-016 -1.000000e+000
      outer loop
         vertex 8.410935e-001 5.242963e+000 2.235174e-007
         vertex 9.451689e-001 5.225204e+000 2.235174e-007
         vertex 1.055744e-001 -5.308950e+000 2.235174e-007
      endloop
   endfacet
   facet normal 0.000000e+000 1.224647e-016 -1.000000e+000
      outer loop
         vertex 1.055744e-001 -5.308950e+000 2.235174e-007
         vertex 9.451689e-001 5.225204e+000 2.235174e-007
         vertex 1.048870e+000 5.205379e+000 2.235174e-007
      endloop
   endfacet
   facet normal 0.000000e+000 1.224647e-016 -1.000000e+000
      outer loop
         vertex 1.055744e-001 -5.308950e+000 2.235174e-007
         vertex 1.048870e+000 5.205379e+000 2.235174e-007
         vertex 1.152157e+000 5.183496e+000 2.235174e-007
      endloop
   endfacet
   facet normal 0.000000e+000 1.224647e-016 -1.000000e+000
      outer loop
         vertex 6.319866e-001 -5.272257e+000 2.235174e-007
         vertex 5.270377e-001 -5.283780e+000 2.235174e-007
         vertex 2.153340e+000 4.853785e+000 2.235174e-007
      endloop
   endfacet
   facet normal 0.000000e+000 1.224647e-016 -1.000000e+000
      outer loop
         vertex 2.153340e+000 4.853785e+000 2.235174e-007
         vertex 5.270377e-001 -5.283780e+000 2.235174e-007
         vertex 4.218804e-001 -5.293214e+000 2.235174e-007
      endloop
   endfacet
   facet normal 0.000000e+000 1.224647e-016 -1.000000e+000
      outer loop
         vertex 2.153340e+000 4.853785e+000 2.235174e-007
         vertex 4.218804e-001 -5.293214e+000 2.235174e-007
         vertex 3.165563e-001 -5.300556e+000 2.235174e-007
      endloop
   endfacet
   facet normal 0.000000e+000 1.224647e-016 -1.000000e+000
      outer loop
         vertex 1.958668e+000 4.935557e+000 2.235174e-007
         vertex 2.056410e+000 4.895638e+000 2.235174e-007
         vertex 1.055744e-001 -5.308950e+000 2.235174e-007
      endloop
   endfacet
   facet normal 0.000000e+000 1.224647e-016 -1.000000e+000
      outer loop
         vertex 1.055744e-001 -5.308950e+000 2.235174e-007
         vertex 2.056410e+000 4.895638e+000 2.235174e-007
         vertex 2.153340e+000 4.853785e+000 2.235174e-007
      endloop
   endfacet
   facet normal 0.000000e+000 1.224647e-016 -1.000000e+000
      outer loop
         vertex 1.055744e-001 -5.308950e+000 2.235174e-007
         vertex 2.153340e+000 4.853785e+000 2.235174e-007
         vertex 2.111071e-001 -5.305802e+000 2.235174e-007
      endloop
   endfacet
   facet normal 0.000000e+000 1.224647e-016 -1.000000e+000
      outer loop
         vertex 2.111071e-001 -5.305802e+000 2.235174e-007
         vertex 2.153340e+000 4.853785e+000 2.235174e-007
         vertex 3.165563e-001 -5.300556e+000 2.235174e-007
      endloop
   endfacet
   facet normal 0.000000e+000 1.224647e-016 -1.000000e+000
      outer loop
         vertex 1.152157e+000 5.183496e+000 2.235174e-007
         vertex 1.254989e+000 5.159564e+000 2.235174e-007
         vertex 1.055744e-001 -5.308950e+000 2.235174e-007
      endloop
   endfacet
   facet normal 0.000000e+000 1.224647e-016 -1.000000e+000
      outer loop
         vertex 1.055744e-001 -5.308950e+000 2.235174e-007
         vertex 1.254989e+000 5.159564e+000 2.235174e-007
         vertex 1.357324e+000 5.133593e+000 2.235174e-007
      endloop
   endfacet
   facet normal 0.000000e+000 1.224647e-016 -1.000000e+000
      outer loop
         vertex 1.055744e-001 -5.308950e+000 2.235174e-007
         vertex 1.357324e+000 5.133593e+000 2.235174e-007
         vertex 1.459123e+000 5.105591e+000 2.235174e-007
      endloop
   endfacet
   facet normal 0.000000e+000 1.224647e-016 -1.000000e+000
      outer loop
         vertex 2.344607e+000 4.764338e+000 2.235174e-007
         vertex 2.438869e+000 4.716781e+000 2.235174e-007
         vertex 5.133593e+000 1.357324e+000 2.235174e-007
      endloop
   endfacet
   facet normal 0.000000e+000 1.224647e-016 -1.000000e+000
      outer loop
         vertex 5.305802e+000 -2.111071e-001 2.235174e-007
         vertex 5.300556e+000 -3.165563e-001 2.235174e-007
         vertex 2.153340e+000 4.853785e+000 2.235174e-007
      endloop
   endfacet
   facet normal 0.000000e+000 1.224647e-016 -1.000000e+000
      outer loop
         vertex 2.153340e+000 4.853785e+000 2.235174e-007
         vertex 5.300556e+000 -3.165563e-001 2.235174e-007
         vertex 5.293214e+000 -4.218804e-001 2.235174e-007
      endloop
   endfacet
   facet normal 0.000000e+000 1.224647e-016 -1.000000e+000
      outer loop
         vertex 4.973524e+000 -1.860151e+000 2.235174e-007
         vertex 4.935557e+000 -1.958668e+000 2.235174e-007
         vertex 2.153340e+000 4.853785e+000 2.235174e-007
      endloop
   endfacet
   facet normal 0.000000e+000 1.224647e-016 -1.000000e+000
      outer loop
         vertex 2.153340e+000 4.853785e+000 2.235174e-007
         vertex 4.935557e+000 -1.958668e+000 2.235174e-007
         vertex 4.895638e+000 -2.056410e+000 2.235174e-007
      endloop
   endfacet
   facet normal 0.000000e+000 1.224647e-016 -1.000000e+000
      outer loop
         vertex 1.560345e+000 -5.075571e+000 2.235174e-007
         vertex 1.459123e+000 -5.105591e+000 2.235174e-007
         vertex 2.153340e+000 4.853785e+000 2.235174e-007
      endloop
   endfacet
   facet normal 0.000000e+000 1.224647e-016 -1.000000e+000
      outer loop
         vertex 2.153340e+000 4.853785e+000 2.235174e-007
         vertex 1.459123e+000 -5.105591e+000 2.235174e-007
         vertex 1.357324e+000 -5.133593e+000 2.235174e-007
      endloop
   endfacet
   facet normal 0.000000e+000 1.224647e-016 -1.000000e+000
      outer loop
         vertex 2.153340e+000 4.853785e+000 2.235174e-007
         vertex 1.357324e+000 -5.133593e+000 2.235174e-007
         vertex 1.254989e+000 -5.159564e+000 2.235174e-007
      endloop
   endfacet
   facet normal 0.000000e+000 1.224647e-016 -1.000000e+000
      outer loop
         vertex 2.438869e+000 4.716781e+000 2.235174e-007
         vertex 2.532166e+000 4.667358e+000 2.235174e-007
         vertex 5.133593e+000 1.357324e+000 2.235174e-007
      endloop
   endfacet
   facet normal 0.000000e+000 1.224647e-016 -1.000000e+000
      outer loop
         vertex 5.133593e+000 1.357324e+000 2.235174e-007
         vertex 2.532166e+000 4.667358e+000 2.235174e-007
         vertex 2.624463e+000 4.616091e+000 2.235174e-007
      endloop
   endfacet
   facet normal 0.000000e+000 1.224647e-016 -1.000000e+000
      outer loop
         vertex 5.133593e+000 1.357324e+000 2.235174e-007
         vertex 2.624463e+000 4.616091e+000 2.235174e-007
         vertex 2.715722e+000 4.562998e+000 2.235174e-007
      endloop
   endfacet
   facet normal 0.000000e+000 1.224647e-016 -1.000000e+000
      outer loop
         vertex 2.715722e+000 4.562998e+000 2.235174e-007
         vertex 2.805908e+000 4.508102e+000 2.235174e-007
         vertex 5.133593e+000 1.357324e+000 2.235174e-007
      endloop
   endfacet
   facet normal 0.000000e+000 1.224647e-016 -1.000000e+000
      outer loop
         vertex 5.133593e+000 1.357324e+000 2.235174e-007
         vertex 2.805908e+000 4.508102e+000 2.235174e-007
         vertex 2.894984e+000 4.451423e+000 2.235174e-007
      endloop
   endfacet
   facet normal 0.000000e+000 1.224647e-016 -1.000000e+000
      outer loop
         vertex 5.133593e+000 1.357324e+000 2.235174e-007
         vertex 2.894984e+000 4.451423e+000 2.235174e-007
         vertex 5.105591e+000 1.459123e+000 2.235174e-007
      endloop
   endfacet
   facet normal 0.000000e+000 1.224647e-016 -1.000000e+000
      outer loop
         vertex 3.069669e+000 4.332809e+000 2.235174e-007
         vertex 3.155207e+000 4.270921e+000 2.235174e-007
         vertex 4.075227e+000 3.404207e+000 2.235174e-007
      endloop
   endfacet
   facet normal 0.000000e+000 1.224647e-016 -1.000000e+000
      outer loop
         vertex 5.300556e+000 3.165563e-001 2.235174e-007
         vertex 5.305802e+000 2.111071e-001 2.235174e-007
         vertex 2.153340e+000 4.853785e+000 2.235174e-007
      endloop
   endfacet
   facet normal 0.000000e+000 1.224647e-016 -1.000000e+000
      outer loop
         vertex 2.153340e+000 4.853785e+000 2.235174e-007
         vertex 5.305802e+000 2.111071e-001 2.235174e-007
         vertex 5.308950e+000 1.055744e-001 2.235174e-007
      endloop
   endfacet
   facet normal 0.000000e+000 1.224647e-016 -1.000000e+000
      outer loop
         vertex 5.225204e+000 -9.451689e-001 2.235174e-007
         vertex 2.153340e+000 4.853785e+000 2.235174e-007
         vertex 5.242963e+000 -8.410935e-001 2.235174e-007
      endloop
   endfacet
   facet normal 0.000000e+000 1.224647e-016 -1.000000e+000
      outer loop
         vertex 5.242963e+000 -8.410935e-001 2.235174e-007
         vertex 2.153340e+000 4.853785e+000 2.235174e-007
         vertex 5.258650e+000 -7.366857e-001 2.235174e-007
      endloop
   endfacet
   facet normal 0.000000e+000 1.224647e-016 -1.000000e+000
      outer loop
         vertex 3.069669e+000 4.332809e+000 2.235174e-007
         vertex 4.075227e+000 3.404207e+000 2.235174e-007
         vertex 2.982916e+000 4.392984e+000 2.235174e-007
      endloop
   endfacet
   facet normal 0.000000e+000 1.224647e-016 -1.000000e+000
      outer loop
         vertex 4.508102e+000 2.805908e+000 2.235174e-007
         vertex 4.562998e+000 2.715722e+000 2.235174e-007
         vertex 2.894984e+000 4.451423e+000 2.235174e-007
      endloop
   endfacet
   facet normal 0.000000e+000 1.224647e-016 -1.000000e+000
      outer loop
         vertex 2.894984e+000 4.451423e+000 2.235174e-007
         vertex 4.562998e+000 2.715722e+000 2.235174e-007
         vertex 4.616091e+000 2.624463e+000 2.235174e-007
      endloop
   endfacet
   facet normal 0.000000e+000 1.224647e-016 -1.000000e+000
      outer loop
         vertex 5.159564e+000 1.254989e+000 2.235174e-007
         vertex 2.153340e+000 4.853785e+000 2.235174e-007
         vertex 5.133593e+000 1.357324e+000 2.235174e-007
      endloop
   endfacet
   facet normal 0.000000e+000 1.224647e-016 -1.000000e+000
      outer loop
         vertex 5.133593e+000 1.357324e+000 2.235174e-007
         vertex 2.153340e+000 4.853785e+000 2.235174e-007
         vertex 2.249418e+000 4.810012e+000 2.235174e-007
      endloop
   endfacet
   facet normal 0.000000e+000 1.224647e-016 -1.000000e+000
      outer loop
         vertex 5.133593e+000 1.357324e+000 2.235174e-007
         vertex 2.249418e+000 4.810012e+000 2.235174e-007
         vertex 2.344607e+000 4.764338e+000 2.235174e-007
      endloop
   endfacet
   facet normal 0.000000e+000 1.224647e-016 -1.000000e+000
      outer loop
         vertex 5.159564e+000 1.254989e+000 2.235174e-007
         vertex 5.183496e+000 1.152157e+000 2.235174e-007
         vertex 2.153340e+000 4.853785e+000 2.235174e-007
      endloop
   endfacet
   facet normal 0.000000e+000 1.224647e-016 -1.000000e+000
      outer loop
         vertex 2.153340e+000 4.853785e+000 2.235174e-007
         vertex 5.183496e+000 1.152157e+000 2.235174e-007
         vertex 5.205379e+000 1.048870e+000 2.235174e-007
      endloop
   endfacet
   facet normal 0.000000e+000 1.224647e-016 -1.000000e+000
      outer loop
         vertex 2.153340e+000 4.853785e+000 2.235174e-007
         vertex 5.205379e+000 1.048870e+000 2.235174e-007
         vertex 5.225204e+000 9.451689e-001 2.235174e-007
      endloop
   endfacet
   facet normal 0.000000e+000 1.224647e-016 -1.000000e+000
      outer loop
         vertex 5.225204e+000 9.451689e-001 2.235174e-007
         vertex 5.242963e+000 8.410935e-001 2.235174e-007
         vertex 2.153340e+000 4.853785e+000 2.235174e-007
      endloop
   endfacet
   facet normal 0.000000e+000 1.224647e-016 -1.000000e+000
      outer loop
         vertex 2.153340e+000 4.853785e+000 2.235174e-007
         vertex 5.242963e+000 8.410935e-001 2.235174e-007
         vertex 5.258650e+000 7.366857e-001 2.235174e-007
      endloop
   endfacet
   facet normal 0.000000e+000 1.224647e-016 -1.000000e+000
      outer loop
         vertex 2.153340e+000 4.853785e+000 2.235174e-007
         vertex 5.258650e+000 7.366857e-001 2.235174e-007
         vertex 5.272257e+000 6.319866e-001 2.235174e-007
      endloop
   endfacet
   facet normal 0.000000e+000 1.224647e-016 -1.000000e+000
      outer loop
         vertex 5.308950e+000 1.055744e-001 2.235174e-007
         vertex 5.310000e+000 1.988691e-014 2.235174e-007
         vertex 2.153340e+000 4.853785e+000 2.235174e-007
      endloop
   endfacet
   facet normal 0.000000e+000 1.224647e-016 -1.000000e+000
      outer loop
         vertex 2.153340e+000 4.853785e+000 2.235174e-007
         vertex 5.310000e+000 1.988691e-014 2.235174e-007
         vertex 5.308950e+000 -1.055744e-001 2.235174e-007
      endloop
   endfacet
   facet normal 0.000000e+000 1.224647e-016 -1.000000e+000
      outer loop
         vertex 2.153340e+000 4.853785e+000 2.235174e-007
         vertex 5.308950e+000 -1.055744e-001 2.235174e-007
         vertex 5.305802e+000 -2.111071e-001 2.235174e-007
      endloop
   endfacet
   facet normal 0.000000e+000 1.224647e-016 -1.000000e+000
      outer loop
         vertex 5.293214e+000 -4.218804e-001 2.235174e-007
         vertex 5.283780e+000 -5.270377e-001 2.235174e-007
         vertex 2.153340e+000 4.853785e+000 2.235174e-007
      endloop
   endfacet
   facet normal 0.000000e+000 1.224647e-016 -1.000000e+000
      outer loop
         vertex 2.153340e+000 4.853785e+000 2.235174e-007
         vertex 5.283780e+000 -5.270377e-001 2.235174e-007
         vertex 5.272257e+000 -6.319866e-001 2.235174e-007
      endloop
   endfacet
   facet normal 0.000000e+000 1.224647e-016 -1.000000e+000
      outer loop
         vertex 2.153340e+000 4.853785e+000 2.235174e-007
         vertex 5.272257e+000 -6.319866e-001 2.235174e-007
         vertex 5.258650e+000 -7.366857e-001 2.235174e-007
      endloop
   endfacet
   facet normal 0.000000e+000 1.224647e-016 -1.000000e+000
      outer loop
         vertex 5.225204e+000 -9.451689e-001 2.235174e-007
         vertex 5.205379e+000 -1.048870e+000 2.235174e-007
         vertex 2.153340e+000 4.853785e+000 2.235174e-007
      endloop
   endfacet
   facet normal 0.000000e+000 1.224647e-016 -1.000000e+000
      outer loop
         vertex 2.153340e+000 4.853785e+000 2.235174e-007
         vertex 5.205379e+000 -1.048870e+000 2.235174e-007
         vertex 5.183496e+000 -1.152157e+000 2.235174e-007
      endloop
   endfacet
   facet normal 0.000000e+000 1.224647e-016 -1.000000e+000
      outer loop
         vertex 2.153340e+000 4.853785e+000 2.235174e-007
         vertex 5.183496e+000 -1.152157e+000 2.235174e-007
         vertex 5.159564e+000 -1.254989e+000 2.235174e-007
      endloop
   endfacet
   facet normal 0.000000e+000 1.224647e-016 -1.000000e+000
      outer loop
         vertex 5.159564e+000 -1.254989e+000 2.235174e-007
         vertex 5.133593e+000 -1.357324e+000 2.235174e-007
         vertex 2.153340e+000 4.853785e+000 2.235174e-007
      endloop
   endfacet
   facet normal 0.000000e+000 1.224647e-016 -1.000000e+000
      outer loop
         vertex 2.153340e+000 4.853785e+000 2.235174e-007
         vertex 5.133593e+000 -1.357324e+000 2.235174e-007
         vertex 5.105591e+000 -1.459123e+000 2.235174e-007
      endloop
   endfacet
   facet normal 0.000000e+000 1.224647e-016 -1.000000e+000
      outer loop
         vertex 2.153340e+000 4.853785e+000 2.235174e-007
         vertex 5.105591e+000 -1.459123e+000 2.235174e-007
         vertex 5.075571e+000 -1.560345e+000 2.235174e-007
      endloop
   endfacet
   facet normal 0.000000e+000 1.224647e-016 -1.000000e+000
      outer loop
         vertex 5.075571e+000 -1.560345e+000 2.235174e-007
         vertex 5.043545e+000 -1.660950e+000 2.235174e-007
         vertex 2.153340e+000 4.853785e+000 2.235174e-007
      endloop
   endfacet
   facet normal 0.000000e+000 1.224647e-016 -1.000000e+000
      outer loop
         vertex 2.153340e+000 4.853785e+000 2.235174e-007
         vertex 5.043545e+000 -1.660950e+000 2.235174e-007
         vertex 5.009524e+000 -1.760898e+000 2.235174e-007
      endloop
   endfacet
   facet normal 0.000000e+000 1.224647e-016 -1.000000e+000
      outer loop
         vertex 2.153340e+000 4.853785e+000 2.235174e-007
         vertex 5.009524e+000 -1.760898e+000 2.235174e-007
         vertex 4.973524e+000 -1.860151e+000 2.235174e-007
      endloop
   endfacet
   facet normal 0.000000e+000 1.224647e-016 -1.000000e+000
      outer loop
         vertex 4.895638e+000 -2.056410e+000 2.235174e-007
         vertex 4.853785e+000 -2.153340e+000 2.235174e-007
         vertex 2.153340e+000 4.853785e+000 2.235174e-007
      endloop
   endfacet
   facet normal 0.000000e+000 1.224647e-016 -1.000000e+000
      outer loop
         vertex 2.153340e+000 4.853785e+000 2.235174e-007
         vertex 4.853785e+000 -2.153340e+000 2.235174e-007
         vertex 4.810012e+000 -2.249418e+000 2.235174e-007
      endloop
   endfacet
   facet normal 0.000000e+000 1.224647e-016 -1.000000e+000
      outer loop
         vertex 2.153340e+000 4.853785e+000 2.235174e-007
         vertex 4.810012e+000 -2.249418e+000 2.235174e-007
         vertex 4.764338e+000 -2.344607e+000 2.235174e-007
      endloop
   endfacet
   facet normal 0.000000e+000 1.224647e-016 -1.000000e+000
      outer loop
         vertex 4.764338e+000 -2.344607e+000 2.235174e-007
         vertex 4.716781e+000 -2.438869e+000 2.235174e-007
         vertex 2.153340e+000 4.853785e+000 2.235174e-007
      endloop
   endfacet
   facet normal 0.000000e+000 1.224647e-016 -1.000000e+000
      outer loop
         vertex 2.153340e+000 4.853785e+000 2.235174e-007
         vertex 4.716781e+000 -2.438869e+000 2.235174e-007
         vertex 4.667358e+000 -2.532166e+000 2.235174e-007
      endloop
   endfacet
   facet normal 0.000000e+000 1.224647e-016 -1.000000e+000
      outer loop
         vertex 2.153340e+000 4.853785e+000 2.235174e-007
         vertex 4.667358e+000 -2.532166e+000 2.235174e-007
         vertex 4.616091e+000 -2.624463e+000 2.235174e-007
      endloop
   endfacet
   facet normal 0.000000e+000 1.224647e-016 -1.000000e+000
      outer loop
         vertex 4.616091e+000 -2.624463e+000 2.235174e-007
         vertex 4.562998e+000 -2.715722e+000 2.235174e-007
         vertex 2.153340e+000 4.853785e+000 2.235174e-007
      endloop
   endfacet
   facet normal 0.000000e+000 1.224647e-016 -1.000000e+000
      outer loop
         vertex 2.153340e+000 4.853785e+000 2.235174e-007
         vertex 4.562998e+000 -2.715722e+000 2.235174e-007
         vertex 4.508102e+000 -2.805908e+000 2.235174e-007
      endloop
   endfacet
   facet normal 0.000000e+000 1.224647e-016 -1.000000e+000
      outer loop
         vertex 2.153340e+000 4.853785e+000 2.235174e-007
         vertex 4.508102e+000 -2.805908e+000 2.235174e-007
         vertex 4.451423e+000 -2.894984e+000 2.235174e-007
      endloop
   endfacet
   facet normal 0.000000e+000 1.224647e-016 -1.000000e+000
      outer loop
         vertex 3.717223e+000 -3.791879e+000 2.235174e-007
         vertex 3.641098e+000 -3.865036e+000 2.235174e-007
         vertex 2.153340e+000 4.853785e+000 2.235174e-007
      endloop
   endfacet
   facet normal 0.000000e+000 1.224647e-016 -1.000000e+000
      outer loop
         vertex 4.270921e+000 3.155207e+000 2.235174e-007
         vertex 4.332809e+000 3.069669e+000 2.235174e-007
         vertex 2.894984e+000 4.451423e+000 2.235174e-007
      endloop
   endfacet
   facet normal 0.000000e+000 1.224647e-016 -1.000000e+000
      outer loop
         vertex 4.616091e+000 2.624463e+000 2.235174e-007
         vertex 4.667358e+000 2.532166e+000 2.235174e-007
         vertex 2.894984e+000 4.451423e+000 2.235174e-007
      endloop
   endfacet
   facet normal 0.000000e+000 1.224647e-016 -1.000000e+000
      outer loop
         vertex 2.894984e+000 4.451423e+000 2.235174e-007
         vertex 4.667358e+000 2.532166e+000 2.235174e-007
         vertex 4.716781e+000 2.438869e+000 2.235174e-007
      endloop
   endfacet
   facet normal 0.000000e+000 1.224647e-016 -1.000000e+000
      outer loop
         vertex 2.894984e+000 4.451423e+000 2.235174e-007
         vertex 4.716781e+000 2.438869e+000 2.235174e-007
         vertex 4.764338e+000 2.344607e+000 2.235174e-007
      endloop
   endfacet
   facet normal 0.000000e+000 1.224647e-016 -1.000000e+000
      outer loop
         vertex 4.764338e+000 2.344607e+000 2.235174e-007
         vertex 4.810012e+000 2.249418e+000 2.235174e-007
         vertex 2.894984e+000 4.451423e+000 2.235174e-007
      endloop
   endfacet
   facet normal 0.000000e+000 1.224647e-016 -1.000000e+000
      outer loop
         vertex 2.894984e+000 4.451423e+000 2.235174e-007
         vertex 4.810012e+000 2.249418e+000 2.235174e-007
         vertex 4.853785e+000 2.153340e+000 2.235174e-007
      endloop
   endfacet
   facet normal 0.000000e+000 1.224647e-016 -1.000000e+000
      outer loop
         vertex 2.894984e+000 4.451423e+000 2.235174e-007
         vertex 4.853785e+000 2.153340e+000 2.235174e-007
         vertex 4.895638e+000 2.056410e+000 2.235174e-007
      endloop
   endfacet
   facet normal 0.000000e+000 1.224647e-016 -1.000000e+000
      outer loop
         vertex 5.272257e+000 6.319866e-001 2.235174e-007
         vertex 5.283780e+000 5.270377e-001 2.235174e-007
         vertex 2.153340e+000 4.853785e+000 2.235174e-007
      endloop
   endfacet
   facet normal 0.000000e+000 1.224647e-016 -1.000000e+000
      outer loop
         vertex 2.153340e+000 4.853785e+000 2.235174e-007
         vertex 5.283780e+000 5.270377e-001 2.235174e-007
         vertex 5.293214e+000 4.218804e-001 2.235174e-007
      endloop
   endfacet
   facet normal 0.000000e+000 1.224647e-016 -1.000000e+000
      outer loop
         vertex 2.153340e+000 4.853785e+000 2.235174e-007
         vertex 5.293214e+000 4.218804e-001 2.235174e-007
         vertex 5.300556e+000 3.165563e-001 2.235174e-007
      endloop
   endfacet
   facet normal 0.000000e+000 1.224647e-016 -1.000000e+000
      outer loop
         vertex 4.075227e+000 -3.404207e+000 2.235174e-007
         vertex 4.006738e+000 -3.484559e+000 2.235174e-007
         vertex 2.153340e+000 4.853785e+000 2.235174e-007
      endloop
   endfacet
   facet normal 0.000000e+000 1.224647e-016 -1.000000e+000
      outer loop
         vertex 2.153340e+000 4.853785e+000 2.235174e-007
         vertex 4.006738e+000 -3.484559e+000 2.235174e-007
         vertex 3.936666e+000 -3.563533e+000 2.235174e-007
      endloop
   endfacet
   facet normal 0.000000e+000 1.224647e-016 -1.000000e+000
      outer loop
         vertex 3.239499e+000 -4.207344e+000 2.235174e-007
         vertex 2.153340e+000 4.853785e+000 2.235174e-007
         vertex 3.322510e+000 -4.142104e+000 2.235174e-007
      endloop
   endfacet
   facet normal 0.000000e+000 1.224647e-016 -1.000000e+000
      outer loop
         vertex 3.322510e+000 -4.142104e+000 2.235174e-007
         vertex 2.153340e+000 4.853785e+000 2.235174e-007
         vertex 3.404207e+000 -4.075227e+000 2.235174e-007
      endloop
   endfacet
   facet normal 0.000000e+000 1.224647e-016 -1.000000e+000
      outer loop
         vertex 2.715722e+000 -4.562998e+000 2.235174e-007
         vertex 2.624463e+000 -4.616091e+000 2.235174e-007
         vertex 2.153340e+000 4.853785e+000 2.235174e-007
      endloop
   endfacet
   facet normal 0.000000e+000 1.224647e-016 -1.000000e+000
      outer loop
         vertex 2.153340e+000 4.853785e+000 2.235174e-007
         vertex 2.624463e+000 -4.616091e+000 2.235174e-007
         vertex 2.532166e+000 -4.667358e+000 2.235174e-007
      endloop
   endfacet
   facet normal 0.000000e+000 1.224647e-016 -1.000000e+000
      outer loop
         vertex 2.153340e+000 4.853785e+000 2.235174e-007
         vertex 2.532166e+000 -4.667358e+000 2.235174e-007
         vertex 2.438869e+000 -4.716781e+000 2.235174e-007
      endloop
   endfacet
   facet normal 0.000000e+000 1.224647e-016 -1.000000e+000
      outer loop
         vertex 3.791879e+000 3.717223e+000 2.235174e-007
         vertex 3.865036e+000 3.641098e+000 2.235174e-007
         vertex 3.936666e+000 3.563533e+000 2.235174e-007
      endloop
   endfacet
   facet normal 0.000000e+000 1.224647e-016 -1.000000e+000
      outer loop
         vertex 4.270921e+000 3.155207e+000 2.235174e-007
         vertex 2.894984e+000 4.451423e+000 2.235174e-007
         vertex 4.207344e+000 3.239499e+000 2.235174e-007
      endloop
   endfacet
   facet normal 0.000000e+000 1.224647e-016 -1.000000e+000
      outer loop
         vertex 4.332809e+000 3.069669e+000 2.235174e-007
         vertex 4.392984e+000 2.982916e+000 2.235174e-007
         vertex 2.894984e+000 4.451423e+000 2.235174e-007
      endloop
   endfacet
   facet normal 0.000000e+000 1.224647e-016 -1.000000e+000
      outer loop
         vertex 2.894984e+000 4.451423e+000 2.235174e-007
         vertex 4.392984e+000 2.982916e+000 2.235174e-007
         vertex 4.451423e+000 2.894984e+000 2.235174e-007
      endloop
   endfacet
   facet normal 0.000000e+000 1.224647e-016 -1.000000e+000
      outer loop
         vertex 2.894984e+000 4.451423e+000 2.235174e-007
         vertex 4.451423e+000 2.894984e+000 2.235174e-007
         vertex 4.508102e+000 2.805908e+000 2.235174e-007
      endloop
   endfacet
   facet normal 0.000000e+000 1.224647e-016 -1.000000e+000
      outer loop
         vertex 4.895638e+000 2.056410e+000 2.235174e-007
         vertex 4.935557e+000 1.958668e+000 2.235174e-007
         vertex 2.894984e+000 4.451423e+000 2.235174e-007
      endloop
   endfacet
   facet normal 0.000000e+000 1.224647e-016 -1.000000e+000
      outer loop
         vertex 2.894984e+000 4.451423e+000 2.235174e-007
         vertex 4.935557e+000 1.958668e+000 2.235174e-007
         vertex 4.973524e+000 1.860151e+000 2.235174e-007
      endloop
   endfacet
   facet normal 0.000000e+000 1.224647e-016 -1.000000e+000
      outer loop
         vertex 2.894984e+000 4.451423e+000 2.235174e-007
         vertex 4.973524e+000 1.860151e+000 2.235174e-007
         vertex 5.009524e+000 1.760898e+000 2.235174e-007
      endloop
   endfacet
   facet normal 0.000000e+000 1.224647e-016 -1.000000e+000
      outer loop
         vertex 4.451423e+000 -2.894984e+000 2.235174e-007
         vertex 4.392984e+000 -2.982916e+000 2.235174e-007
         vertex 2.153340e+000 4.853785e+000 2.235174e-007
      endloop
   endfacet
   facet normal 0.000000e+000 1.224647e-016 -1.000000e+000
      outer loop
         vertex 2.153340e+000 4.853785e+000 2.235174e-007
         vertex 4.392984e+000 -2.982916e+000 2.235174e-007
         vertex 4.332809e+000 -3.069669e+000 2.235174e-007
      endloop
   endfacet
   facet normal 0.000000e+000 1.224647e-016 -1.000000e+000
      outer loop
         vertex 2.153340e+000 4.853785e+000 2.235174e-007
         vertex 4.332809e+000 -3.069669e+000 2.235174e-007
         vertex 4.270921e+000 -3.155207e+000 2.235174e-007
      endloop
   endfacet
   facet normal 0.000000e+000 1.224647e-016 -1.000000e+000
      outer loop
         vertex 3.936666e+000 -3.563533e+000 2.235174e-007
         vertex 3.865036e+000 -3.641098e+000 2.235174e-007
         vertex 2.153340e+000 4.853785e+000 2.235174e-007
      endloop
   endfacet
   facet normal 0.000000e+000 1.224647e-016 -1.000000e+000
      outer loop
         vertex 2.153340e+000 4.853785e+000 2.235174e-007
         vertex 3.865036e+000 -3.641098e+000 2.235174e-007
         vertex 3.791879e+000 -3.717223e+000 2.235174e-007
      endloop
   endfacet
   facet normal 0.000000e+000 1.224647e-016 -1.000000e+000
      outer loop
         vertex 2.153340e+000 4.853785e+000 2.235174e-007
         vertex 3.791879e+000 -3.717223e+000 2.235174e-007
         vertex 3.717223e+000 -3.791879e+000 2.235174e-007
      endloop
   endfacet
   facet normal 0.000000e+000 1.224647e-016 -1.000000e+000
      outer loop
         vertex 3.641098e+000 -3.865036e+000 2.235174e-007
         vertex 3.563533e+000 -3.936666e+000 2.235174e-007
         vertex 2.153340e+000 4.853785e+000 2.235174e-007
      endloop
   endfacet
   facet normal 0.000000e+000 1.224647e-016 -1.000000e+000
      outer loop
         vertex 2.153340e+000 4.853785e+000 2.235174e-007
         vertex 3.563533e+000 -3.936666e+000 2.235174e-007
         vertex 3.484559e+000 -4.006738e+000 2.235174e-007
      endloop
   endfacet
   facet normal 0.000000e+000 1.224647e-016 -1.000000e+000
      outer loop
         vertex 2.153340e+000 4.853785e+000 2.235174e-007
         vertex 3.484559e+000 -4.006738e+000 2.235174e-007
         vertex 3.404207e+000 -4.075227e+000 2.235174e-007
      endloop
   endfacet
   facet normal 0.000000e+000 1.224647e-016 -1.000000e+000
      outer loop
         vertex 2.153340e+000 -4.853785e+000 2.235174e-007
         vertex 2.056410e+000 -4.895638e+000 2.235174e-007
         vertex 2.153340e+000 4.853785e+000 2.235174e-007
      endloop
   endfacet
   facet normal 0.000000e+000 1.224647e-016 -1.000000e+000
      outer loop
         vertex 2.153340e+000 4.853785e+000 2.235174e-007
         vertex 2.056410e+000 -4.895638e+000 2.235174e-007
         vertex 1.958668e+000 -4.935557e+000 2.235174e-007
      endloop
   endfacet
   facet normal 0.000000e+000 1.224647e-016 -1.000000e+000
      outer loop
         vertex 2.153340e+000 4.853785e+000 2.235174e-007
         vertex 1.958668e+000 -4.935557e+000 2.235174e-007
         vertex 1.860151e+000 -4.973524e+000 2.235174e-007
      endloop
   endfacet
   facet normal 0.000000e+000 1.224647e-016 -1.000000e+000
      outer loop
         vertex 3.155207e+000 4.270921e+000 2.235174e-007
         vertex 3.239499e+000 4.207344e+000 2.235174e-007
         vertex 4.075227e+000 3.404207e+000 2.235174e-007
      endloop
   endfacet
   facet normal 0.000000e+000 1.224647e-016 -1.000000e+000
      outer loop
         vertex 4.075227e+000 3.404207e+000 2.235174e-007
         vertex 3.239499e+000 4.207344e+000 2.235174e-007
         vertex 3.322510e+000 4.142104e+000 2.235174e-007
      endloop
   endfacet
   facet normal 0.000000e+000 1.224647e-016 -1.000000e+000
      outer loop
         vertex 4.075227e+000 3.404207e+000 2.235174e-007
         vertex 3.322510e+000 4.142104e+000 2.235174e-007
         vertex 3.404207e+000 4.075227e+000 2.235174e-007
      endloop
   endfacet
   facet normal 0.000000e+000 1.224647e-016 -1.000000e+000
      outer loop
         vertex 3.404207e+000 4.075227e+000 2.235174e-007
         vertex 3.484559e+000 4.006738e+000 2.235174e-007
         vertex 4.075227e+000 3.404207e+000 2.235174e-007
      endloop
   endfacet
   facet normal 0.000000e+000 1.224647e-016 -1.000000e+000
      outer loop
         vertex 4.075227e+000 3.404207e+000 2.235174e-007
         vertex 3.484559e+000 4.006738e+000 2.235174e-007
         vertex 3.563533e+000 3.936666e+000 2.235174e-007
      endloop
   endfacet
   facet normal 0.000000e+000 1.224647e-016 -1.000000e+000
      outer loop
         vertex 4.075227e+000 3.404207e+000 2.235174e-007
         vertex 3.563533e+000 3.936666e+000 2.235174e-007
         vertex 3.641098e+000 3.865036e+000 2.235174e-007
      endloop
   endfacet
   facet normal 0.000000e+000 1.224647e-016 -1.000000e+000
      outer loop
         vertex 3.641098e+000 3.865036e+000 2.235174e-007
         vertex 3.717223e+000 3.791879e+000 2.235174e-007
         vertex 4.075227e+000 3.404207e+000 2.235174e-007
      endloop
   endfacet
   facet normal 0.000000e+000 1.224647e-016 -1.000000e+000
      outer loop
         vertex 4.075227e+000 3.404207e+000 2.235174e-007
         vertex 3.717223e+000 3.791879e+000 2.235174e-007
         vertex 3.791879e+000 3.717223e+000 2.235174e-007
      endloop
   endfacet
   facet normal 0.000000e+000 1.224647e-016 -1.000000e+000
      outer loop
         vertex 4.075227e+000 3.404207e+000 2.235174e-007
         vertex 3.791879e+000 3.717223e+000 2.235174e-007
         vertex 4.006738e+000 3.484559e+000 2.235174e-007
      endloop
   endfacet
   facet normal 0.000000e+000 1.224647e-016 -1.000000e+000
      outer loop
         vertex 4.006738e+000 3.484559e+000 2.235174e-007
         vertex 3.791879e+000 3.717223e+000 2.235174e-007
         vertex 3.936666e+000 3.563533e+000 2.235174e-007
      endloop
   endfacet
   facet normal 0.000000e+000 1.224647e-016 -1.000000e+000
      outer loop
         vertex 2.982916e+000 4.392984e+000 2.235174e-007
         vertex 4.075227e+000 3.404207e+000 2.235174e-007
         vertex 2.894984e+000 4.451423e+000 2.235174e-007
      endloop
   endfacet
   facet normal 0.000000e+000 1.224647e-016 -1.000000e+000
      outer loop
         vertex 2.894984e+000 4.451423e+000 2.235174e-007
         vertex 4.075227e+000 3.404207e+000 2.235174e-007
         vertex 4.142104e+000 3.322510e+000 2.235174e-007
      endloop
   endfacet
   facet normal 0.000000e+000 1.224647e-016 -1.000000e+000
      outer loop
         vertex 2.894984e+000 4.451423e+000 2.235174e-007
         vertex 4.142104e+000 3.322510e+000 2.235174e-007
         vertex 4.207344e+000 3.239499e+000 2.235174e-007
      endloop
   endfacet
   facet normal 0.000000e+000 1.224647e-016 -1.000000e+000
      outer loop
         vertex 5.009524e+000 1.760898e+000 2.235174e-007
         vertex 5.043545e+000 1.660950e+000 2.235174e-007
         vertex 2.894984e+000 4.451423e+000 2.235174e-007
      endloop
   endfacet
   facet normal 0.000000e+000 1.224647e-016 -1.000000e+000
      outer loop
         vertex 2.894984e+000 4.451423e+000 2.235174e-007
         vertex 5.043545e+000 1.660950e+000 2.235174e-007
         vertex 5.075571e+000 1.560345e+000 2.235174e-007
      endloop
   endfacet
   facet normal 0.000000e+000 1.224647e-016 -1.000000e+000
      outer loop
         vertex 2.894984e+000 4.451423e+000 2.235174e-007
         vertex 5.075571e+000 1.560345e+000 2.235174e-007
         vertex 5.105591e+000 1.459123e+000 2.235174e-007
      endloop
   endfacet
   facet normal 0.000000e+000 1.224647e-016 -1.000000e+000
      outer loop
         vertex 4.270921e+000 -3.155207e+000 2.235174e-007
         vertex 4.207344e+000 -3.239499e+000 2.235174e-007
         vertex 2.153340e+000 4.853785e+000 2.235174e-007
      endloop
   endfacet
   facet normal 0.000000e+000 1.224647e-016 -1.000000e+000
      outer loop
         vertex 2.153340e+000 4.853785e+000 2.235174e-007
         vertex 4.207344e+000 -3.239499e+000 2.235174e-007
         vertex 4.142104e+000 -3.322510e+000 2.235174e-007
      endloop
   endfacet
   facet normal 0.000000e+000 1.224647e-016 -1.000000e+000
      outer loop
         vertex 2.153340e+000 4.853785e+000 2.235174e-007
         vertex 4.142104e+000 -3.322510e+000 2.235174e-007
         vertex 4.075227e+000 -3.404207e+000 2.235174e-007
      endloop
   endfacet
   facet normal 0.000000e+000 1.224647e-016 -1.000000e+000
      outer loop
         vertex 3.239499e+000 -4.207344e+000 2.235174e-007
         vertex 3.155207e+000 -4.270921e+000 2.235174e-007
         vertex 2.153340e+000 4.853785e+000 2.235174e-007
      endloop
   endfacet
   facet normal 0.000000e+000 1.224647e-016 -1.000000e+000
      outer loop
         vertex 2.153340e+000 4.853785e+000 2.235174e-007
         vertex 3.155207e+000 -4.270921e+000 2.235174e-007
         vertex 3.069669e+000 -4.332809e+000 2.235174e-007
      endloop
   endfacet
   facet normal 0.000000e+000 1.224647e-016 -1.000000e+000
      outer loop
         vertex 2.153340e+000 4.853785e+000 2.235174e-007
         vertex 3.069669e+000 -4.332809e+000 2.235174e-007
         vertex 2.982916e+000 -4.392984e+000 2.235174e-007
      endloop
   endfacet
   facet normal 0.000000e+000 1.224647e-016 -1.000000e+000
      outer loop
         vertex 2.982916e+000 -4.392984e+000 2.235174e-007
         vertex 2.894984e+000 -4.451423e+000 2.235174e-007
         vertex 2.153340e+000 4.853785e+000 2.235174e-007
      endloop
   endfacet
   facet normal 0.000000e+000 1.224647e-016 -1.000000e+000
      outer loop
         vertex 2.153340e+000 4.853785e+000 2.235174e-007
         vertex 2.894984e+000 -4.451423e+000 2.235174e-007
         vertex 2.805908e+000 -4.508102e+000 2.235174e-007
      endloop
   endfacet
   facet normal 0.000000e+000 1.224647e-016 -1.000000e+000
      outer loop
         vertex 2.153340e+000 4.853785e+000 2.235174e-007
         vertex 2.805908e+000 -4.508102e+000 2.235174e-007
         vertex 2.715722e+000 -4.562998e+000 2.235174e-007
      endloop
   endfacet
   facet normal 0.000000e+000 1.224647e-016 -1.000000e+000
      outer loop
         vertex 2.438869e+000 -4.716781e+000 2.235174e-007
         vertex 2.344607e+000 -4.764338e+000 2.235174e-007
         vertex 2.153340e+000 4.853785e+000 2.235174e-007
      endloop
   endfacet
   facet normal 0.000000e+000 1.224647e-016 -1.000000e+000
      outer loop
         vertex 2.153340e+000 4.853785e+000 2.235174e-007
         vertex 2.344607e+000 -4.764338e+000 2.235174e-007
         vertex 2.249418e+000 -4.810012e+000 2.235174e-007
      endloop
   endfacet
   facet normal 0.000000e+000 1.224647e-016 -1.000000e+000
      outer loop
         vertex 2.153340e+000 4.853785e+000 2.235174e-007
         vertex 2.249418e+000 -4.810012e+000 2.235174e-007
         vertex 2.153340e+000 -4.853785e+000 2.235174e-007
      endloop
   endfacet
   facet normal 0.000000e+000 1.224647e-016 -1.000000e+000
      outer loop
         vertex 1.860151e+000 -4.973524e+000 2.235174e-007
         vertex 1.760898e+000 -5.009524e+000 2.235174e-007
         vertex 2.153340e+000 4.853785e+000 2.235174e-007
      endloop
   endfacet
   facet normal 0.000000e+000 1.224647e-016 -1.000000e+000
      outer loop
         vertex 2.153340e+000 4.853785e+000 2.235174e-007
         vertex 1.760898e+000 -5.009524e+000 2.235174e-007
         vertex 1.660950e+000 -5.043545e+000 2.235174e-007
      endloop
   endfacet
   facet normal 0.000000e+000 1.224647e-016 -1.000000e+000
      outer loop
         vertex 2.153340e+000 4.853785e+000 2.235174e-007
         vertex 1.660950e+000 -5.043545e+000 2.235174e-007
         vertex 1.560345e+000 -5.075571e+000 2.235174e-007
      endloop
   endfacet
endsolid