solid symmetry_plane
   facet normal 1.000000e+000 0.000000e+000 0.000000e+000
      outer loop
         vertex 0.000000e+000 -4.000000e+001 9.624500e+001
         vertex 0.000000e+000 -1.816000e+001 9.624500e+001
         vertex 0.000000e+000 -4.000000e+001 1.037550e+002
      endloop
   endfacet
   facet normal 1.000000e+000 0.000000e+000 0.000000e+000
      outer loop
         vertex 0.000000e+000 -4.000000e+001 1.037550e+002
         vertex 0.000000e+000 -1.816000e+001 9.624500e+001
         vertex 0.000000e+000 -1.816000e+001 1.037550e+002
      endloop
   endfacet
   facet normal 1.000000e+000 0.000000e+000 0.000000e+000
      outer loop
         vertex 0.000000e+000 4.000000e+001 9.624500e+001
         vertex 0.000000e+000 4.000000e+001 1.037550e+002
         vertex 0.000000e+000 1.816000e+001 9.624500e+001
      endloop
   endfacet
   facet normal 1.000000e+000 0.000000e+000 0.000000e+000
      outer loop
         vertex 0.000000e+000 1.816000e+001 9.624500e+001
         vertex 0.000000e+000 4.000000e+001 1.037550e+002
         vertex 0.000000e+000 1.816000e+001 1.037550e+002
      endloop
   endfacet
   facet normal 1.000000e+000 0.000000e+000 0.000000e+000
      outer loop
         vertex 0.000000e+000 1.816000e+001 1.000000e+003
         vertex 0.000000e+000 -1.816000e+001 1.000000e+003
         vertex 0.000000e+000 1.816000e+001 1.037550e+002
      endloop
   endfacet
   facet normal 1.000000e+000 0.000000e+000 0.000000e+000
      outer loop
         vertex 0.000000e+000 1.816000e+001 1.037550e+002
         vertex 0.000000e+000 -1.816000e+001 1.000000e+003
         vertex 0.000000e+000 -1.816000e+001 1.037550e+002
      endloop
   endfacet
   facet normal 1.000000e+000 0.000000e+000 0.000000e+000
      outer loop
         vertex 0.000000e+000 1.816000e+001 1.037550e+002
         vertex 0.000000e+000 -1.816000e+001 1.037550e+002
         vertex 0.000000e+000 1.816000e+001 9.624500e+001
      endloop
   endfacet
   facet normal 1.000000e+000 0.000000e+000 0.000000e+000
      outer loop
         vertex 0.000000e+000 1.816000e+001 9.624500e+001
         vertex 0.000000e+000 -1.816000e+001 1.037550e+002
         vertex 0.000000e+000 -1.816000e+001 9.624500e+001
      endloop
   endfacet
   facet normal 1.000000e+000 0.000000e+000 0.000000e+000
      outer loop
         vertex 0.000000e+000 1.816000e+001 9.624500e+001
         vertex 0.000000e+000 -1.816000e+001 9.624500e+001
         vertex 0.000000e+000 1.816000e+001 0.000000e+000
      endloop
   endfacet
   facet normal 1.000000e+000 0.000000e+000 0.000000e+000
      outer loop
         vertex 0.000000e+000 1.816000e+001 0.000000e+000
         vertex 0.000000e+000 -1.816000e+001 9.624500e+001
         vertex 0.000000e+000 -1.816000e+001 -5.418444e-015
      endloop
   endfacet
endsolid